MulatAbay-ThinItalic.ufo
<glyph name="ampersand" format="2">
  <advance width="1247"/>
  <unicode hex="0026"/>
  <note>
uni0026
</note>
  <outline>
    <contour>
      <point x="355" y="-20" type="curve" smooth="yes"/>
      <point x="506" y="-20"/>
      <point x="659" y="45"/>
      <point x="812" y="176" type="curve"/>
      <point x="938" y="0" type="line"/>
      <point x="1005" y="0" type="line"/>
      <point x="853" y="216" type="line"/>
      <point x="963" y="335"/>
      <point x="1032" y="474"/>
      <point x="1060" y="632" type="curve"/>
      <point x="1005" y="632" type="line"/>
      <point x="979" y="489"/>
      <point x="919" y="365"/>
      <point x="824" y="258" type="curve"/>
      <point x="444" y="797" type="line"/>
      <point x="622" y="921" type="line" smooth="yes"/>
      <point x="765" y="1025"/>
      <point x="845" y="1122"/>
      <point x="861" y="1213" type="curve" smooth="yes"/>
      <point x="889" y="1369"/>
      <point x="798" y="1477"/>
      <point x="632" y="1477" type="curve" smooth="yes"/>
      <point x="450" y="1477"/>
      <point x="305" y="1355"/>
      <point x="272" y="1167" type="curve" smooth="yes"/>
      <point x="252" y="1054"/>
      <point x="281" y="946"/>
      <point x="373" y="802" type="curve"/>
      <point x="95" y="601"/>
      <point x="9" y="483"/>
      <point x="-14" y="352" type="curve" smooth="yes"/>
      <point x="-54" y="124"/>
      <point x="87" y="-20"/>
    </contour>
    <contour>
      <point x="364" y="34" type="curve" smooth="yes"/>
      <point x="134" y="34"/>
      <point x="7" y="163"/>
      <point x="40" y="352" type="curve" smooth="yes"/>
      <point x="62" y="473"/>
      <point x="157" y="587"/>
      <point x="339" y="723" type="curve"/>
      <point x="398" y="764" type="line"/>
      <point x="784" y="217" type="line"/>
      <point x="662" y="100"/>
      <point x="512" y="34"/>
    </contour>
    <contour>
      <point x="418" y="834" type="line"/>
      <point x="339" y="952"/>
      <point x="309" y="1064"/>
      <point x="327" y="1169" type="curve" smooth="yes"/>
      <point x="354" y="1320"/>
      <point x="471" y="1423"/>
      <point x="622" y="1423" type="curve" smooth="yes"/>
      <point x="751" y="1423"/>
      <point x="827" y="1336"/>
      <point x="805" y="1213" type="curve" smooth="yes"/>
      <point x="791" y="1134"/>
      <point x="729" y="1054"/>
      <point x="618" y="973" type="curve" smooth="yes"/>
    </contour>
  </outline>
</glyph>
<glyph name="backslash" format="2">
  <advance width="774"/>
  <unicode hex="005C"/>
  <note>
uni005C
</note>
  <outline>
    <contour>
      <point x="452" y="-125" type="line"/>
      <point x="510" y="-125" type="line"/>
      <point x="181" y="1456" type="line"/>
      <point x="123" y="1456" type="line"/>
    </contour>
  </outline>
</glyph>
<glyph name="h" format="2">
  <advance width="1121"/>
  <unicode hex="0068"/>
  <note>
uni0068
</note>
  <outline>
    <contour>
      <point x="-19" y="0" type="line"/>
      <point x="35" y="0" type="line"/>
      <point x="157" y="693" type="line"/>
      <point x="242" y="902"/>
      <point x="415" y="1049"/>
      <point x="601" y="1049" type="curve" smooth="yes"/>
      <point x="804" y="1049"/>
      <point x="874" y="940"/>
      <point x="834" y="708" type="curve" smooth="yes"/>
      <point x="709" y="0" type="line"/>
      <point x="763" y="0" type="line"/>
      <point x="888" y="706" type="line" smooth="yes"/>
      <point x="933" y="971"/>
      <point x="846" y="1102"/>
      <point x="614" y="1102" type="curve" smooth="yes"/>
      <point x="447" y="1102"/>
      <point x="282" y="998"/>
      <point x="182" y="830" type="curve"/>
      <point x="306" y="1536" type="line"/>
      <point x="252" y="1536" type="line"/>
    </contour>
  </outline>
</glyph>
<glyph name="q" format="2">
  <advance width="1121"/>
  <unicode hex="0071"/>
  <note>
uni0071
</note>
  <outline>
    <contour>
      <point x="633" y="-416" type="line"/>
      <point x="687" y="-416" type="line"/>
      <point x="951" y="1082" type="line"/>
      <point x="897" y="1082" type="line"/>
      <point x="863" y="889" type="line"/>
      <point x="813" y="1026"/>
      <point x="695" y="1102"/>
      <point x="534" y="1102" type="curve" smooth="yes"/>
      <point x="280" y="1102"/>
      <point x="89" y="897"/>
      <point x="29" y="552" type="curve" smooth="yes"/>
      <point x="-35" y="191"/>
      <point x="83" y="-20"/>
      <point x="334" y="-20" type="curve" smooth="yes"/>
      <point x="494" y="-20"/>
      <point x="637" y="47"/>
      <point x="736" y="168" type="curve"/>
    </contour>
    <contour>
      <point x="342" y="34" type="curve" smooth="yes"/>
      <point x="120" y="34"/>
      <point x="27" y="224"/>
      <point x="81" y="531" type="curve" smooth="yes"/>
      <point x="141" y="871"/>
      <point x="302" y="1048"/>
      <point x="523" y="1048" type="curve" smooth="yes"/>
      <point x="698" y="1048"/>
      <point x="812" y="955"/>
      <point x="843" y="775" type="curve"/>
      <point x="753" y="268" type="line"/>
      <point x="665" y="115"/>
      <point x="521" y="34"/>
    </contour>
  </outline>
</glyph>
<glyph name="section" format="2">
  <advance width="1223"/>
  <unicode hex="00A7"/>
  <outline>
    <contour>
      <point x="322" y="-495" type="curve" smooth="yes"/>
      <point x="598" y="-495"/>
      <point x="795" y="-362"/>
      <point x="833" y="-149" type="curve" smooth="yes"/>
      <point x="859" y="0"/>
      <point x="805" y="92"/>
      <point x="628" y="164" type="curve"/>
      <point x="820" y="191"/>
      <point x="955" y="291"/>
      <point x="979" y="431" type="curve" smooth="yes"/>
      <point x="1023" y="682"/>
      <point x="788" y="746"/>
      <point x="567" y="804" type="curve" smooth="yes"/>
      <point x="368" y="864"/>
      <point x="190" y="913"/>
      <point x="229" y="1132" type="curve" smooth="yes"/>
      <point x="261" y="1313"/>
      <point x="433" y="1422"/>
      <point x="678" y="1422" type="curve" smooth="yes"/>
      <point x="921" y="1422"/>
      <point x="1051" y="1268"/>
      <point x="1011" y="1045" type="curve"/>
      <point x="1065" y="1045" type="line"/>
      <point x="1114" y="1320"/>
      <point x="974" y="1476"/>
      <point x="687" y="1476" type="curve" smooth="yes"/>
      <point x="411" y="1476"/>
      <point x="211" y="1338"/>
      <point x="174" y="1129" type="curve" smooth="yes"/>
      <point x="149" y="985"/>
      <point x="201" y="890"/>
      <point x="361" y="822" type="curve"/>
      <point x="180" y="795"/>
      <point x="53" y="696"/>
      <point x="27" y="551" type="curve" smooth="yes"/>
      <point x="-6" y="362"/>
      <point x="99" y="251"/>
      <point x="445" y="166" type="curve" smooth="yes"/>
      <point x="639" y="112"/>
      <point x="815" y="59"/>
      <point x="778" y="-151" type="curve" smooth="yes"/>
      <point x="747" y="-326"/>
      <point x="575" y="-441"/>
      <point x="331" y="-441" type="curve" smooth="yes"/>
      <point x="66" y="-441"/>
      <point x="-75" y="-302"/>
      <point x="-33" y="-62" type="curve"/>
      <point x="-87" y="-64" type="line"/>
      <point x="-136" y="-339"/>
      <point x="21" y="-495"/>
    </contour>
    <contour>
      <point x="537" y="196" type="curve"/>
      <point x="378" y="242"/>
      <point x="269" y="280"/>
      <point x="211" y="309" type="curve" smooth="yes"/>
      <point x="95" y="367"/>
      <point x="60" y="429"/>
      <point x="82" y="553" type="curve" smooth="yes"/>
      <point x="107" y="696"/>
      <point x="240" y="789"/>
      <point x="432" y="796" type="curve"/>
      <point x="704" y="716"/>
      <point x="965" y="656"/>
      <point x="925" y="428" type="curve" smooth="yes"/>
      <point x="901" y="293"/>
      <point x="747" y="199"/>
    </contour>
  </outline>
</glyph>
<glyph name="plusminus" format="2">
  <advance width="1077"/>
  <unicode hex="00B1"/>
  <note>
uni00B1
</note>
  <outline>
    <contour>
      <point x="375" y="289" type="line"/>
      <point x="429" y="289" type="line"/>
      <point x="511" y="751" type="line"/>
      <point x="930" y="751" type="line"/>
      <point x="939" y="805" type="line"/>
      <point x="520" y="805" type="line"/>
      <point x="602" y="1267" type="line"/>
      <point x="548" y="1267" type="line"/>
      <point x="466" y="805" type="line"/>
      <point x="23" y="805" type="line"/>
      <point x="14" y="751" type="line"/>
      <point x="457" y="751" type="line"/>
    </contour>
    <contour>
      <point x="-69" y="-1" type="line" name="❌"/>
      <point x="766" y="-1" type="line" name="❌"/>
      <point x="776" y="53" type="line"/>
      <point x="-59" y="53" type="line"/>
    </contour>
  </outline>
</glyph>
<glyph name="micro" format="2">
  <advance width="1121"/>
  <unicode hex="00B5"/>
  <note>
uni00B5
</note>
  <outline>
    <contour>
      <point x="-93" y="-416" type="line"/>
      <point x="-41" y="-416" type="line"/>
      <point x="62" y="171" type="line"/>
      <point x="97" y="50"/>
      <point x="192" y="-20"/>
      <point x="344" y="-20" type="curve" smooth="yes"/>
      <point x="520" y="-20"/>
      <point x="654" y="54"/>
      <point x="744" y="203" type="curve"/>
      <point x="711" y="0" type="line"/>
      <point x="762" y="0" type="line"/>
      <point x="953" y="1082" type="line"/>
      <point x="899" y="1082" type="line"/>
      <point x="781" y="414" type="line"/>
      <point x="714" y="149"/>
      <point x="579" y="34"/>
      <point x="344" y="34" type="curve" smooth="yes"/>
      <point x="144" y="34"/>
      <point x="66" y="169"/>
      <point x="106" y="421" type="curve" smooth="yes"/>
      <point x="223" y="1082" type="line"/>
      <point x="171" y="1082" type="line"/>
    </contour>
  </outline>
</glyph>
<glyph name="paragraph" format="2">
  <advance width="946"/>
  <unicode hex="00B6"/>
  <note>
uni00B6
</note>
  <outline>
    <contour>
      <point x="525" y="0" type="line"/>
      <point x="579" y="0" type="line"/>
      <point x="836" y="1456" type="line"/>
      <point x="659" y="1456" type="line" smooth="yes"/>
      <point x="355" y="1456"/>
      <point x="133" y="1272"/>
      <point x="82" y="988" type="curve" smooth="yes"/>
      <point x="23" y="645"/>
      <point x="342" y="520"/>
      <point x="490" y="520" type="curve" smooth="yes"/>
      <point x="617" y="520" type="line"/>
    </contour>
  </outline>
</glyph>
<glyph name="Eth" format="2">
  <advance width="1370"/>
  <unicode hex="00D0"/>
  <note>
uni00D0
</note>
  <outline>
    <contour>
      <point x="39" y="0" type="line"/>
      <point x="447" y="0" type="line" smooth="yes"/>
      <point x="790" y="2"/>
      <point x="1090" y="265"/>
      <point x="1156" y="639" type="curve" smooth="yes"/>
      <point x="1189" y="828" type="line" smooth="yes"/>
      <point x="1229" y="1067"/>
      <point x="1155" y="1269"/>
      <point x="991" y="1376" type="curve" smooth="yes"/>
      <point x="909" y="1429"/>
      <point x="812" y="1456"/>
      <point x="699" y="1456" type="curve" smooth="yes"/>
      <point x="296" y="1456" type="line"/>
      <point x="174" y="767" type="line"/>
      <point x="4" y="767" type="line"/>
      <point x="-5" y="713" type="line"/>
      <point x="165" y="713" type="line"/>
    </contour>
    <contour>
      <point x="103" y="54" type="line"/>
      <point x="219" y="713" type="line"/>
      <point x="582" y="713" type="line"/>
      <point x="591" y="767" type="line"/>
      <point x="228" y="767" type="line"/>
      <point x="340" y="1402" type="line"/>
      <point x="697" y="1402" type="line" smooth="yes"/>
      <point x="1178" y="1391"/>
      <point x="1144" y="877"/>
      <point x="1134" y="820" type="curve" smooth="yes"/>
      <point x="1103" y="647" type="line" smooth="yes"/>
      <point x="1042" y="299"/>
      <point x="771" y="54"/>
      <point x="442" y="54" type="curve" smooth="yes"/>
    </contour>
  </outline>
</glyph>
<glyph name="oslash" format="2">
  <advance width="1127"/>
  <unicode hex="00F8"/>
  <note>
uni00F8
</note>
  <outline>
    <contour>
      <point x="371" y="-20" type="curve" smooth="yes"/>
      <point x="671" y="-20"/>
      <point x="886" y="226"/>
      <point x="946" y="568" type="curve" smooth="yes"/>
      <point x="999" y="868"/>
      <point x="857" y="1102"/>
      <point x="567" y="1102" type="curve" smooth="yes"/>
      <point x="271" y="1102"/>
      <point x="51" y="858"/>
      <point x="-2" y="562" type="curve" smooth="yes"/>
      <point x="-72" y="140"/>
      <point x="217" y="-20"/>
    </contour>
    <contour>
      <point x="380" y="34" type="curve" smooth="yes"/>
      <point x="201" y="34"/>
      <point x="-7" y="228"/>
      <point x="51" y="552" type="curve" smooth="yes"/>
      <point x="101" y="837"/>
      <point x="310" y="1048"/>
      <point x="557" y="1048" type="curve" smooth="yes"/>
      <point x="818" y="1048"/>
      <point x="936" y="818"/>
      <point x="891" y="562" type="curve" smooth="yes"/>
      <point x="834" y="239"/>
      <point x="627" y="34"/>
    </contour>
    <contour>
      <point x="-21" y="-295" type="line"/>
      <point x="38" y="-295" type="line"/>
      <point x="925" y="1286" type="line"/>
      <point x="866" y="1286" type="line"/>
    </contour>
  </outline>
</glyph>
<glyph name="OE" format="2">
  <advance width="1873"/>
  <unicode hex="0152"/>
  <note>
uni0152
</note>
  <outline>
    <contour>
      <point x="437" y="-21" type="curve" smooth="yes"/>
      <point x="524" y="-21"/>
      <point x="635" y="-14"/>
      <point x="770" y="0" type="curve"/>
      <point x="1610" y="0" type="line"/>
      <point x="1620" y="54" type="line"/>
      <point x="788" y="54" type="line"/>
      <point x="906" y="722" type="line"/>
      <point x="1636" y="722" type="line"/>
      <point x="1645" y="776" type="line"/>
      <point x="915" y="776" type="line"/>
      <point x="1025" y="1402" type="line"/>
      <point x="1857" y="1402" type="line"/>
      <point x="1867" y="1456" type="line"/>
      <point x="1027" y="1456" type="line"/>
      <point x="903" y="1469"/>
      <point x="793" y="1476"/>
      <point x="698" y="1476" type="curve" smooth="yes"/>
      <point x="215" y="1472"/>
      <point x="85" y="928"/>
      <point x="76" y="880" type="curve" smooth="yes"/>
      <point x="21" y="565" type="line" smooth="yes"/>
      <point x="-52" y="150"/>
      <point x="268" y="-21"/>
    </contour>
    <contour>
      <point x="446" y="33" type="curve" smooth="yes"/>
      <point x="206" y="33"/>
      <point x="25" y="280"/>
      <point x="77" y="576" type="curve" smooth="yes"/>
      <point x="130" y="875" type="line" smooth="yes"/>
      <point x="189" y="1211"/>
      <point x="410" y="1422"/>
      <point x="689" y="1422" type="curve" smooth="yes"/>
      <point x="808" y="1422"/>
      <point x="903" y="1418"/>
      <point x="973" y="1409" type="curve"/>
      <point x="732" y="46" type="line"/>
      <point x="660" y="37"/>
      <point x="565" y="33"/>
    </contour>
  </outline>
</glyph>
<glyph name="ha-ethiopic" format="2">
  <advance width="1241"/>
  <unicode hex="1200"/>
  <outline>
    <contour>
      <point x="423" y="-20" type="curve" smooth="yes"/>
      <point x="653" y="-23"/>
      <point x="842" y="121"/>
      <point x="889" y="385" type="curve" smooth="yes"/>
      <point x="1012" y="1082" type="line"/>
      <point x="957" y="1082" type="line"/>
      <point x="834" y="385" type="line" smooth="yes"/>
      <point x="795" y="163"/>
      <point x="637" y="34"/>
      <point x="430" y="34" type="curve" smooth="yes"/>
      <point x="235" y="34"/>
      <point x="120" y="163"/>
      <point x="159" y="385" type="curve" smooth="yes"/>
      <point x="282" y="1082" type="line"/>
      <point x="228" y="1082" type="line"/>
      <point x="105" y="385" type="line" smooth="yes"/>
      <point x="58" y="121"/>
      <point x="181" y="-17"/>
    </contour>
  </outline>
</glyph>
<glyph name="hu-ethiopic" format="2">
  <advance width="1241"/>
  <unicode hex="1201"/>
  <outline>
    <contour>
      <point x="423" y="-20" type="curve" smooth="yes"/>
      <point x="653" y="-23"/>
      <point x="842" y="121"/>
      <point x="889" y="385" type="curve" smooth="yes"/>
      <point x="1012" y="1082" type="line"/>
      <point x="957" y="1082" type="line"/>
      <point x="834" y="385" type="line" smooth="yes"/>
      <point x="795" y="163"/>
      <point x="637" y="34"/>
      <point x="430" y="34" type="curve" smooth="yes"/>
      <point x="235" y="34"/>
      <point x="120" y="163"/>
      <point x="159" y="385" type="curve" smooth="yes"/>
      <point x="282" y="1082" type="line"/>
      <point x="228" y="1082" type="line"/>
      <point x="105" y="385" type="line" smooth="yes"/>
      <point x="58" y="121"/>
      <point x="181" y="-17"/>
    </contour>
    <contour>
      <point x="1036" y="559" type="curve" smooth="yes"/>
      <point x="1067" y="559"/>
      <point x="1096" y="583"/>
      <point x="1101" y="614" type="curve" smooth="yes"/>
      <point x="1107" y="645"/>
      <point x="1086" y="670"/>
      <point x="1055" y="670" type="curve" smooth="yes"/>
      <point x="1024" y="670"/>
      <point x="996" y="645"/>
      <point x="990" y="614" type="curve" smooth="yes"/>
      <point x="985" y="583"/>
      <point x="1005" y="559"/>
    </contour>
  </outline>
</glyph>
<glyph name="hi-ethiopic" format="2">
  <advance width="1241"/>
  <unicode hex="1202"/>
  <outline>
    <contour>
      <point x="423" y="-20" type="curve" smooth="yes"/>
      <point x="653" y="-23"/>
      <point x="842" y="121"/>
      <point x="889" y="385" type="curve" smooth="yes"/>
      <point x="1012" y="1082" type="line"/>
      <point x="957" y="1082" type="line"/>
      <point x="834" y="385" type="line" smooth="yes"/>
      <point x="795" y="163"/>
      <point x="637" y="34"/>
      <point x="430" y="34" type="curve" smooth="yes"/>
      <point x="235" y="34"/>
      <point x="120" y="163"/>
      <point x="159" y="385" type="curve" smooth="yes"/>
      <point x="282" y="1082" type="line"/>
      <point x="228" y="1082" type="line"/>
      <point x="105" y="385" type="line" smooth="yes"/>
      <point x="58" y="121"/>
      <point x="181" y="-17"/>
    </contour>
    <contour>
      <point x="741" y="-356" type="curve" smooth="yes"/>
      <point x="772" y="-356"/>
      <point x="801" y="-332"/>
      <point x="807" y="-301" type="curve" smooth="yes"/>
      <point x="812" y="-270"/>
      <point x="791" y="-245"/>
      <point x="760" y="-245" type="curve" smooth="yes"/>
      <point x="729" y="-245"/>
      <point x="701" y="-270"/>
      <point x="696" y="-301" type="curve" smooth="yes"/>
      <point x="690" y="-332"/>
      <point x="710" y="-356"/>
    </contour>
    <contour>
      <point x="584" y="-356" type="line"/>
      <point x="641" y="-356" type="line"/>
      <point x="703" y="-2" type="line"/>
      <point x="646" y="-2" type="line"/>
    </contour>
  </outline>
</glyph>
<glyph name="haa-ethiopic" format="2">
  <advance width="1241"/>
  <unicode hex="1203"/>
  <outline>
    <contour>
      <point x="423" y="-20" type="curve" smooth="yes"/>
      <point x="653" y="-23"/>
      <point x="842" y="121"/>
      <point x="889" y="385" type="curve" smooth="yes"/>
      <point x="1012" y="1082" type="line"/>
      <point x="957" y="1082" type="line"/>
      <point x="834" y="385" type="line" smooth="yes"/>
      <point x="795" y="163"/>
      <point x="637" y="34"/>
      <point x="430" y="34" type="curve" smooth="yes"/>
      <point x="235" y="34"/>
      <point x="120" y="163"/>
      <point x="159" y="385" type="curve" smooth="yes"/>
      <point x="282" y="1082" type="line"/>
      <point x="228" y="1082" type="line"/>
      <point x="105" y="385" type="line" smooth="yes"/>
      <point x="58" y="121"/>
      <point x="181" y="-17"/>
    </contour>
    <contour>
      <point x="584" y="-356" type="line"/>
      <point x="641" y="-356" type="line"/>
      <point x="703" y="-2" type="line"/>
      <point x="646" y="-2" type="line"/>
    </contour>
  </outline>
</glyph>
<glyph name="hee-ethiopic" format="2">
  <advance width="1241"/>
  <unicode hex="1204"/>
  <outline>
    <contour>
      <point x="423" y="-20" type="curve" smooth="yes"/>
      <point x="653" y="-23"/>
      <point x="842" y="121"/>
      <point x="889" y="385" type="curve" smooth="yes"/>
      <point x="1012" y="1082" type="line"/>
      <point x="957" y="1082" type="line"/>
      <point x="834" y="385" type="line" smooth="yes"/>
      <point x="795" y="163"/>
      <point x="637" y="34"/>
      <point x="430" y="34" type="curve" smooth="yes"/>
      <point x="235" y="34"/>
      <point x="120" y="163"/>
      <point x="159" y="385" type="curve" smooth="yes"/>
      <point x="282" y="1082" type="line"/>
      <point x="228" y="1082" type="line"/>
      <point x="105" y="385" type="line" smooth="yes"/>
      <point x="58" y="121"/>
      <point x="181" y="-17"/>
    </contour>
    <contour>
      <point x="615" y="-407" type="curve" smooth="yes"/>
      <point x="740" y="-407"/>
      <point x="854" y="-310"/>
      <point x="876" y="-186" type="curve" smooth="yes"/>
      <point x="898" y="-61"/>
      <point x="819" y="41"/>
      <point x="694" y="41" type="curve" smooth="yes"/>
      <point x="573" y="41"/>
      <point x="455" y="-56"/>
      <point x="432" y="-186" type="curve" smooth="yes"/>
      <point x="409" y="-316"/>
      <point x="495" y="-407"/>
    </contour>
    <contour>
      <point x="621" y="-369" type="curve" smooth="yes"/>
      <point x="519" y="-369"/>
      <point x="459" y="-298"/>
      <point x="477" y="-195" type="curve" smooth="yes"/>
      <point x="496" y="-87"/>
      <point x="581" y="-15"/>
      <point x="683" y="-15" type="curve" smooth="yes"/>
      <point x="785" y="-15"/>
      <point x="846" y="-87"/>
      <point x="827" y="-195" type="curve" smooth="yes"/>
      <point x="809" y="-298"/>
      <point x="723" y="-369"/>
    </contour>
  </outline>
</glyph>
<glyph name="la-ethiopic" format="2">
  <advance width="1241"/>
  <unicode hex="1208"/>
  <outline>
    <contour>
      <point x="41" y="0" type="line"/>
      <point x="95" y="0" type="line"/>
      <point x="217" y="693" type="line"/>
      <point x="302" y="902"/>
      <point x="475" y="1049"/>
      <point x="661" y="1049" type="curve" smooth="yes"/>
      <point x="864" y="1049"/>
      <point x="935" y="940"/>
      <point x="894" y="708" type="curve" smooth="yes"/>
      <point x="769" y="0" type="line"/>
      <point x="823" y="0" type="line"/>
      <point x="948" y="706" type="line" smooth="yes"/>
      <point x="995" y="971"/>
      <point x="906" y="1102"/>
      <point x="674" y="1102" type="curve" smooth="yes"/>
      <point x="507" y="1102"/>
      <point x="342" y="998"/>
      <point x="242" y="830" type="curve"/>
      <point x="366" y="1536" type="line"/>
      <point x="312" y="1536" type="line"/>
    </contour>
  </outline>
</glyph>
<glyph name="li-ethiopic" format="2">
  <advance width="1241"/>
  <unicode hex="120A"/>
  <outline>
    <contour>
      <point x="41" y="0" type="line"/>
      <point x="95" y="0" type="line"/>
      <point x="217" y="693" type="line"/>
      <point x="302" y="902"/>
      <point x="475" y="1049"/>
      <point x="661" y="1049" type="curve" smooth="yes"/>
      <point x="864" y="1049"/>
      <point x="935" y="940"/>
      <point x="894" y="708" type="curve" smooth="yes"/>
      <point x="769" y="0" type="line"/>
      <point x="823" y="0" type="line"/>
      <point x="948" y="706" type="line" smooth="yes"/>
      <point x="995" y="971"/>
      <point x="906" y="1102"/>
      <point x="674" y="1102" type="curve" smooth="yes"/>
      <point x="507" y="1102"/>
      <point x="342" y="998"/>
      <point x="242" y="830" type="curve"/>
      <point x="366" y="1536" type="line"/>
      <point x="312" y="1536" type="line"/>
    </contour>
    <contour>
      <point x="914" y="-5" type="curve" smooth="yes"/>
      <point x="945" y="-5"/>
      <point x="974" y="19"/>
      <point x="980" y="50" type="curve" smooth="yes"/>
      <point x="985" y="81"/>
      <point x="964" y="106"/>
      <point x="933" y="106" type="curve" smooth="yes"/>
      <point x="902" y="106"/>
      <point x="874" y="81"/>
      <point x="869" y="50" type="curve" smooth="yes"/>
      <point x="863" y="19"/>
      <point x="883" y="-5"/>
    </contour>
  </outline>
</glyph>
<glyph name="lee-ethiopic" format="2">
  <advance width="1241"/>
  <unicode hex="120C"/>
  <outline>
    <contour>
      <point x="41" y="0" type="line"/>
      <point x="95" y="0" type="line"/>
      <point x="217" y="693" type="line"/>
      <point x="302" y="902"/>
      <point x="475" y="1049"/>
      <point x="661" y="1049" type="curve" smooth="yes"/>
      <point x="864" y="1049"/>
      <point x="935" y="940"/>
      <point x="894" y="708" type="curve" smooth="yes"/>
      <point x="769" y="0" type="line"/>
      <point x="823" y="0" type="line"/>
      <point x="948" y="706" type="line" smooth="yes"/>
      <point x="995" y="971"/>
      <point x="906" y="1102"/>
      <point x="674" y="1102" type="curve" smooth="yes"/>
      <point x="507" y="1102"/>
      <point x="342" y="998"/>
      <point x="242" y="830" type="curve"/>
      <point x="366" y="1536" type="line"/>
      <point x="312" y="1536" type="line"/>
    </contour>
    <contour>
      <point x="553" y="-297" type="curve" smooth="yes"/>
      <point x="678" y="-297"/>
      <point x="792" y="-200"/>
      <point x="814" y="-76" type="curve" smooth="yes"/>
      <point x="836" y="49"/>
      <point x="757" y="151"/>
      <point x="632" y="151" type="curve" smooth="yes"/>
      <point x="511" y="151"/>
      <point x="393" y="54"/>
      <point x="370" y="-76" type="curve" smooth="yes"/>
      <point x="347" y="-206"/>
      <point x="433" y="-297"/>
    </contour>
    <contour>
      <point x="559" y="-259" type="curve" smooth="yes"/>
      <point x="457" y="-259"/>
      <point x="397" y="-188"/>
      <point x="415" y="-85" type="curve" smooth="yes"/>
      <point x="434" y="23"/>
      <point x="519" y="95"/>
      <point x="621" y="95" type="curve" smooth="yes"/>
      <point x="723" y="95"/>
      <point x="784" y="23"/>
      <point x="765" y="-85" type="curve" smooth="yes"/>
      <point x="747" y="-188"/>
      <point x="661" y="-259"/>
    </contour>
  </outline>
</glyph>
<glyph name="le-ethiopic" format="2">
  <advance width="1241"/>
  <unicode hex="120D"/>
  <outline>
    <contour>
      <point x="41" y="0" type="line"/>
      <point x="95" y="0" type="line"/>
      <point x="217" y="693" type="line"/>
      <point x="302" y="902"/>
      <point x="475" y="1049"/>
      <point x="661" y="1049" type="curve" smooth="yes"/>
      <point x="864" y="1049"/>
      <point x="935" y="940"/>
      <point x="894" y="708" type="curve" smooth="yes"/>
      <point x="769" y="0" type="line"/>
      <point x="823" y="0" type="line"/>
      <point x="948" y="706" type="line" smooth="yes"/>
      <point x="995" y="971"/>
      <point x="906" y="1102"/>
      <point x="674" y="1102" type="curve" smooth="yes"/>
      <point x="507" y="1102"/>
      <point x="342" y="998"/>
      <point x="242" y="830" type="curve"/>
      <point x="366" y="1536" type="line"/>
      <point x="312" y="1536" type="line"/>
    </contour>
    <contour>
      <point x="226" y="-197" type="curve" smooth="yes"/>
      <point x="343" y="-197"/>
      <point x="460" y="-108"/>
      <point x="483" y="19" type="curve" smooth="yes"/>
      <point x="505" y="147"/>
      <point x="423" y="241"/>
      <point x="304" y="241" type="curve" smooth="yes"/>
      <point x="182" y="241"/>
      <point x="68" y="142"/>
      <point x="47" y="19" type="curve" smooth="yes"/>
      <point x="25" y="-103"/>
      <point x="104" y="-197"/>
    </contour>
    <contour>
      <point x="236" y="-141" type="curve" smooth="yes"/>
      <point x="142" y="-141"/>
      <point x="86" y="-76"/>
      <point x="103" y="19" type="curve" smooth="yes"/>
      <point x="120" y="119"/>
      <point x="200" y="185"/>
      <point x="294" y="185" type="curve" smooth="yes"/>
      <point x="388" y="185"/>
      <point x="444" y="119"/>
      <point x="427" y="19" type="curve" smooth="yes"/>
      <point x="410" y="-76"/>
      <point x="330" y="-141"/>
    </contour>
  </outline>
</glyph>
<glyph name="lo-ethiopic" format="2">
  <advance width="1241"/>
  <unicode hex="120E"/>
  <outline>
    <contour>
      <point x="41" y="0" type="line"/>
      <point x="95" y="0" type="line"/>
      <point x="217" y="693" type="line"/>
      <point x="302" y="902"/>
      <point x="475" y="1049"/>
      <point x="661" y="1049" type="curve" smooth="yes"/>
      <point x="864" y="1049"/>
      <point x="935" y="940"/>
      <point x="894" y="708" type="curve" smooth="yes"/>
      <point x="769" y="0" type="line"/>
      <point x="823" y="0" type="line"/>
      <point x="948" y="706" type="line" smooth="yes"/>
      <point x="995" y="971"/>
      <point x="906" y="1102"/>
      <point x="674" y="1102" type="curve" smooth="yes"/>
      <point x="507" y="1102"/>
      <point x="342" y="998"/>
      <point x="242" y="830" type="curve"/>
      <point x="366" y="1536" type="line"/>
      <point x="312" y="1536" type="line"/>
    </contour>
    <contour>
      <point x="854" y="275" type="curve" smooth="yes"/>
      <point x="979" y="275"/>
      <point x="1093" y="372"/>
      <point x="1115" y="496" type="curve" smooth="yes"/>
      <point x="1137" y="621"/>
      <point x="1058" y="723"/>
      <point x="933" y="723" type="curve" smooth="yes"/>
      <point x="812" y="723"/>
      <point x="694" y="626"/>
      <point x="671" y="496" type="curve" smooth="yes"/>
      <point x="648" y="366"/>
      <point x="734" y="275"/>
    </contour>
    <contour>
      <point x="860" y="313" type="curve" smooth="yes"/>
      <point x="758" y="313"/>
      <point x="697" y="384"/>
      <point x="715" y="487" type="curve" smooth="yes"/>
      <point x="735" y="595"/>
      <point x="820" y="667"/>
      <point x="922" y="667" type="curve" smooth="yes"/>
      <point x="1024" y="667"/>
      <point x="1085" y="595"/>
      <point x="1065" y="487" type="curve" smooth="yes"/>
      <point x="1047" y="384"/>
      <point x="962" y="313"/>
    </contour>
  </outline>
</glyph>
<glyph name="hha-ethiopic" format="2">
  <advance width="1956"/>
  <unicode hex="1210"/>
  <outline>
    <contour>
      <point x="30" y="0" type="line"/>
      <point x="85" y="0" type="line"/>
      <point x="206" y="684" type="line" smooth="yes"/>
      <point x="240" y="875"/>
      <point x="423" y="1049"/>
      <point x="600" y="1049" type="curve" smooth="yes"/>
      <point x="805" y="1049"/>
      <point x="927" y="944"/>
      <point x="889" y="727" type="curve" smooth="yes"/>
      <point x="761" y="0" type="line"/>
      <point x="815" y="0" type="line"/>
      <point x="942" y="720" type="line" smooth="yes"/>
      <point x="960" y="823"/>
      <point x="1125" y="1045"/>
      <point x="1384" y="1049" type="curve" smooth="yes"/>
      <point x="1589" y="1052"/>
      <point x="1661" y="939"/>
      <point x="1619" y="702" type="curve" smooth="yes"/>
      <point x="1495" y="0" type="line"/>
      <point x="1549" y="0" type="line"/>
      <point x="1674" y="706" type="line" smooth="yes"/>
      <point x="1721" y="970"/>
      <point x="1630" y="1102"/>
      <point x="1397" y="1102" type="curve" smooth="yes"/>
      <point x="1218" y="1102"/>
      <point x="1045" y="1002"/>
      <point x="953" y="846" type="curve"/>
      <point x="949" y="1027"/>
      <point x="794" y="1102"/>
      <point x="613" y="1102" type="curve" smooth="yes"/>
      <point x="394" y="1102"/>
      <point x="193" y="920"/>
      <point x="151" y="683" type="curve" smooth="yes"/>
    </contour>
    <contour>
      <point x="940" y="1114" type="line"/>
      <point x="1000" y="1114" type="line"/>
      <point x="1047" y="1380" type="line"/>
      <point x="987" y="1380" type="line"/>
    </contour>
  </outline>
</glyph>
<glyph name="ma-ethiopic" format="2">
  <advance width="1980"/>
  <unicode hex="1218"/>
  <outline>
    <contour>
      <point x="269" y="0" type="curve" smooth="yes"/>
      <point x="507" y="0" type="line" smooth="yes"/>
      <point x="751" y="0"/>
      <point x="786" y="133"/>
      <point x="805" y="240" type="curve" smooth="yes"/>
      <point x="915" y="862" type="line" smooth="yes"/>
      <point x="924" y="913"/>
      <point x="1151" y="909"/>
      <point x="1143" y="862" type="curve" smooth="yes"/>
      <point x="1032" y="234" type="line" smooth="yes"/>
      <point x="1013" y="128"/>
      <point x="1052" y="0"/>
      <point x="1235" y="0" type="curve" smooth="yes"/>
      <point x="1504" y="0" type="line" smooth="yes"/>
      <point x="1644" y="0"/>
      <point x="1659" y="20"/>
      <point x="1685" y="166" type="curve" smooth="yes"/>
      <point x="1784" y="725" type="line" smooth="yes"/>
      <point x="1833" y="1006"/>
      <point x="1732" y="1102"/>
      <point x="1495" y="1102" type="curve" smooth="yes"/>
      <point x="1333" y="1102"/>
      <point x="1239" y="1050"/>
      <point x="1171" y="946" type="curve"/>
      <point x="940" y="946" type="line"/>
      <point x="924" y="1036"/>
      <point x="854" y="1100"/>
      <point x="688" y="1098" type="curve" smooth="yes"/>
      <point x="352" y="1094"/>
      <point x="305" y="966"/>
      <point x="276" y="800" type="curve" smooth="yes"/>
      <point x="164" y="166" type="line" smooth="yes"/>
      <point x="137" y="13"/>
      <point x="152" y="0"/>
    </contour>
    <contour>
      <point x="203" y="50" type="line"/>
      <point x="336" y="805" type="line" smooth="yes"/>
      <point x="368" y="986"/>
      <point x="439" y="1056"/>
      <point x="701" y="1056" type="curve" smooth="yes"/>
      <point x="869" y="1056"/>
      <point x="885" y="995"/>
      <point x="848" y="786" type="curve" smooth="yes"/>
      <point x="757" y="270" type="line" smooth="yes"/>
      <point x="723" y="76"/>
      <point x="679" y="50"/>
      <point x="488" y="50" type="curve" smooth="yes"/>
    </contour>
    <contour>
      <point x="1610" y="50" type="line"/>
      <point x="1348" y="50" type="line" smooth="yes"/>
      <point x="1111" y="50"/>
      <point x="1066" y="110"/>
      <point x="1111" y="366" type="curve" smooth="yes"/>
      <point x="1183" y="773" type="line" smooth="yes"/>
      <point x="1221" y="986"/>
      <point x="1293" y="1042"/>
      <point x="1484" y="1049" type="curve" smooth="yes"/>
      <point x="1649" y="1055"/>
      <point x="1781" y="1024"/>
      <point x="1728" y="719" type="curve" smooth="yes"/>
    </contour>
  </outline>
</glyph>
<glyph name="mee-ethiopic" format="2">
  <advance width="1980"/>
  <unicode hex="121C"/>
  <outline>
    <contour>
      <point x="269" y="0" type="curve" smooth="yes"/>
      <point x="507" y="0" type="line" smooth="yes"/>
      <point x="751" y="0"/>
      <point x="786" y="133"/>
      <point x="805" y="240" type="curve" smooth="yes"/>
      <point x="915" y="862" type="line" smooth="yes"/>
      <point x="924" y="913"/>
      <point x="1151" y="909"/>
      <point x="1143" y="862" type="curve" smooth="yes"/>
      <point x="1032" y="234" type="line" smooth="yes"/>
      <point x="1013" y="128"/>
      <point x="1052" y="0"/>
      <point x="1235" y="0" type="curve" smooth="yes"/>
      <point x="1504" y="0" type="line" smooth="yes"/>
      <point x="1644" y="0"/>
      <point x="1659" y="20"/>
      <point x="1685" y="166" type="curve" smooth="yes"/>
      <point x="1784" y="725" type="line" smooth="yes"/>
      <point x="1833" y="1006"/>
      <point x="1732" y="1102"/>
      <point x="1495" y="1102" type="curve" smooth="yes"/>
      <point x="1333" y="1102"/>
      <point x="1239" y="1050"/>
      <point x="1171" y="946" type="curve"/>
      <point x="940" y="946" type="line"/>
      <point x="924" y="1036"/>
      <point x="854" y="1100"/>
      <point x="688" y="1098" type="curve" smooth="yes"/>
      <point x="352" y="1094"/>
      <point x="305" y="966"/>
      <point x="276" y="800" type="curve" smooth="yes"/>
      <point x="164" y="166" type="line" smooth="yes"/>
      <point x="137" y="13"/>
      <point x="152" y="0"/>
    </contour>
    <contour>
      <point x="203" y="50" type="line"/>
      <point x="336" y="805" type="line" smooth="yes"/>
      <point x="368" y="986"/>
      <point x="439" y="1056"/>
      <point x="701" y="1056" type="curve" smooth="yes"/>
      <point x="869" y="1056"/>
      <point x="885" y="995"/>
      <point x="848" y="786" type="curve" smooth="yes"/>
      <point x="757" y="270" type="line" smooth="yes"/>
      <point x="723" y="76"/>
      <point x="679" y="50"/>
      <point x="488" y="50" type="curve" smooth="yes"/>
    </contour>
    <contour>
      <point x="1610" y="50" type="line"/>
      <point x="1348" y="50" type="line" smooth="yes"/>
      <point x="1111" y="50"/>
      <point x="1066" y="110"/>
      <point x="1111" y="366" type="curve" smooth="yes"/>
      <point x="1183" y="773" type="line" smooth="yes"/>
      <point x="1221" y="986"/>
      <point x="1293" y="1042"/>
      <point x="1484" y="1049" type="curve" smooth="yes"/>
      <point x="1649" y="1055"/>
      <point x="1781" y="1024"/>
      <point x="1728" y="719" type="curve" smooth="yes"/>
    </contour>
    <contour>
      <point x="1266" y="-417" type="curve" smooth="yes"/>
      <point x="1391" y="-417"/>
      <point x="1505" y="-320"/>
      <point x="1527" y="-196" type="curve" smooth="yes"/>
      <point x="1549" y="-71"/>
      <point x="1470" y="31"/>
      <point x="1345" y="31" type="curve" smooth="yes"/>
      <point x="1224" y="31"/>
      <point x="1106" y="-66"/>
      <point x="1083" y="-196" type="curve" smooth="yes"/>
      <point x="1060" y="-326"/>
      <point x="1146" y="-417"/>
    </contour>
    <contour>
      <point x="1272" y="-379" type="curve" smooth="yes"/>
      <point x="1170" y="-379"/>
      <point x="1110" y="-308"/>
      <point x="1128" y="-205" type="curve" smooth="yes"/>
      <point x="1147" y="-97"/>
      <point x="1232" y="-25"/>
      <point x="1334" y="-25" type="curve" smooth="yes"/>
      <point x="1436" y="-25"/>
      <point x="1497" y="-97"/>
      <point x="1478" y="-205" type="curve" smooth="yes"/>
      <point x="1460" y="-308"/>
      <point x="1374" y="-379"/>
    </contour>
  </outline>
</glyph>
<glyph name="szu-ethiopic" format="2">
  <advance width="1976"/>
  <unicode hex="1221"/>
  <outline>
    <contour>
      <point x="381" y="-20" type="curve" smooth="yes"/>
      <point x="560" y="-20"/>
      <point x="732" y="80"/>
      <point x="824" y="236" type="curve"/>
      <point x="828" y="55"/>
      <point x="984" y="-20"/>
      <point x="1165" y="-20" type="curve" smooth="yes"/>
      <point x="1384" y="-20"/>
      <point x="1585" y="162"/>
      <point x="1627" y="399" type="curve" smooth="yes"/>
      <point x="1747" y="1082" type="line"/>
      <point x="1692" y="1082" type="line"/>
      <point x="1571" y="398" type="line" smooth="yes"/>
      <point x="1537" y="207"/>
      <point x="1354" y="33"/>
      <point x="1177" y="33" type="curve" smooth="yes"/>
      <point x="972" y="33"/>
      <point x="850" y="138"/>
      <point x="888" y="355" type="curve" smooth="yes"/>
      <point x="1016" y="1082" type="line"/>
      <point x="962" y="1082" type="line"/>
      <point x="835" y="362" type="line" smooth="yes"/>
      <point x="817" y="259"/>
      <point x="652" y="37"/>
      <point x="393" y="33" type="curve" smooth="yes"/>
      <point x="189" y="30"/>
      <point x="116" y="143"/>
      <point x="158" y="380" type="curve" smooth="yes"/>
      <point x="282" y="1082" type="line"/>
      <point x="228" y="1082" type="line"/>
      <point x="104" y="376" type="line" smooth="yes"/>
      <point x="58" y="112"/>
      <point x="148" y="-20"/>
    </contour>
    <contour>
      <point x="1751" y="656" type="curve" smooth="yes"/>
      <point x="1782" y="656"/>
      <point x="1811" y="680"/>
      <point x="1816" y="711" type="curve" smooth="yes"/>
      <point x="1822" y="742"/>
      <point x="1801" y="767"/>
      <point x="1770" y="767" type="curve" smooth="yes"/>
      <point x="1739" y="767"/>
      <point x="1711" y="742"/>
      <point x="1705" y="711" type="curve" smooth="yes"/>
      <point x="1700" y="680"/>
      <point x="1720" y="656"/>
    </contour>
  </outline>
</glyph>
<glyph name="szi-ethiopic" format="2">
  <advance width="1976"/>
  <unicode hex="1222"/>
  <outline>
    <contour>
      <point x="381" y="-20" type="curve" smooth="yes"/>
      <point x="560" y="-20"/>
      <point x="732" y="80"/>
      <point x="824" y="236" type="curve"/>
      <point x="828" y="55"/>
      <point x="984" y="-20"/>
      <point x="1165" y="-20" type="curve" smooth="yes"/>
      <point x="1384" y="-20"/>
      <point x="1585" y="162"/>
      <point x="1627" y="399" type="curve" smooth="yes"/>
      <point x="1747" y="1082" type="line"/>
      <point x="1692" y="1082" type="line"/>
      <point x="1571" y="398" type="line" smooth="yes"/>
      <point x="1537" y="207"/>
      <point x="1354" y="33"/>
      <point x="1177" y="33" type="curve" smooth="yes"/>
      <point x="972" y="33"/>
      <point x="850" y="138"/>
      <point x="888" y="355" type="curve" smooth="yes"/>
      <point x="1016" y="1082" type="line"/>
      <point x="962" y="1082" type="line"/>
      <point x="835" y="362" type="line" smooth="yes"/>
      <point x="817" y="259"/>
      <point x="652" y="37"/>
      <point x="393" y="33" type="curve" smooth="yes"/>
      <point x="189" y="30"/>
      <point x="116" y="143"/>
      <point x="158" y="380" type="curve" smooth="yes"/>
      <point x="282" y="1082" type="line"/>
      <point x="228" y="1082" type="line"/>
      <point x="104" y="376" type="line" smooth="yes"/>
      <point x="58" y="112"/>
      <point x="148" y="-20"/>
    </contour>
    <contour>
      <point x="1478" y="-361" type="curve" smooth="yes"/>
      <point x="1509" y="-361"/>
      <point x="1538" y="-337"/>
      <point x="1544" y="-306" type="curve" smooth="yes"/>
      <point x="1549" y="-275"/>
      <point x="1528" y="-250"/>
      <point x="1497" y="-250" type="curve" smooth="yes"/>
      <point x="1466" y="-250"/>
      <point x="1438" y="-275"/>
      <point x="1433" y="-306" type="curve" smooth="yes"/>
      <point x="1427" y="-337"/>
      <point x="1447" y="-361"/>
    </contour>
    <contour>
      <point x="1304" y="-356" type="line"/>
      <point x="1361" y="-356" type="line"/>
      <point x="1423" y="-2" type="line"/>
      <point x="1366" y="-2" type="line"/>
    </contour>
  </outline>
</glyph>
<glyph name="szee-ethiopic" format="2">
  <advance width="1976"/>
  <unicode hex="1224"/>
  <outline>
    <contour>
      <point x="381" y="-20" type="curve" smooth="yes"/>
      <point x="560" y="-20"/>
      <point x="732" y="80"/>
      <point x="824" y="236" type="curve"/>
      <point x="828" y="55"/>
      <point x="984" y="-20"/>
      <point x="1165" y="-20" type="curve" smooth="yes"/>
      <point x="1384" y="-20"/>
      <point x="1585" y="162"/>
      <point x="1627" y="399" type="curve" smooth="yes"/>
      <point x="1747" y="1082" type="line"/>
      <point x="1692" y="1082" type="line"/>
      <point x="1571" y="398" type="line" smooth="yes"/>
      <point x="1537" y="207"/>
      <point x="1354" y="33"/>
      <point x="1177" y="33" type="curve" smooth="yes"/>
      <point x="972" y="33"/>
      <point x="850" y="138"/>
      <point x="888" y="355" type="curve" smooth="yes"/>
      <point x="1016" y="1082" type="line"/>
      <point x="962" y="1082" type="line"/>
      <point x="835" y="362" type="line" smooth="yes"/>
      <point x="817" y="259"/>
      <point x="652" y="37"/>
      <point x="393" y="33" type="curve" smooth="yes"/>
      <point x="189" y="30"/>
      <point x="116" y="143"/>
      <point x="158" y="380" type="curve" smooth="yes"/>
      <point x="282" y="1082" type="line"/>
      <point x="228" y="1082" type="line"/>
      <point x="104" y="376" type="line" smooth="yes"/>
      <point x="58" y="112"/>
      <point x="148" y="-20"/>
    </contour>
    <contour>
      <point x="1251" y="-407" type="curve" smooth="yes"/>
      <point x="1376" y="-407"/>
      <point x="1490" y="-310"/>
      <point x="1512" y="-186" type="curve" smooth="yes"/>
      <point x="1534" y="-61"/>
      <point x="1455" y="41"/>
      <point x="1330" y="41" type="curve" smooth="yes"/>
      <point x="1209" y="41"/>
      <point x="1091" y="-56"/>
      <point x="1068" y="-186" type="curve" smooth="yes"/>
      <point x="1045" y="-316"/>
      <point x="1131" y="-407"/>
    </contour>
    <contour>
      <point x="1257" y="-369" type="curve" smooth="yes"/>
      <point x="1155" y="-369"/>
      <point x="1095" y="-298"/>
      <point x="1113" y="-195" type="curve" smooth="yes"/>
      <point x="1132" y="-87"/>
      <point x="1217" y="-15"/>
      <point x="1319" y="-15" type="curve" smooth="yes"/>
      <point x="1421" y="-15"/>
      <point x="1482" y="-87"/>
      <point x="1463" y="-195" type="curve" smooth="yes"/>
      <point x="1445" y="-298"/>
      <point x="1359" y="-369"/>
    </contour>
  </outline>
</glyph>
<glyph name="ra-ethiopic" format="2">
  <advance width="1156"/>
  <unicode hex="1228"/>
  <outline>
    <contour>
      <point x="432" y="-20" type="curve" smooth="yes"/>
      <point x="634" y="-20"/>
      <point x="866" y="155"/>
      <point x="924" y="276" type="curve"/>
      <point x="863" y="276" type="line"/>
      <point x="828" y="188"/>
      <point x="613" y="34"/>
      <point x="421" y="34" type="curve" smooth="yes"/>
      <point x="150" y="34"/>
      <point x="155" y="270"/>
      <point x="199" y="517" type="curve" smooth="yes"/>
      <point x="299" y="1082" type="line"/>
      <point x="244" y="1082" type="line"/>
      <point x="146" y="524" type="line" smooth="yes"/>
      <point x="87" y="187"/>
      <point x="139" y="-20"/>
    </contour>
  </outline>
</glyph>
<glyph name="ru-ethiopic" format="2">
  <advance width="1106"/>
  <unicode hex="1229"/>
  <outline>
    <contour>
      <point x="432" y="-20" type="curve" smooth="yes"/>
      <point x="634" y="-20"/>
      <point x="866" y="155"/>
      <point x="924" y="276" type="curve"/>
      <point x="863" y="276" type="line"/>
      <point x="828" y="188"/>
      <point x="613" y="34"/>
      <point x="421" y="34" type="curve" smooth="yes"/>
      <point x="150" y="34"/>
      <point x="155" y="270"/>
      <point x="199" y="517" type="curve" smooth="yes"/>
      <point x="299" y="1082" type="line"/>
      <point x="244" y="1082" type="line"/>
      <point x="146" y="524" type="line" smooth="yes"/>
      <point x="87" y="187"/>
      <point x="139" y="-20"/>
    </contour>
    <contour>
      <point x="739" y="-178" type="curve" smooth="yes"/>
      <point x="770" y="-178"/>
      <point x="799" y="-154"/>
      <point x="804" y="-123" type="curve" smooth="yes"/>
      <point x="810" y="-92"/>
      <point x="789" y="-67"/>
      <point x="758" y="-67" type="curve" smooth="yes"/>
      <point x="727" y="-67"/>
      <point x="699" y="-92"/>
      <point x="693" y="-123" type="curve" smooth="yes"/>
      <point x="688" y="-154"/>
      <point x="708" y="-178"/>
    </contour>
  </outline>
</glyph>
<glyph name="raa-ethiopic" format="2">
  <advance width="1156"/>
  <unicode hex="122B"/>
  <outline>
    <contour>
      <point x="432" y="-20" type="curve" smooth="yes"/>
      <point x="634" y="-20"/>
      <point x="866" y="155"/>
      <point x="924" y="276" type="curve"/>
      <point x="863" y="276" type="line"/>
      <point x="828" y="188"/>
      <point x="613" y="34"/>
      <point x="421" y="34" type="curve" smooth="yes"/>
      <point x="150" y="34"/>
      <point x="155" y="270"/>
      <point x="199" y="517" type="curve" smooth="yes"/>
      <point x="299" y="1082" type="line"/>
      <point x="244" y="1082" type="line"/>
      <point x="146" y="524" type="line" smooth="yes"/>
      <point x="87" y="187"/>
      <point x="139" y="-20"/>
    </contour>
    <contour>
      <point x="645" y="285" type="line"/>
      <point x="705" y="285" type="line"/>
      <point x="947" y="551" type="line"/>
      <point x="881" y="551" type="line"/>
    </contour>
  </outline>
</glyph>
<glyph name="ree-ethiopic" format="2">
  <advance width="1156"/>
  <unicode hex="122C"/>
  <outline>
    <contour>
      <point x="432" y="-20" type="curve" smooth="yes"/>
      <point x="634" y="-20"/>
      <point x="866" y="155"/>
      <point x="924" y="276" type="curve"/>
      <point x="863" y="276" type="line"/>
      <point x="828" y="188"/>
      <point x="613" y="34"/>
      <point x="421" y="34" type="curve" smooth="yes"/>
      <point x="150" y="34"/>
      <point x="155" y="270"/>
      <point x="199" y="517" type="curve" smooth="yes"/>
      <point x="299" y="1082" type="line"/>
      <point x="244" y="1082" type="line"/>
      <point x="146" y="524" type="line" smooth="yes"/>
      <point x="87" y="187"/>
      <point x="139" y="-20"/>
    </contour>
    <contour>
      <point x="743" y="203" type="curve" smooth="yes"/>
      <point x="868" y="203"/>
      <point x="982" y="300"/>
      <point x="1004" y="424" type="curve" smooth="yes"/>
      <point x="1026" y="549"/>
      <point x="947" y="651"/>
      <point x="822" y="651" type="curve" smooth="yes"/>
      <point x="701" y="651"/>
      <point x="583" y="554"/>
      <point x="560" y="424" type="curve" smooth="yes"/>
      <point x="537" y="294"/>
      <point x="623" y="203"/>
    </contour>
    <contour>
      <point x="749" y="241" type="curve" smooth="yes"/>
      <point x="647" y="241"/>
      <point x="587" y="312"/>
      <point x="605" y="415" type="curve" smooth="yes"/>
      <point x="624" y="523"/>
      <point x="709" y="595"/>
      <point x="811" y="595" type="curve" smooth="yes"/>
      <point x="913" y="595"/>
      <point x="974" y="523"/>
      <point x="955" y="415" type="curve" smooth="yes"/>
      <point x="937" y="312"/>
      <point x="851" y="241"/>
    </contour>
  </outline>
</glyph>
<glyph name="re-ethiopic" format="2">
  <advance width="1060"/>
  <unicode hex="122D"/>
  <outline>
    <contour>
      <point x="432" y="-20" type="curve" smooth="yes"/>
      <point x="634" y="-20"/>
      <point x="631" y="-21"/>
      <point x="761" y="-21" type="curve"/>
      <point x="770" y="32" type="line"/>
      <point x="665" y="32"/>
      <point x="613" y="34"/>
      <point x="421" y="34" type="curve" smooth="yes"/>
      <point x="150" y="34"/>
      <point x="157" y="270"/>
      <point x="200" y="517" type="curve" smooth="yes"/>
      <point x="299" y="1082" type="line"/>
      <point x="244" y="1082" type="line"/>
      <point x="146" y="524" type="line" smooth="yes"/>
      <point x="87" y="187"/>
      <point x="139" y="-20"/>
    </contour>
    <contour>
      <point x="246" y="1038" type="line"/>
      <point x="761" y="1038" type="line"/>
      <point x="769" y="1082" type="line"/>
      <point x="254" y="1082" type="line"/>
    </contour>
  </outline>
</glyph>
<glyph name="ro-ethiopic" format="2">
  <advance width="1060"/>
  <unicode hex="122E"/>
  <outline>
    <contour>
      <point x="432" y="-20" type="curve" smooth="yes"/>
      <point x="634" y="-20"/>
      <point x="631" y="-21"/>
      <point x="761" y="-21" type="curve"/>
      <point x="770" y="32" type="line"/>
      <point x="665" y="32"/>
      <point x="613" y="34"/>
      <point x="421" y="34" type="curve" smooth="yes"/>
      <point x="150" y="34"/>
      <point x="157" y="270"/>
      <point x="200" y="517" type="curve" smooth="yes"/>
      <point x="299" y="1082" type="line"/>
      <point x="244" y="1082" type="line"/>
      <point x="146" y="524" type="line" smooth="yes"/>
      <point x="87" y="187"/>
      <point x="139" y="-20"/>
    </contour>
    <contour>
      <point x="579" y="766" type="curve" smooth="yes"/>
      <point x="704" y="766"/>
      <point x="818" y="863"/>
      <point x="840" y="987" type="curve" smooth="yes"/>
      <point x="862" y="1112"/>
      <point x="783" y="1214"/>
      <point x="658" y="1214" type="curve" smooth="yes"/>
      <point x="537" y="1214"/>
      <point x="419" y="1117"/>
      <point x="396" y="987" type="curve" smooth="yes"/>
      <point x="373" y="857"/>
      <point x="459" y="766"/>
    </contour>
    <contour>
      <point x="585" y="804" type="curve" smooth="yes"/>
      <point x="483" y="804"/>
      <point x="422" y="875"/>
      <point x="440" y="978" type="curve" smooth="yes"/>
      <point x="460" y="1086"/>
      <point x="545" y="1158"/>
      <point x="647" y="1158" type="curve" smooth="yes"/>
      <point x="749" y="1158"/>
      <point x="810" y="1086"/>
      <point x="790" y="978" type="curve" smooth="yes"/>
      <point x="772" y="875"/>
      <point x="687" y="804"/>
    </contour>
  </outline>
</glyph>
<glyph name="see-ethiopic" format="2">
  <advance width="1241"/>
  <unicode hex="1234"/>
  <outline>
    <contour>
      <point x="41" y="0" type="line"/>
      <point x="95" y="0" type="line"/>
      <point x="221" y="716" type="line" smooth="yes"/>
      <point x="247" y="862"/>
      <point x="315" y="1061"/>
      <point x="610" y="1061" type="curve" smooth="yes"/>
      <point x="922" y="1061"/>
      <point x="922" y="872"/>
      <point x="895" y="716" type="curve" smooth="yes"/>
      <point x="769" y="0" type="line"/>
      <point x="824" y="0" type="line"/>
      <point x="950" y="715" type="line" smooth="yes"/>
      <point x="995" y="973"/>
      <point x="868" y="1111"/>
      <point x="613" y="1111" type="curve"/>
      <point x="346" y="1093"/>
      <point x="210" y="957"/>
      <point x="173" y="748" type="curve" smooth="yes"/>
    </contour>
    <contour>
      <point x="571" y="-327" type="curve" smooth="yes"/>
      <point x="696" y="-327"/>
      <point x="810" y="-230"/>
      <point x="832" y="-106" type="curve" smooth="yes"/>
      <point x="854" y="19"/>
      <point x="775" y="121"/>
      <point x="650" y="121" type="curve" smooth="yes"/>
      <point x="529" y="121"/>
      <point x="411" y="24"/>
      <point x="388" y="-106" type="curve" smooth="yes"/>
      <point x="365" y="-236"/>
      <point x="451" y="-327"/>
    </contour>
    <contour>
      <point x="577" y="-289" type="curve" smooth="yes"/>
      <point x="475" y="-289"/>
      <point x="415" y="-218"/>
      <point x="433" y="-115" type="curve" smooth="yes"/>
      <point x="452" y="-7"/>
      <point x="537" y="65"/>
      <point x="639" y="65" type="curve" smooth="yes"/>
      <point x="741" y="65"/>
      <point x="802" y="-7"/>
      <point x="783" y="-115" type="curve" smooth="yes"/>
      <point x="765" y="-218"/>
      <point x="679" y="-289"/>
    </contour>
    <contour>
      <point x="650" y="1122" type="line"/>
      <point x="710" y="1122" type="line"/>
      <point x="757" y="1388" type="line"/>
      <point x="697" y="1388" type="line"/>
    </contour>
  </outline>
</glyph>
<glyph name="shu-ethiopic" format="2">
  <advance width="1241"/>
  <unicode hex="1239"/>
  <outline>
    <contour>
      <point x="41" y="0" type="line"/>
      <point x="95" y="0" type="line"/>
      <point x="221" y="716" type="line" smooth="yes"/>
      <point x="247" y="862"/>
      <point x="315" y="1061"/>
      <point x="610" y="1061" type="curve" smooth="yes"/>
      <point x="922" y="1061"/>
      <point x="922" y="872"/>
      <point x="895" y="716" type="curve" smooth="yes"/>
      <point x="769" y="0" type="line"/>
      <point x="824" y="0" type="line"/>
      <point x="950" y="715" type="line" smooth="yes"/>
      <point x="995" y="973"/>
      <point x="868" y="1111"/>
      <point x="613" y="1111" type="curve"/>
      <point x="346" y="1093"/>
      <point x="210" y="957"/>
      <point x="173" y="748" type="curve" smooth="yes"/>
    </contour>
    <contour>
      <point x="1023" y="628" type="curve" smooth="yes"/>
      <point x="1054" y="628"/>
      <point x="1083" y="652"/>
      <point x="1088" y="683" type="curve" smooth="yes"/>
      <point x="1094" y="714"/>
      <point x="1073" y="739"/>
      <point x="1042" y="739" type="curve" smooth="yes"/>
      <point x="1011" y="739"/>
      <point x="983" y="714"/>
      <point x="977" y="683" type="curve" smooth="yes"/>
      <point x="972" y="652"/>
      <point x="992" y="628"/>
    </contour>
    <contour>
      <point x="650" y="1122" type="line"/>
      <point x="710" y="1122" type="line"/>
      <point x="757" y="1388" type="line"/>
      <point x="697" y="1388" type="line"/>
    </contour>
    <component base="_smart.hat" xOffset="991" yOffset="1270"/>
  </outline>
</glyph>
<glyph name="shi-ethiopic" format="2">
  <advance width="1241"/>
  <unicode hex="123A"/>
  <outline>
    <contour>
      <point x="41" y="0" type="line"/>
      <point x="95" y="0" type="line"/>
      <point x="221" y="716" type="line" smooth="yes"/>
      <point x="247" y="862"/>
      <point x="315" y="1061"/>
      <point x="610" y="1061" type="curve" smooth="yes"/>
      <point x="922" y="1061"/>
      <point x="922" y="872"/>
      <point x="895" y="716" type="curve" smooth="yes"/>
      <point x="769" y="0" type="line"/>
      <point x="824" y="0" type="line"/>
      <point x="950" y="715" type="line" smooth="yes"/>
      <point x="995" y="973"/>
      <point x="868" y="1111"/>
      <point x="613" y="1111" type="curve"/>
      <point x="346" y="1093"/>
      <point x="210" y="957"/>
      <point x="173" y="748" type="curve" smooth="yes"/>
    </contour>
    <contour>
      <point x="939" y="5" type="curve" smooth="yes"/>
      <point x="970" y="5"/>
      <point x="999" y="29"/>
      <point x="1005" y="60" type="curve" smooth="yes"/>
      <point x="1010" y="91"/>
      <point x="989" y="116"/>
      <point x="958" y="116" type="curve" smooth="yes"/>
      <point x="927" y="116"/>
      <point x="899" y="91"/>
      <point x="894" y="60" type="curve" smooth="yes"/>
      <point x="888" y="29"/>
      <point x="908" y="5"/>
    </contour>
    <contour>
      <point x="650" y="1122" type="line"/>
      <point x="710" y="1122" type="line"/>
      <point x="757" y="1388" type="line"/>
      <point x="697" y="1388" type="line"/>
    </contour>
    <component base="_smart.hat" xOffset="991" yOffset="1270"/>
  </outline>
</glyph>
<glyph name="qo-ethiopic" format="2">
  <advance width="1529"/>
  <unicode hex="1246"/>
  <outline>
    <contour>
      <point x="394" y="-20" type="curve" smooth="yes"/>
      <point x="436" y="-20"/>
      <point x="475" y="-8"/>
      <point x="572" y="37" type="curve"/>
      <point x="602" y="38" type="line"/>
      <point x="639" y="7"/>
      <point x="668" y="-20"/>
      <point x="747" y="-20" type="curve" smooth="yes"/>
      <point x="998" y="-20"/>
      <point x="1190" y="191"/>
      <point x="1251" y="538" type="curve" smooth="yes"/>
      <point x="1314" y="897"/>
      <point x="1200" y="1102"/>
      <point x="943" y="1102" type="curve" smooth="yes"/>
      <point x="893" y="1102"/>
      <point x="845" y="1095"/>
      <point x="802" y="1082" type="curve"/>
      <point x="735" y="1081" type="line"/>
      <point x="691" y="1096"/>
      <point x="645" y="1102"/>
      <point x="594" y="1102" type="curve" smooth="yes"/>
      <point x="341" y="1102"/>
      <point x="149" y="897"/>
      <point x="89" y="552" type="curve" smooth="yes"/>
      <point x="25" y="191"/>
      <point x="140" y="-20"/>
    </contour>
    <contour>
      <point x="402" y="34" type="curve" smooth="yes"/>
      <point x="179" y="34"/>
      <point x="87" y="224"/>
      <point x="141" y="531" type="curve" smooth="yes"/>
      <point x="201" y="871"/>
      <point x="362" y="1048"/>
      <point x="583" y="1048" type="curve" smooth="yes"/>
      <point x="637" y="1048"/>
      <point x="685" y="1040"/>
      <point x="725" y="1024" type="curve"/>
      <point x="557" y="70" type="line"/>
      <point x="499" y="46"/>
      <point x="447" y="34"/>
    </contour>
    <contour>
      <point x="757" y="34" type="curve" smooth="yes"/>
      <point x="715" y="34"/>
      <point x="675" y="40"/>
      <point x="626" y="65" type="curve"/>
      <point x="795" y="1028" type="line"/>
      <point x="832" y="1039"/>
      <point x="867" y="1045"/>
      <point x="899" y="1048" type="curve" smooth="yes"/>
      <point x="1160" y="1071"/>
      <point x="1249" y="842"/>
      <point x="1194" y="531" type="curve" smooth="yes"/>
      <point x="1140" y="224"/>
      <point x="988" y="34"/>
    </contour>
    <contour>
      <point x="710" y="1107" type="curve" smooth="yes"/>
      <point x="835" y="1107"/>
      <point x="949" y="1204"/>
      <point x="971" y="1328" type="curve" smooth="yes"/>
      <point x="993" y="1453"/>
      <point x="914" y="1555"/>
      <point x="789" y="1555" type="curve" smooth="yes"/>
      <point x="668" y="1555"/>
      <point x="550" y="1458"/>
      <point x="527" y="1328" type="curve" smooth="yes"/>
      <point x="504" y="1198"/>
      <point x="590" y="1107"/>
    </contour>
    <contour>
      <point x="716" y="1145" type="curve" smooth="yes"/>
      <point x="614" y="1145"/>
      <point x="553" y="1216"/>
      <point x="571" y="1319" type="curve" smooth="yes"/>
      <point x="591" y="1427"/>
      <point x="676" y="1499"/>
      <point x="778" y="1499" type="curve" smooth="yes"/>
      <point x="880" y="1499"/>
      <point x="941" y="1427"/>
      <point x="921" y="1319" type="curve" smooth="yes"/>
      <point x="903" y="1216"/>
      <point x="818" y="1145"/>
    </contour>
    <contour>
      <point x="499" y="-356" type="line"/>
      <point x="556" y="-356" type="line"/>
      <point x="618" y="-2" type="line"/>
      <point x="561" y="-2" type="line"/>
    </contour>
  </outline>
</glyph>
<glyph name="qhee-ethiopic" format="2">
  <advance width="1529"/>
  <unicode hex="1254"/>
  <outline>
    <contour>
      <point x="394" y="-20" type="curve" smooth="yes"/>
      <point x="436" y="-20"/>
      <point x="475" y="-8"/>
      <point x="572" y="37" type="curve"/>
      <point x="602" y="38" type="line"/>
      <point x="639" y="7"/>
      <point x="668" y="-20"/>
      <point x="747" y="-20" type="curve" smooth="yes"/>
      <point x="998" y="-20"/>
      <point x="1190" y="191"/>
      <point x="1251" y="538" type="curve" smooth="yes"/>
      <point x="1314" y="897"/>
      <point x="1200" y="1102"/>
      <point x="943" y="1102" type="curve" smooth="yes"/>
      <point x="893" y="1102"/>
      <point x="845" y="1095"/>
      <point x="802" y="1082" type="curve"/>
      <point x="735" y="1081" type="line"/>
      <point x="691" y="1096"/>
      <point x="645" y="1102"/>
      <point x="594" y="1102" type="curve" smooth="yes"/>
      <point x="341" y="1102"/>
      <point x="149" y="897"/>
      <point x="89" y="552" type="curve" smooth="yes"/>
      <point x="25" y="191"/>
      <point x="140" y="-20"/>
    </contour>
    <contour>
      <point x="402" y="34" type="curve" smooth="yes"/>
      <point x="179" y="34"/>
      <point x="87" y="224"/>
      <point x="141" y="531" type="curve" smooth="yes"/>
      <point x="201" y="871"/>
      <point x="362" y="1048"/>
      <point x="583" y="1048" type="curve" smooth="yes"/>
      <point x="637" y="1048"/>
      <point x="685" y="1040"/>
      <point x="725" y="1024" type="curve"/>
      <point x="557" y="70" type="line"/>
      <point x="499" y="46"/>
      <point x="447" y="34"/>
    </contour>
    <contour>
      <point x="757" y="34" type="curve" smooth="yes"/>
      <point x="715" y="34"/>
      <point x="675" y="40"/>
      <point x="626" y="65" type="curve"/>
      <point x="795" y="1028" type="line"/>
      <point x="832" y="1039"/>
      <point x="867" y="1045"/>
      <point x="899" y="1048" type="curve" smooth="yes"/>
      <point x="1160" y="1071"/>
      <point x="1249" y="842"/>
      <point x="1194" y="531" type="curve" smooth="yes"/>
      <point x="1140" y="224"/>
      <point x="988" y="34"/>
    </contour>
    <contour>
      <point x="506" y="-407" type="curve" smooth="yes"/>
      <point x="631" y="-407"/>
      <point x="745" y="-310"/>
      <point x="767" y="-186" type="curve" smooth="yes"/>
      <point x="789" y="-61"/>
      <point x="710" y="41"/>
      <point x="585" y="41" type="curve" smooth="yes"/>
      <point x="464" y="41"/>
      <point x="346" y="-56"/>
      <point x="323" y="-186" type="curve" smooth="yes"/>
      <point x="300" y="-316"/>
      <point x="386" y="-407"/>
    </contour>
    <contour>
      <point x="512" y="-369" type="curve" smooth="yes"/>
      <point x="410" y="-369"/>
      <point x="350" y="-298"/>
      <point x="368" y="-195" type="curve" smooth="yes"/>
      <point x="387" y="-87"/>
      <point x="472" y="-15"/>
      <point x="574" y="-15" type="curve" smooth="yes"/>
      <point x="676" y="-15"/>
      <point x="737" y="-87"/>
      <point x="718" y="-195" type="curve" smooth="yes"/>
      <point x="700" y="-298"/>
      <point x="614" y="-369"/>
    </contour>
    <contour>
      <point x="739" y="1110" type="line"/>
      <point x="799" y="1110" type="line"/>
      <point x="846" y="1376" type="line"/>
      <point x="786" y="1376" type="line"/>
    </contour>
    <component base="_smart.hat" xOffset="1081" yOffset="1251"/>
  </outline>
</glyph>
<glyph name="qhwaa-ethiopic" format="2">
  <advance width="1529"/>
  <unicode hex="125B"/>
  <outline>
    <contour>
      <point x="394" y="-20" type="curve" smooth="yes"/>
      <point x="436" y="-20"/>
      <point x="475" y="-8"/>
      <point x="572" y="37" type="curve"/>
      <point x="602" y="38" type="line"/>
      <point x="639" y="7"/>
      <point x="668" y="-20"/>
      <point x="747" y="-20" type="curve" smooth="yes"/>
      <point x="998" y="-20"/>
      <point x="1190" y="191"/>
      <point x="1251" y="538" type="curve" smooth="yes"/>
      <point x="1314" y="897"/>
      <point x="1200" y="1102"/>
      <point x="943" y="1102" type="curve" smooth="yes"/>
      <point x="893" y="1102"/>
      <point x="845" y="1095"/>
      <point x="802" y="1082" type="curve"/>
      <point x="735" y="1081" type="line"/>
      <point x="691" y="1096"/>
      <point x="645" y="1102"/>
      <point x="594" y="1102" type="curve" smooth="yes"/>
      <point x="341" y="1102"/>
      <point x="149" y="897"/>
      <point x="89" y="552" type="curve" smooth="yes"/>
      <point x="25" y="191"/>
      <point x="140" y="-20"/>
    </contour>
    <contour>
      <point x="402" y="34" type="curve" smooth="yes"/>
      <point x="179" y="34"/>
      <point x="87" y="224"/>
      <point x="141" y="531" type="curve" smooth="yes"/>
      <point x="201" y="871"/>
      <point x="362" y="1048"/>
      <point x="583" y="1048" type="curve" smooth="yes"/>
      <point x="637" y="1048"/>
      <point x="685" y="1040"/>
      <point x="725" y="1024" type="curve"/>
      <point x="557" y="70" type="line"/>
      <point x="499" y="46"/>
      <point x="447" y="34"/>
    </contour>
    <contour>
      <point x="757" y="34" type="curve" smooth="yes"/>
      <point x="715" y="34"/>
      <point x="675" y="40"/>
      <point x="626" y="65" type="curve"/>
      <point x="795" y="1028" type="line"/>
      <point x="832" y="1039"/>
      <point x="867" y="1045"/>
      <point x="899" y="1048" type="curve" smooth="yes"/>
      <point x="1160" y="1071"/>
      <point x="1249" y="842"/>
      <point x="1194" y="531" type="curve" smooth="yes"/>
      <point x="1140" y="224"/>
      <point x="988" y="34"/>
    </contour>
    <contour>
      <point x="739" y="1110" type="line"/>
      <point x="799" y="1110" type="line"/>
      <point x="846" y="1376" type="line"/>
      <point x="786" y="1376" type="line"/>
    </contour>
    <contour>
      <point x="162" y="-280" type="line"/>
      <point x="699" y="-280" type="line"/>
      <point x="681" y="-385" type="line"/>
      <point x="716" y="-385" type="line"/>
      <point x="742" y="-238" type="line"/>
      <point x="537" y="-238" type="line"/>
      <point x="591" y="-17" type="line"/>
      <point x="534" y="-17" type="line"/>
      <point x="480" y="-238" type="line"/>
      <point x="170" y="-238" type="line"/>
    </contour>
    <component base="_smart.hat" xOffset="1081" yOffset="1251"/>
  </outline>
</glyph>
<glyph name="va-ethiopic" format="2">
  <advance width="1241"/>
  <unicode hex="1268"/>
  <outline>
    <contour>
      <point x="41" y="0" type="line"/>
      <point x="95" y="0" type="line"/>
      <point x="221" y="716" type="line" smooth="yes"/>
      <point x="247" y="862"/>
      <point x="315" y="1061"/>
      <point x="610" y="1061" type="curve" smooth="yes"/>
      <point x="922" y="1061"/>
      <point x="922" y="872"/>
      <point x="895" y="716" type="curve" smooth="yes"/>
      <point x="769" y="0" type="line"/>
      <point x="824" y="0" type="line"/>
      <point x="950" y="715" type="line" smooth="yes"/>
      <point x="995" y="973"/>
      <point x="868" y="1111"/>
      <point x="613" y="1111" type="curve"/>
      <point x="346" y="1093"/>
      <point x="210" y="957"/>
      <point x="173" y="748" type="curve" smooth="yes"/>
    </contour>
    <contour>
      <point x="541" y="1379" type="line"/>
      <point x="1056" y="1379" type="line"/>
      <point x="1064" y="1423" type="line"/>
      <point x="549" y="1423" type="line"/>
    </contour>
  </outline>
</glyph>
<glyph name="vu-ethiopic" format="2">
  <advance width="1241"/>
  <unicode hex="1269"/>
  <outline>
    <contour>
      <point x="41" y="0" type="line"/>
      <point x="95" y="0" type="line"/>
      <point x="221" y="716" type="line" smooth="yes"/>
      <point x="247" y="862"/>
      <point x="315" y="1061"/>
      <point x="610" y="1061" type="curve" smooth="yes"/>
      <point x="922" y="1061"/>
      <point x="922" y="872"/>
      <point x="895" y="716" type="curve" smooth="yes"/>
      <point x="769" y="0" type="line"/>
      <point x="824" y="0" type="line"/>
      <point x="950" y="715" type="line" smooth="yes"/>
      <point x="995" y="973"/>
      <point x="868" y="1111"/>
      <point x="613" y="1111" type="curve"/>
      <point x="346" y="1093"/>
      <point x="210" y="957"/>
      <point x="173" y="748" type="curve" smooth="yes"/>
    </contour>
    <contour>
      <point x="1023" y="628" type="curve" smooth="yes"/>
      <point x="1054" y="628"/>
      <point x="1083" y="652"/>
      <point x="1088" y="683" type="curve" smooth="yes"/>
      <point x="1094" y="714"/>
      <point x="1073" y="739"/>
      <point x="1042" y="739" type="curve" smooth="yes"/>
      <point x="1011" y="739"/>
      <point x="983" y="714"/>
      <point x="977" y="683" type="curve" smooth="yes"/>
      <point x="972" y="652"/>
      <point x="992" y="628"/>
    </contour>
    <contour>
      <point x="541" y="1379" type="line"/>
      <point x="1056" y="1379" type="line"/>
      <point x="1064" y="1423" type="line"/>
      <point x="549" y="1423" type="line"/>
    </contour>
  </outline>
</glyph>
<glyph name="vwa-ethiopic" format="2">
  <advance width="1241"/>
  <unicode hex="126F"/>
  <outline>
    <contour>
      <point x="41" y="0" type="line"/>
      <point x="95" y="0" type="line"/>
      <point x="221" y="716" type="line" smooth="yes"/>
      <point x="247" y="862"/>
      <point x="315" y="1061"/>
      <point x="610" y="1061" type="curve" smooth="yes"/>
      <point x="922" y="1061"/>
      <point x="922" y="872"/>
      <point x="895" y="716" type="curve" smooth="yes"/>
      <point x="769" y="0" type="line"/>
      <point x="824" y="0" type="line"/>
      <point x="950" y="715" type="line" smooth="yes"/>
      <point x="995" y="973"/>
      <point x="868" y="1111"/>
      <point x="613" y="1111" type="curve"/>
      <point x="346" y="1093"/>
      <point x="210" y="957"/>
      <point x="173" y="748" type="curve" smooth="yes"/>
    </contour>
    <contour>
      <point x="394" y="-237" type="line"/>
      <point x="931" y="-237" type="line"/>
      <point x="913" y="-342" type="line"/>
      <point x="948" y="-342" type="line"/>
      <point x="974" y="-195" type="line"/>
      <point x="769" y="-195" type="line"/>
      <point x="823" y="26" type="line"/>
      <point x="766" y="26" type="line"/>
      <point x="712" y="-195" type="line"/>
      <point x="402" y="-195" type="line"/>
    </contour>
    <contour>
      <point x="541" y="1379" type="line"/>
      <point x="1056" y="1379" type="line"/>
      <point x="1064" y="1423" type="line"/>
      <point x="549" y="1423" type="line"/>
    </contour>
  </outline>
</glyph>
<glyph name="ta-ethiopic" format="2">
  <advance width="735"/>
  <unicode hex="1270"/>
  <outline>
    <contour>
      <point x="162" y="0" type="line"/>
      <point x="343" y="1027" type="line"/>
      <point x="589" y="1027" type="line"/>
      <point x="599" y="1082" type="line"/>
      <point x="98" y="1082" type="line"/>
      <point x="88" y="1027" type="line"/>
      <point x="288" y="1027" type="line"/>
      <point x="107" y="0" type="line"/>
    </contour>
    <contour>
      <point x="295" y="1090" type="line"/>
      <point x="355" y="1090" type="line"/>
      <point x="402" y="1356" type="line"/>
      <point x="342" y="1356" type="line"/>
    </contour>
  </outline>
</glyph>
<glyph name="taa-ethiopic" format="2">
  <advance width="735"/>
  <unicode hex="1273"/>
  <outline>
    <contour>
      <point x="162" y="0" type="line"/>
      <point x="343" y="1027" type="line"/>
      <point x="589" y="1027" type="line"/>
      <point x="599" y="1082" type="line"/>
      <point x="98" y="1082" type="line"/>
      <point x="88" y="1027" type="line"/>
      <point x="288" y="1027" type="line"/>
      <point x="107" y="0" type="line"/>
    </contour>
    <contour>
      <point x="295" y="1090" type="line"/>
      <point x="355" y="1090" type="line"/>
      <point x="402" y="1356" type="line"/>
      <point x="342" y="1356" type="line"/>
    </contour>
    <contour>
      <point x="-139" y="-274" type="line"/>
      <point x="-79" y="-274" type="line"/>
      <point x="163" y="-8" type="line"/>
      <point x="97" y="-8" type="line"/>
    </contour>
  </outline>
</glyph>
<glyph name="te-ethiopic" format="2">
  <advance width="735"/>
  <unicode hex="1275"/>
  <outline>
    <contour>
      <point x="162" y="0" type="line"/>
      <point x="343" y="1027" type="line"/>
      <point x="589" y="1027" type="line"/>
      <point x="599" y="1082" type="line"/>
      <point x="98" y="1082" type="line"/>
      <point x="88" y="1027" type="line"/>
      <point x="288" y="1027" type="line"/>
      <point x="107" y="0" type="line"/>
    </contour>
    <contour>
      <point x="301" y="1161" type="line" name="❌"/>
      <point x="159" y="1427" type="line"/>
      <point x="93" y="1427" type="line"/>
      <point x="241" y="1161" type="line" name="❌"/>
    </contour>
  </outline>
</glyph>
<glyph name="to-ethiopic" format="2">
  <advance width="735"/>
  <unicode hex="1276"/>
  <outline>
    <contour>
      <point x="162" y="0" type="line"/>
      <point x="343" y="1027" type="line"/>
      <point x="589" y="1027" type="line"/>
      <point x="599" y="1082" type="line"/>
      <point x="98" y="1082" type="line"/>
      <point x="88" y="1027" type="line"/>
      <point x="288" y="1027" type="line"/>
      <point x="107" y="0" type="line"/>
    </contour>
    <contour>
      <point x="283" y="1042" type="curve" smooth="yes"/>
      <point x="408" y="1042"/>
      <point x="522" y="1139"/>
      <point x="544" y="1263" type="curve" smooth="yes"/>
      <point x="566" y="1388"/>
      <point x="487" y="1490"/>
      <point x="362" y="1490" type="curve" smooth="yes"/>
      <point x="241" y="1490"/>
      <point x="123" y="1393"/>
      <point x="100" y="1263" type="curve" smooth="yes"/>
      <point x="77" y="1133"/>
      <point x="163" y="1042"/>
    </contour>
    <contour>
      <point x="289" y="1080" type="curve" smooth="yes"/>
      <point x="187" y="1080"/>
      <point x="126" y="1151"/>
      <point x="144" y="1254" type="curve" smooth="yes"/>
      <point x="164" y="1362"/>
      <point x="249" y="1434"/>
      <point x="351" y="1434" type="curve" smooth="yes"/>
      <point x="453" y="1434"/>
      <point x="514" y="1362"/>
      <point x="494" y="1254" type="curve" smooth="yes"/>
      <point x="476" y="1151"/>
      <point x="391" y="1080"/>
    </contour>
  </outline>
</glyph>
<glyph name="twa-ethiopic" format="2">
  <advance width="735"/>
  <unicode hex="1277"/>
  <outline>
    <contour>
      <point x="162" y="0" type="line"/>
      <point x="343" y="1027" type="line"/>
      <point x="589" y="1027" type="line"/>
      <point x="599" y="1082" type="line"/>
      <point x="98" y="1082" type="line"/>
      <point x="88" y="1027" type="line"/>
      <point x="288" y="1027" type="line"/>
      <point x="107" y="0" type="line"/>
    </contour>
    <contour>
      <point x="295" y="1090" type="line"/>
      <point x="355" y="1090" type="line"/>
      <point x="402" y="1356" type="line"/>
      <point x="342" y="1356" type="line"/>
    </contour>
    <contour>
      <point x="-269" y="-260" type="line"/>
      <point x="268" y="-260" type="line"/>
      <point x="250" y="-365" type="line"/>
      <point x="285" y="-365" type="line"/>
      <point x="311" y="-218" type="line"/>
      <point x="106" y="-218" type="line"/>
      <point x="160" y="3" type="line"/>
      <point x="103" y="3" type="line"/>
      <point x="49" y="-218" type="line"/>
      <point x="-261" y="-218" type="line"/>
    </contour>
  </outline>
</glyph>
<glyph name="ca-ethiopic" format="2">
  <advance width="735"/>
  <unicode hex="1278"/>
  <outline>
    <contour>
      <point x="162" y="0" type="line"/>
      <point x="343" y="1027" type="line"/>
      <point x="589" y="1027" type="line"/>
      <point x="599" y="1082" type="line"/>
      <point x="98" y="1082" type="line"/>
      <point x="88" y="1027" type="line"/>
      <point x="288" y="1027" type="line"/>
      <point x="107" y="0" type="line"/>
    </contour>
    <contour>
      <point x="295" y="1090" type="line"/>
      <point x="355" y="1090" type="line"/>
      <point x="402" y="1356" type="line"/>
      <point x="342" y="1356" type="line"/>
    </contour>
    <contour>
      <point x="108" y="1336" type="line"/>
      <point x="623" y="1336" type="line"/>
      <point x="631" y="1380" type="line"/>
      <point x="116" y="1380" type="line"/>
    </contour>
  </outline>
</glyph>
<glyph name="ci-ethiopic" format="2">
  <advance width="735"/>
  <unicode hex="127A"/>
  <outline>
    <contour>
      <point x="162" y="0" type="line"/>
      <point x="343" y="1027" type="line"/>
      <point x="589" y="1027" type="line"/>
      <point x="599" y="1082" type="line"/>
      <point x="98" y="1082" type="line"/>
      <point x="88" y="1027" type="line"/>
      <point x="288" y="1027" type="line"/>
      <point x="107" y="0" type="line"/>
    </contour>
    <contour>
      <point x="248" y="-5" type="curve" smooth="yes"/>
      <point x="279" y="-5"/>
      <point x="308" y="19"/>
      <point x="314" y="50" type="curve" smooth="yes"/>
      <point x="319" y="81"/>
      <point x="298" y="106"/>
      <point x="267" y="106" type="curve" smooth="yes"/>
      <point x="236" y="106"/>
      <point x="208" y="81"/>
      <point x="203" y="50" type="curve" smooth="yes"/>
      <point x="197" y="19"/>
      <point x="217" y="-5"/>
    </contour>
    <contour>
      <point x="295" y="1090" type="line"/>
      <point x="355" y="1090" type="line"/>
      <point x="402" y="1356" type="line"/>
      <point x="342" y="1356" type="line"/>
    </contour>
    <component base="_smart.hat" xOffset="558" yOffset="1227"/>
  </outline>
</glyph>
<glyph name="caa-ethiopic" format="2">
  <advance width="735"/>
  <unicode hex="127B"/>
  <outline>
    <contour>
      <point x="162" y="0" type="line"/>
      <point x="343" y="1027" type="line"/>
      <point x="589" y="1027" type="line"/>
      <point x="599" y="1082" type="line"/>
      <point x="98" y="1082" type="line"/>
      <point x="88" y="1027" type="line"/>
      <point x="288" y="1027" type="line"/>
      <point x="107" y="0" type="line"/>
    </contour>
    <contour>
      <point x="-139" y="-274" type="line"/>
      <point x="-79" y="-274" type="line"/>
      <point x="163" y="-8" type="line"/>
      <point x="97" y="-8" type="line"/>
    </contour>
    <contour>
      <point x="295" y="1090" type="line"/>
      <point x="355" y="1090" type="line"/>
      <point x="402" y="1356" type="line"/>
      <point x="342" y="1356" type="line"/>
    </contour>
    <component base="_smart.hat" xOffset="558" yOffset="1227"/>
  </outline>
</glyph>
<glyph name="cee-ethiopic" format="2">
  <advance width="735"/>
  <unicode hex="127C"/>
  <outline>
    <contour>
      <point x="162" y="0" type="line"/>
      <point x="343" y="1027" type="line"/>
      <point x="589" y="1027" type="line"/>
      <point x="599" y="1082" type="line"/>
      <point x="98" y="1082" type="line"/>
      <point x="88" y="1027" type="line"/>
      <point x="288" y="1027" type="line"/>
      <point x="107" y="0" type="line"/>
    </contour>
    <contour>
      <point x="49" y="-407" type="curve" smooth="yes"/>
      <point x="174" y="-407"/>
      <point x="288" y="-310"/>
      <point x="310" y="-186" type="curve" smooth="yes"/>
      <point x="332" y="-61"/>
      <point x="253" y="41"/>
      <point x="128" y="41" type="curve" smooth="yes"/>
      <point x="7" y="41"/>
      <point x="-111" y="-56"/>
      <point x="-134" y="-186" type="curve" smooth="yes"/>
      <point x="-157" y="-316"/>
      <point x="-71" y="-407"/>
    </contour>
    <contour>
      <point x="55" y="-369" type="curve" smooth="yes"/>
      <point x="-47" y="-369"/>
      <point x="-107" y="-298"/>
      <point x="-89" y="-195" type="curve" smooth="yes"/>
      <point x="-70" y="-87"/>
      <point x="15" y="-15"/>
      <point x="117" y="-15" type="curve" smooth="yes"/>
      <point x="219" y="-15"/>
      <point x="280" y="-87"/>
      <point x="261" y="-195" type="curve" smooth="yes"/>
      <point x="243" y="-298"/>
      <point x="157" y="-369"/>
    </contour>
    <contour>
      <point x="295" y="1090" type="line"/>
      <point x="355" y="1090" type="line"/>
      <point x="402" y="1356" type="line"/>
      <point x="342" y="1356" type="line"/>
    </contour>
    <component base="_smart.hat" xOffset="558" yOffset="1227"/>
  </outline>
</glyph>
<glyph name="ce-ethiopic" format="2">
  <advance width="735"/>
  <unicode hex="127D"/>
  <outline>
    <contour>
      <point x="162" y="0" type="line"/>
      <point x="343" y="1027" type="line"/>
      <point x="589" y="1027" type="line"/>
      <point x="599" y="1082" type="line"/>
      <point x="98" y="1082" type="line"/>
      <point x="88" y="1027" type="line"/>
      <point x="288" y="1027" type="line"/>
      <point x="107" y="0" type="line"/>
    </contour>
    <contour>
      <point x="301" y="1161" type="line" name="❌"/>
      <point x="159" y="1427" type="line"/>
      <point x="93" y="1427" type="line"/>
      <point x="241" y="1161" type="line" name="❌"/>
    </contour>
    <contour>
      <point x="108" y="1336" type="line"/>
      <point x="623" y="1336" type="line"/>
      <point x="631" y="1380" type="line"/>
      <point x="116" y="1380" type="line"/>
    </contour>
  </outline>
</glyph>
<glyph name="xa-ethiopic" format="2">
  <advance width="814"/>
  <unicode hex="1280"/>
  <outline>
    <contour>
      <point x="401" y="0" type="line"/>
      <point x="456" y="0" type="line"/>
      <point x="581" y="706" type="line" smooth="yes"/>
      <point x="628" y="971"/>
      <point x="538" y="1102"/>
      <point x="306" y="1102" type="curve" smooth="yes"/>
      <point x="235" y="1102"/>
      <point x="165" y="1083"/>
      <point x="100" y="1049" type="curve"/>
      <point x="132" y="1012" type="line"/>
      <point x="183" y="1036"/>
      <point x="237" y="1049"/>
      <point x="293" y="1049" type="curve" smooth="yes"/>
      <point x="496" y="1049"/>
      <point x="567" y="940"/>
      <point x="526" y="708" type="curve" smooth="yes"/>
    </contour>
    <contour>
      <point x="100" y="1049" type="line"/>
      <point x="160" y="1049" type="line"/>
      <point x="207" y="1315" type="line"/>
      <point x="147" y="1315" type="line"/>
    </contour>
    <contour>
      <point x="46" y="1086" type="curve" smooth="yes"/>
      <point x="77" y="1086"/>
      <point x="106" y="1110"/>
      <point x="111" y="1141" type="curve" smooth="yes"/>
      <point x="117" y="1172"/>
      <point x="96" y="1197"/>
      <point x="65" y="1197" type="curve" smooth="yes"/>
      <point x="34" y="1197"/>
      <point x="6" y="1172"/>
      <point x="0" y="1141" type="curve" smooth="yes"/>
      <point x="-5" y="1110"/>
      <point x="15" y="1086"/>
    </contour>
  </outline>
</glyph>
<glyph name="xe-ethiopic" format="2">
  <advance width="865"/>
  <unicode hex="1285"/>
  <outline>
    <contour>
      <point x="15" y="1052" type="line"/>
      <point x="-25" y="844" type="line"/>
      <point x="17" y="844" type="line"/>
      <point x="57" y="1052" type="line"/>
    </contour>
    <contour>
      <point x="461" y="0" type="line"/>
      <point x="516" y="0" type="line"/>
      <point x="641" y="706" type="line" smooth="yes"/>
      <point x="688" y="971"/>
      <point x="598" y="1102"/>
      <point x="366" y="1102" type="curve" smooth="yes"/>
      <point x="295" y="1102"/>
      <point x="225" y="1083"/>
      <point x="160" y="1049" type="curve"/>
      <point x="192" y="1012" type="line"/>
      <point x="243" y="1036"/>
      <point x="297" y="1049"/>
      <point x="353" y="1049" type="curve" smooth="yes"/>
      <point x="556" y="1049"/>
      <point x="627" y="940"/>
      <point x="586" y="708" type="curve" smooth="yes"/>
    </contour>
    <contour>
      <point x="109" y="1049" type="line"/>
      <point x="169" y="1049" type="line"/>
      <point x="216" y="1315" type="line"/>
      <point x="156" y="1315" type="line"/>
    </contour>
    <contour>
      <point x="55" y="1086" type="curve" smooth="yes"/>
      <point x="86" y="1086"/>
      <point x="115" y="1110"/>
      <point x="120" y="1141" type="curve" smooth="yes"/>
      <point x="126" y="1172"/>
      <point x="105" y="1197"/>
      <point x="74" y="1197" type="curve" smooth="yes"/>
      <point x="43" y="1197"/>
      <point x="15" y="1172"/>
      <point x="9" y="1141" type="curve" smooth="yes"/>
      <point x="4" y="1110"/>
      <point x="24" y="1086"/>
    </contour>
  </outline>
</glyph>
<glyph name="ni-ethiopic" format="2">
  <advance width="814"/>
  <unicode hex="1292"/>
  <outline>
    <contour>
      <point x="401" y="0" type="line"/>
      <point x="456" y="0" type="line"/>
      <point x="581" y="706" type="line" smooth="yes"/>
      <point x="628" y="971"/>
      <point x="538" y="1102"/>
      <point x="306" y="1102" type="curve" smooth="yes"/>
      <point x="235" y="1102"/>
      <point x="165" y="1083"/>
      <point x="100" y="1049" type="curve"/>
      <point x="132" y="1012" type="line"/>
      <point x="183" y="1036"/>
      <point x="237" y="1049"/>
      <point x="293" y="1049" type="curve" smooth="yes"/>
      <point x="496" y="1049"/>
      <point x="567" y="940"/>
      <point x="526" y="708" type="curve" smooth="yes"/>
    </contour>
    <contour>
      <point x="543" y="-5" type="curve" smooth="yes"/>
      <point x="574" y="-5"/>
      <point x="603" y="19"/>
      <point x="609" y="50" type="curve" smooth="yes"/>
      <point x="614" y="81"/>
      <point x="593" y="106"/>
      <point x="562" y="106" type="curve" smooth="yes"/>
      <point x="531" y="106"/>
      <point x="503" y="81"/>
      <point x="498" y="50" type="curve" smooth="yes"/>
      <point x="492" y="19"/>
      <point x="512" y="-5"/>
    </contour>
    <contour>
      <point x="100" y="1049" type="line"/>
      <point x="160" y="1049" type="line"/>
      <point x="207" y="1315" type="line"/>
      <point x="147" y="1315" type="line"/>
    </contour>
  </outline>
</glyph>
<glyph name="nee-ethiopic" format="2">
  <advance width="814"/>
  <unicode hex="1294"/>
  <outline>
    <contour>
      <point x="401" y="0" type="line"/>
      <point x="456" y="0" type="line"/>
      <point x="581" y="706" type="line" smooth="yes"/>
      <point x="628" y="971"/>
      <point x="538" y="1102"/>
      <point x="306" y="1102" type="curve" smooth="yes"/>
      <point x="235" y="1102"/>
      <point x="165" y="1083"/>
      <point x="100" y="1049" type="curve"/>
      <point x="132" y="1012" type="line"/>
      <point x="183" y="1036"/>
      <point x="237" y="1049"/>
      <point x="293" y="1049" type="curve" smooth="yes"/>
      <point x="496" y="1049"/>
      <point x="567" y="940"/>
      <point x="526" y="708" type="curve" smooth="yes"/>
    </contour>
    <contour>
      <point x="100" y="1049" type="line"/>
      <point x="160" y="1049" type="line"/>
      <point x="207" y="1315" type="line"/>
      <point x="147" y="1315" type="line"/>
    </contour>
    <contour>
      <point x="307" y="-367" type="curve" smooth="yes"/>
      <point x="432" y="-367"/>
      <point x="546" y="-270"/>
      <point x="568" y="-146" type="curve" smooth="yes"/>
      <point x="590" y="-21"/>
      <point x="511" y="81"/>
      <point x="386" y="81" type="curve" smooth="yes"/>
      <point x="265" y="81"/>
      <point x="147" y="-16"/>
      <point x="124" y="-146" type="curve" smooth="yes"/>
      <point x="101" y="-276"/>
      <point x="187" y="-367"/>
    </contour>
    <contour>
      <point x="313" y="-329" type="curve" smooth="yes"/>
      <point x="211" y="-329"/>
      <point x="151" y="-258"/>
      <point x="169" y="-155" type="curve" smooth="yes"/>
      <point x="188" y="-47"/>
      <point x="273" y="25"/>
      <point x="375" y="25" type="curve" smooth="yes"/>
      <point x="477" y="25"/>
      <point x="538" y="-47"/>
      <point x="519" y="-155" type="curve" smooth="yes"/>
      <point x="501" y="-258"/>
      <point x="415" y="-329"/>
    </contour>
  </outline>
</glyph>
<glyph name="nyu-ethiopic" format="2">
  <advance width="814"/>
  <unicode hex="1299"/>
  <outline>
    <contour>
      <point x="401" y="0" type="line"/>
      <point x="456" y="0" type="line"/>
      <point x="581" y="706" type="line" smooth="yes"/>
      <point x="628" y="971"/>
      <point x="538" y="1102"/>
      <point x="306" y="1102" type="curve" smooth="yes"/>
      <point x="235" y="1102"/>
      <point x="165" y="1083"/>
      <point x="100" y="1049" type="curve"/>
      <point x="132" y="1012" type="line"/>
      <point x="183" y="1036"/>
      <point x="237" y="1049"/>
      <point x="293" y="1049" type="curve" smooth="yes"/>
      <point x="496" y="1049"/>
      <point x="567" y="940"/>
      <point x="526" y="708" type="curve" smooth="yes"/>
    </contour>
    <contour>
      <point x="641" y="593" type="curve" smooth="yes"/>
      <point x="672" y="593"/>
      <point x="701" y="617"/>
      <point x="706" y="648" type="curve" smooth="yes"/>
      <point x="712" y="679"/>
      <point x="691" y="704"/>
      <point x="660" y="704" type="curve" smooth="yes"/>
      <point x="629" y="704"/>
      <point x="601" y="679"/>
      <point x="595" y="648" type="curve" smooth="yes"/>
      <point x="590" y="617"/>
      <point x="610" y="593"/>
    </contour>
    <contour>
      <point x="100" y="1049" type="line"/>
      <point x="160" y="1049" type="line"/>
      <point x="207" y="1315" type="line"/>
      <point x="147" y="1315" type="line"/>
    </contour>
    <component base="_smart.hat.left" xOffset="483" yOffset="1164"/>
  </outline>
</glyph>
<glyph name="nyaa-ethiopic" format="2">
  <advance width="1060"/>
  <unicode hex="129B"/>
  <outline>
    <contour>
      <point x="432" y="-20" type="curve" smooth="yes"/>
      <point x="634" y="-20"/>
      <point x="631" y="-21"/>
      <point x="761" y="-21" type="curve"/>
      <point x="770" y="32" type="line"/>
      <point x="665" y="32"/>
      <point x="613" y="34"/>
      <point x="421" y="34" type="curve" smooth="yes"/>
      <point x="150" y="34"/>
      <point x="157" y="270"/>
      <point x="200" y="517" type="curve" smooth="yes"/>
      <point x="299" y="1082" type="line"/>
      <point x="244" y="1082" type="line"/>
      <point x="146" y="524" type="line" smooth="yes"/>
      <point x="87" y="187"/>
      <point x="139" y="-20"/>
    </contour>
    <contour>
      <point x="642" y="-383" type="line"/>
      <point x="699" y="-383" type="line"/>
      <point x="761" y="-29" type="line"/>
      <point x="704" y="-29" type="line"/>
    </contour>
    <contour>
      <point x="395" y="1275" type="line"/>
      <point x="910" y="1275" type="line"/>
      <point x="918" y="1319" type="line"/>
      <point x="403" y="1319" type="line"/>
    </contour>
    <component base="_smart.hat.left" xOffset="696" yOffset="929"/>
  </outline>
</glyph>
<glyph name="nyee-ethiopic" format="2">
  <advance width="814"/>
  <unicode hex="129C"/>
  <outline>
    <contour>
      <point x="401" y="0" type="line"/>
      <point x="456" y="0" type="line"/>
      <point x="581" y="706" type="line" smooth="yes"/>
      <point x="628" y="971"/>
      <point x="538" y="1102"/>
      <point x="306" y="1102" type="curve" smooth="yes"/>
      <point x="235" y="1102"/>
      <point x="165" y="1083"/>
      <point x="100" y="1049" type="curve"/>
      <point x="132" y="1012" type="line"/>
      <point x="183" y="1036"/>
      <point x="237" y="1049"/>
      <point x="293" y="1049" type="curve" smooth="yes"/>
      <point x="496" y="1049"/>
      <point x="567" y="940"/>
      <point x="526" y="708" type="curve" smooth="yes"/>
    </contour>
    <contour>
      <point x="100" y="1049" type="line"/>
      <point x="160" y="1049" type="line"/>
      <point x="207" y="1315" type="line"/>
      <point x="147" y="1315" type="line"/>
    </contour>
    <contour>
      <point x="33" y="1273" type="line"/>
      <point x="548" y="1273" type="line"/>
      <point x="556" y="1317" type="line"/>
      <point x="41" y="1317" type="line"/>
    </contour>
    <component base="_smart.hee" xOffset="567" yOffset="-288"/>
  </outline>
</glyph>
<glyph name="uGlottal-ethiopic" format="2">
  <advance width="1241"/>
  <unicode hex="12A1"/>
  <outline>
    <contour>
      <point x="41" y="0" type="line"/>
      <point x="95" y="0" type="line"/>
      <point x="217" y="693" type="line"/>
      <point x="302" y="902"/>
      <point x="475" y="1049"/>
      <point x="661" y="1049" type="curve" smooth="yes"/>
      <point x="864" y="1049"/>
      <point x="935" y="940"/>
      <point x="894" y="708" type="curve" smooth="yes"/>
      <point x="769" y="0" type="line"/>
      <point x="823" y="0" type="line"/>
      <point x="948" y="706" type="line" smooth="yes"/>
      <point x="995" y="971"/>
      <point x="906" y="1102"/>
      <point x="674" y="1102" type="curve" smooth="yes"/>
      <point x="507" y="1102"/>
      <point x="342" y="998"/>
      <point x="242" y="830" type="curve"/>
      <point x="311" y="1195" type="line"/>
      <point x="616" y="1536" type="line"/>
      <point x="562" y="1536" type="line"/>
      <point x="265" y="1226" type="line"/>
    </contour>
    <contour>
      <point x="451" y="1450" type="line"/>
      <point x="215" y="1716" type="line"/>
      <point x="149" y="1716" type="line"/>
      <point x="391" y="1450" type="line"/>
    </contour>
    <contour>
      <point x="1023" y="622" type="curve" smooth="yes"/>
      <point x="1054" y="622"/>
      <point x="1083" y="646"/>
      <point x="1088" y="677" type="curve" smooth="yes"/>
      <point x="1094" y="708"/>
      <point x="1073" y="733"/>
      <point x="1042" y="733" type="curve" smooth="yes"/>
      <point x="1011" y="733"/>
      <point x="983" y="708"/>
      <point x="977" y="677" type="curve" smooth="yes"/>
      <point x="972" y="646"/>
      <point x="992" y="622"/>
    </contour>
  </outline>
</glyph>
<glyph name="waGlottal-ethiopic" format="2">
  <advance width="1241"/>
  <unicode hex="12A7"/>
  <outline>
    <contour>
      <point x="41" y="0" type="line"/>
      <point x="95" y="0" type="line"/>
      <point x="217" y="693" type="line"/>
      <point x="302" y="902"/>
      <point x="475" y="1049"/>
      <point x="661" y="1049" type="curve" smooth="yes"/>
      <point x="864" y="1049"/>
      <point x="935" y="940"/>
      <point x="894" y="708" type="curve" smooth="yes"/>
      <point x="769" y="0" type="line"/>
      <point x="823" y="0" type="line"/>
      <point x="948" y="706" type="line" smooth="yes"/>
      <point x="995" y="971"/>
      <point x="906" y="1102"/>
      <point x="674" y="1102" type="curve" smooth="yes"/>
      <point x="507" y="1102"/>
      <point x="342" y="998"/>
      <point x="242" y="830" type="curve"/>
      <point x="311" y="1195" type="line"/>
      <point x="616" y="1536" type="line"/>
      <point x="562" y="1536" type="line"/>
      <point x="265" y="1226" type="line"/>
    </contour>
    <contour>
      <point x="451" y="1450" type="line"/>
      <point x="215" y="1716" type="line"/>
      <point x="149" y="1716" type="line"/>
      <point x="391" y="1450" type="line"/>
    </contour>
    <contour>
      <point x="383" y="-314" type="line"/>
      <point x="920" y="-314" type="line"/>
      <point x="902" y="-419" type="line"/>
      <point x="937" y="-419" type="line"/>
      <point x="963" y="-272" type="line"/>
      <point x="758" y="-272" type="line"/>
      <point x="812" y="-51" type="line"/>
      <point x="755" y="-51" type="line"/>
      <point x="701" y="-272" type="line"/>
      <point x="391" y="-272" type="line"/>
    </contour>
  </outline>
</glyph>
<glyph name="ku-ethiopic" format="2">
  <advance width="1241"/>
  <unicode hex="12A9"/>
  <outline>
    <contour>
      <point x="41" y="0" type="line"/>
      <point x="95" y="0" type="line"/>
      <point x="221" y="716" type="line" smooth="yes"/>
      <point x="247" y="862"/>
      <point x="315" y="1061"/>
      <point x="610" y="1061" type="curve" smooth="yes"/>
      <point x="922" y="1061"/>
      <point x="922" y="872"/>
      <point x="895" y="716" type="curve" smooth="yes"/>
      <point x="769" y="0" type="line"/>
      <point x="824" y="0" type="line"/>
      <point x="950" y="715" type="line" smooth="yes"/>
      <point x="995" y="973"/>
      <point x="868" y="1111"/>
      <point x="613" y="1111" type="curve"/>
      <point x="346" y="1093"/>
      <point x="210" y="957"/>
      <point x="173" y="748" type="curve" smooth="yes"/>
    </contour>
    <contour>
      <point x="1023" y="628" type="curve" smooth="yes"/>
      <point x="1054" y="628"/>
      <point x="1083" y="652"/>
      <point x="1088" y="683" type="curve" smooth="yes"/>
      <point x="1094" y="714"/>
      <point x="1073" y="739"/>
      <point x="1042" y="739" type="curve" smooth="yes"/>
      <point x="1011" y="739"/>
      <point x="983" y="714"/>
      <point x="977" y="683" type="curve" smooth="yes"/>
      <point x="972" y="652"/>
      <point x="992" y="628"/>
    </contour>
    <contour>
      <point x="522" y="1061" type="line"/>
      <point x="621" y="1104" type="line"/>
      <point x="204" y="1104" type="line"/>
      <point x="244" y="1329" type="line"/>
      <point x="180" y="1329" type="line"/>
      <point x="132" y="1061" type="line"/>
    </contour>
  </outline>
</glyph>
<glyph name="kaa-ethiopic" format="2">
  <advance width="1241"/>
  <unicode hex="12AB"/>
  <outline>
    <contour>
      <point x="41" y="0" type="line"/>
      <point x="95" y="0" type="line"/>
      <point x="221" y="716" type="line" smooth="yes"/>
      <point x="247" y="862"/>
      <point x="315" y="1061"/>
      <point x="610" y="1061" type="curve" smooth="yes"/>
      <point x="922" y="1061"/>
      <point x="922" y="872"/>
      <point x="895" y="716" type="curve" smooth="yes"/>
      <point x="769" y="0" type="line"/>
      <point x="824" y="0" type="line"/>
      <point x="950" y="715" type="line" smooth="yes"/>
      <point x="995" y="973"/>
      <point x="868" y="1111"/>
      <point x="613" y="1111" type="curve"/>
      <point x="346" y="1093"/>
      <point x="210" y="957"/>
      <point x="173" y="748" type="curve" smooth="yes"/>
    </contour>
    <contour>
      <point x="705" y="-364" type="line"/>
      <point x="762" y="-364" type="line"/>
      <point x="824" y="-10" type="line"/>
      <point x="767" y="-10" type="line"/>
    </contour>
    <contour>
      <point x="522" y="1061" type="line"/>
      <point x="621" y="1104" type="line"/>
      <point x="204" y="1104" type="line"/>
      <point x="244" y="1329" type="line"/>
      <point x="180" y="1329" type="line"/>
      <point x="132" y="1061" type="line"/>
    </contour>
  </outline>
</glyph>
<glyph name="kwi-ethiopic" format="2">
  <advance width="1241"/>
  <unicode hex="12B2"/>
  <outline>
    <contour>
      <point x="41" y="0" type="line"/>
      <point x="95" y="0" type="line"/>
      <point x="221" y="716" type="line" smooth="yes"/>
      <point x="247" y="862"/>
      <point x="315" y="1061"/>
      <point x="610" y="1061" type="curve" smooth="yes"/>
      <point x="922" y="1061"/>
      <point x="922" y="872"/>
      <point x="895" y="716" type="curve" smooth="yes"/>
      <point x="769" y="0" type="line"/>
      <point x="824" y="0" type="line"/>
      <point x="950" y="715" type="line" smooth="yes"/>
      <point x="995" y="973"/>
      <point x="868" y="1111"/>
      <point x="613" y="1111" type="curve"/>
      <point x="346" y="1093"/>
      <point x="210" y="957"/>
      <point x="173" y="748" type="curve" smooth="yes"/>
    </contour>
    <contour>
      <point x="522" y="1061" type="line"/>
      <point x="621" y="1104" type="line"/>
      <point x="204" y="1104" type="line"/>
      <point x="244" y="1329" type="line"/>
      <point x="180" y="1329" type="line"/>
      <point x="132" y="1061" type="line"/>
    </contour>
    <contour>
      <point x="394" y="-237" type="line"/>
      <point x="931" y="-237" type="line"/>
      <point x="913" y="-342" type="line"/>
      <point x="948" y="-342" type="line"/>
      <point x="974" y="-195" type="line"/>
      <point x="769" y="-195" type="line"/>
      <point x="823" y="26" type="line"/>
      <point x="766" y="26" type="line"/>
      <point x="712" y="-195" type="line"/>
      <point x="402" y="-195" type="line"/>
    </contour>
  </outline>
</glyph>
<glyph name="ePharyngeal-ethiopic" format="2">
  <advance width="1248"/>
  <unicode hex="12D5"/>
  <outline>
    <contour>
      <point x="431" y="-20" type="curve" smooth="yes"/>
      <point x="615" y="-20"/>
      <point x="782" y="77"/>
      <point x="890" y="241" type="curve" smooth="yes"/>
      <point x="944" y="323"/>
      <point x="981" y="416"/>
      <point x="998" y="520" type="curve" smooth="yes"/>
      <point x="1006" y="568" type="line" smooth="yes"/>
      <point x="1056" y="869"/>
      <point x="917" y="1102"/>
      <point x="627" y="1102" type="curve" smooth="yes"/>
      <point x="444" y="1102"/>
      <point x="275" y="1005"/>
      <point x="167" y="841" type="curve" smooth="yes"/>
      <point x="113" y="758"/>
      <point x="75" y="665"/>
      <point x="58" y="562" type="curve" smooth="yes"/>
      <point x="50" y="514" type="line" smooth="yes"/>
      <point x="-12" y="139"/>
      <point x="206" y="-20"/>
    </contour>
    <contour>
      <point x="440" y="34" type="curve" smooth="yes"/>
      <point x="176" y="34"/>
      <point x="59" y="261"/>
      <point x="105" y="520" type="curve" smooth="yes"/>
      <point x="161" y="837"/>
      <point x="370" y="1048"/>
      <point x="617" y="1048" type="curve" smooth="yes"/>
      <point x="878" y="1048"/>
      <point x="996" y="818"/>
      <point x="946" y="531" type="curve" smooth="yes"/>
      <point x="894" y="239"/>
      <point x="687" y="34"/>
    </contour>
    <contour>
      <point x="634" y="1119" type="line"/>
      <point x="694" y="1119" type="line"/>
      <point x="741" y="1385" type="line"/>
      <point x="681" y="1385" type="line"/>
    </contour>
  </outline>
</glyph>
<glyph name="za-ethiopic" format="2">
  <advance width="1243"/>
  <unicode hex="12D8"/>
  <outline>
    <contour>
      <point x="41" y="0" type="line"/>
      <point x="95" y="0" type="line"/>
      <point x="203" y="611" type="line"/>
      <point x="879" y="611" type="line"/>
      <point x="771" y="0" type="line"/>
      <point x="825" y="0" type="line"/>
      <point x="1016" y="1082" type="line"/>
      <point x="962" y="1082" type="line"/>
      <point x="888" y="665" type="line"/>
      <point x="212" y="665" type="line"/>
      <point x="286" y="1082" type="line"/>
      <point x="232" y="1082" type="line"/>
    </contour>
  </outline>
</glyph>
<glyph name="zu-ethiopic" format="2">
  <advance width="1243"/>
  <unicode hex="12D9"/>
  <outline>
    <contour>
      <point x="41" y="0" type="line"/>
      <point x="95" y="0" type="line"/>
      <point x="203" y="611" type="line"/>
      <point x="879" y="611" type="line"/>
      <point x="771" y="0" type="line"/>
      <point x="825" y="0" type="line"/>
      <point x="1016" y="1082" type="line"/>
      <point x="962" y="1082" type="line"/>
      <point x="888" y="665" type="line"/>
      <point x="212" y="665" type="line"/>
      <point x="286" y="1082" type="line"/>
      <point x="232" y="1082" type="line"/>
    </contour>
    <contour>
      <point x="1084" y="636" type="curve" smooth="yes"/>
      <point x="1115" y="636"/>
      <point x="1144" y="660"/>
      <point x="1149" y="691" type="curve" smooth="yes"/>
      <point x="1155" y="722"/>
      <point x="1134" y="747"/>
      <point x="1103" y="747" type="curve" smooth="yes"/>
      <point x="1072" y="747"/>
      <point x="1044" y="722"/>
      <point x="1038" y="691" type="curve" smooth="yes"/>
      <point x="1033" y="660"/>
      <point x="1053" y="636"/>
    </contour>
  </outline>
</glyph>
<glyph name="zi-ethiopic" format="2">
  <advance width="1243"/>
  <unicode hex="12DA"/>
  <outline>
    <contour>
      <point x="41" y="0" type="line"/>
      <point x="95" y="0" type="line"/>
      <point x="203" y="611" type="line"/>
      <point x="879" y="611" type="line"/>
      <point x="771" y="0" type="line"/>
      <point x="825" y="0" type="line"/>
      <point x="1016" y="1082" type="line"/>
      <point x="962" y="1082" type="line"/>
      <point x="888" y="665" type="line"/>
      <point x="212" y="665" type="line"/>
      <point x="286" y="1082" type="line"/>
      <point x="232" y="1082" type="line"/>
    </contour>
    <contour>
      <point x="909" y="-18" type="curve" smooth="yes"/>
      <point x="940" y="-18"/>
      <point x="969" y="6"/>
      <point x="975" y="37" type="curve" smooth="yes"/>
      <point x="980" y="68"/>
      <point x="959" y="93"/>
      <point x="928" y="93" type="curve" smooth="yes"/>
      <point x="897" y="93"/>
      <point x="869" y="68"/>
      <point x="864" y="37" type="curve" smooth="yes"/>
      <point x="858" y="6"/>
      <point x="878" y="-18"/>
    </contour>
  </outline>
</glyph>
<glyph name="zaa-ethiopic" format="2">
  <advance width="1243"/>
  <unicode hex="12DB"/>
  <outline>
    <contour>
      <point x="41" y="0" type="line"/>
      <point x="95" y="0" type="line"/>
      <point x="203" y="611" type="line"/>
      <point x="879" y="611" type="line"/>
      <point x="771" y="0" type="line"/>
      <point x="825" y="0" type="line"/>
      <point x="1016" y="1082" type="line"/>
      <point x="962" y="1082" type="line"/>
      <point x="888" y="665" type="line"/>
      <point x="212" y="665" type="line"/>
      <point x="286" y="1082" type="line"/>
      <point x="232" y="1082" type="line"/>
    </contour>
    <contour>
      <point x="707" y="-362" type="line"/>
      <point x="764" y="-362" type="line"/>
      <point x="826" y="-8" type="line"/>
      <point x="769" y="-8" type="line"/>
    </contour>
  </outline>
</glyph>
<glyph name="zee-ethiopic" format="2">
  <advance width="1243"/>
  <unicode hex="12DC"/>
  <outline>
    <contour>
      <point x="41" y="0" type="line"/>
      <point x="95" y="0" type="line"/>
      <point x="203" y="611" type="line"/>
      <point x="879" y="611" type="line"/>
      <point x="771" y="0" type="line"/>
      <point x="825" y="0" type="line"/>
      <point x="1016" y="1082" type="line"/>
      <point x="962" y="1082" type="line"/>
      <point x="888" y="665" type="line"/>
      <point x="212" y="665" type="line"/>
      <point x="286" y="1082" type="line"/>
      <point x="232" y="1082" type="line"/>
    </contour>
    <contour>
      <point x="554" y="-283" type="curve" smooth="yes"/>
      <point x="679" y="-283"/>
      <point x="793" y="-186"/>
      <point x="815" y="-62" type="curve" smooth="yes"/>
      <point x="837" y="63"/>
      <point x="758" y="165"/>
      <point x="633" y="165" type="curve" smooth="yes"/>
      <point x="512" y="165"/>
      <point x="394" y="68"/>
      <point x="371" y="-62" type="curve" smooth="yes"/>
      <point x="348" y="-192"/>
      <point x="434" y="-283"/>
    </contour>
    <contour>
      <point x="560" y="-245" type="curve" smooth="yes"/>
      <point x="458" y="-245"/>
      <point x="398" y="-174"/>
      <point x="416" y="-71" type="curve" smooth="yes"/>
      <point x="435" y="37"/>
      <point x="520" y="109"/>
      <point x="622" y="109" type="curve" smooth="yes"/>
      <point x="724" y="109"/>
      <point x="785" y="37"/>
      <point x="766" y="-71" type="curve" smooth="yes"/>
      <point x="748" y="-174"/>
      <point x="662" y="-245"/>
    </contour>
  </outline>
</glyph>
<glyph name="ze-ethiopic" format="2">
  <advance width="1243"/>
  <unicode hex="12DD"/>
  <outline>
    <contour>
      <point x="41" y="0" type="line"/>
      <point x="95" y="0" type="line"/>
      <point x="203" y="611" type="line"/>
      <point x="879" y="611" type="line"/>
      <point x="771" y="0" type="line"/>
      <point x="825" y="0" type="line"/>
      <point x="1016" y="1082" type="line"/>
      <point x="962" y="1082" type="line"/>
      <point x="888" y="665" type="line"/>
      <point x="212" y="665" type="line"/>
      <point x="286" y="1082" type="line"/>
      <point x="232" y="1082" type="line"/>
    </contour>
    <contour>
      <point x="329" y="1196" type="line" name="❌"/>
      <point x="187" y="1462" type="line"/>
      <point x="121" y="1462" type="line"/>
      <point x="269" y="1196" type="line" name="❌"/>
    </contour>
  </outline>
</glyph>
<glyph name="zo-ethiopic" format="2">
  <advance width="1243"/>
  <unicode hex="12DE"/>
  <outline>
    <contour>
      <point x="41" y="0" type="line"/>
      <point x="95" y="0" type="line"/>
      <point x="203" y="611" type="line"/>
      <point x="879" y="611" type="line"/>
      <point x="771" y="0" type="line"/>
      <point x="825" y="0" type="line"/>
      <point x="1016" y="1082" type="line"/>
      <point x="962" y="1082" type="line"/>
      <point x="888" y="665" type="line"/>
      <point x="212" y="665" type="line"/>
      <point x="286" y="1082" type="line"/>
      <point x="232" y="1082" type="line"/>
    </contour>
    <contour>
      <point x="-28" y="-365" type="line" name="❌"/>
      <point x="29" y="-365" type="line" name="❌"/>
      <point x="91" y="-11" type="line"/>
      <point x="34" y="-11" type="line"/>
    </contour>
  </outline>
</glyph>
<glyph name="zwa-ethiopic" format="2">
  <advance width="1243"/>
  <unicode hex="12DF"/>
  <outline>
    <contour>
      <point x="41" y="0" type="line"/>
      <point x="95" y="0" type="line"/>
      <point x="203" y="611" type="line"/>
      <point x="879" y="611" type="line"/>
      <point x="771" y="0" type="line"/>
      <point x="825" y="0" type="line"/>
      <point x="1016" y="1082" type="line"/>
      <point x="962" y="1082" type="line"/>
      <point x="888" y="665" type="line"/>
      <point x="212" y="665" type="line"/>
      <point x="286" y="1082" type="line"/>
      <point x="232" y="1082" type="line"/>
    </contour>
    <contour>
      <point x="393" y="-280" type="line"/>
      <point x="930" y="-280" type="line"/>
      <point x="912" y="-385" type="line"/>
      <point x="947" y="-385" type="line"/>
      <point x="973" y="-238" type="line"/>
      <point x="768" y="-238" type="line"/>
      <point x="822" y="-17" type="line"/>
      <point x="765" y="-17" type="line"/>
      <point x="711" y="-238" type="line"/>
      <point x="401" y="-238" type="line"/>
    </contour>
  </outline>
</glyph>
<glyph name="zhee-ethiopic" format="2">
  <advance width="1243"/>
  <unicode hex="12E4"/>
  <outline>
    <contour>
      <point x="41" y="0" type="line"/>
      <point x="95" y="0" type="line"/>
      <point x="203" y="611" type="line"/>
      <point x="879" y="611" type="line"/>
      <point x="771" y="0" type="line"/>
      <point x="825" y="0" type="line"/>
      <point x="1016" y="1082" type="line"/>
      <point x="962" y="1082" type="line"/>
      <point x="888" y="665" type="line"/>
      <point x="212" y="665" type="line"/>
      <point x="286" y="1082" type="line"/>
      <point x="232" y="1082" type="line"/>
    </contour>
    <contour>
      <point x="554" y="-283" type="curve" smooth="yes"/>
      <point x="679" y="-283"/>
      <point x="793" y="-186"/>
      <point x="815" y="-62" type="curve" smooth="yes"/>
      <point x="837" y="63"/>
      <point x="758" y="165"/>
      <point x="633" y="165" type="curve" smooth="yes"/>
      <point x="512" y="165"/>
      <point x="394" y="68"/>
      <point x="371" y="-62" type="curve" smooth="yes"/>
      <point x="348" y="-192"/>
      <point x="434" y="-283"/>
    </contour>
    <contour>
      <point x="560" y="-245" type="curve" smooth="yes"/>
      <point x="458" y="-245"/>
      <point x="398" y="-174"/>
      <point x="416" y="-71" type="curve" smooth="yes"/>
      <point x="435" y="37"/>
      <point x="520" y="109"/>
      <point x="622" y="109" type="curve" smooth="yes"/>
      <point x="724" y="109"/>
      <point x="785" y="37"/>
      <point x="766" y="-71" type="curve" smooth="yes"/>
      <point x="748" y="-174"/>
      <point x="662" y="-245"/>
    </contour>
    <contour>
      <point x="146" y="999" type="curve" smooth="yes"/>
      <point x="177" y="999"/>
      <point x="206" y="1023"/>
      <point x="212" y="1054" type="curve" smooth="yes"/>
      <point x="217" y="1085"/>
      <point x="196" y="1110"/>
      <point x="165" y="1110" type="curve" smooth="yes"/>
      <point x="134" y="1110"/>
      <point x="106" y="1085"/>
      <point x="101" y="1054" type="curve" smooth="yes"/>
      <point x="95" y="1023"/>
      <point x="115" y="999"/>
    </contour>
    <contour>
      <point x="1071" y="1001" type="curve" smooth="yes"/>
      <point x="1102" y="1001"/>
      <point x="1131" y="1025"/>
      <point x="1137" y="1056" type="curve" smooth="yes"/>
      <point x="1142" y="1087"/>
      <point x="1122" y="1112"/>
      <point x="1091" y="1112" type="curve" smooth="yes"/>
      <point x="1060" y="1112"/>
      <point x="1031" y="1087"/>
      <point x="1023" y="1056" type="curve" smooth="yes"/>
      <point x="1015" y="1025"/>
      <point x="1040" y="1001"/>
    </contour>
  </outline>
</glyph>
<glyph name="zhwa-ethiopic" format="2">
  <advance width="1243"/>
  <unicode hex="12E7"/>
  <outline>
    <contour>
      <point x="41" y="0" type="line"/>
      <point x="95" y="0" type="line"/>
      <point x="203" y="611" type="line"/>
      <point x="879" y="611" type="line"/>
      <point x="771" y="0" type="line"/>
      <point x="825" y="0" type="line"/>
      <point x="1016" y="1082" type="line"/>
      <point x="962" y="1082" type="line"/>
      <point x="888" y="665" type="line"/>
      <point x="212" y="665" type="line"/>
      <point x="286" y="1082" type="line"/>
      <point x="232" y="1082" type="line"/>
    </contour>
    <contour>
      <point x="393" y="-280" type="line"/>
      <point x="930" y="-280" type="line"/>
      <point x="912" y="-385" type="line"/>
      <point x="947" y="-385" type="line"/>
      <point x="973" y="-238" type="line"/>
      <point x="768" y="-238" type="line"/>
      <point x="822" y="-17" type="line"/>
      <point x="765" y="-17" type="line"/>
      <point x="711" y="-238" type="line"/>
      <point x="401" y="-238" type="line"/>
    </contour>
    <contour>
      <point x="146" y="999" type="curve" smooth="yes"/>
      <point x="177" y="999"/>
      <point x="206" y="1023"/>
      <point x="212" y="1054" type="curve" smooth="yes"/>
      <point x="217" y="1085"/>
      <point x="196" y="1110"/>
      <point x="165" y="1110" type="curve" smooth="yes"/>
      <point x="134" y="1110"/>
      <point x="106" y="1085"/>
      <point x="101" y="1054" type="curve" smooth="yes"/>
      <point x="95" y="1023"/>
      <point x="115" y="999"/>
    </contour>
    <contour>
      <point x="1071" y="1001" type="curve" smooth="yes"/>
      <point x="1102" y="1001"/>
      <point x="1131" y="1025"/>
      <point x="1137" y="1056" type="curve" smooth="yes"/>
      <point x="1142" y="1087"/>
      <point x="1122" y="1112"/>
      <point x="1091" y="1112" type="curve" smooth="yes"/>
      <point x="1060" y="1112"/>
      <point x="1031" y="1087"/>
      <point x="1023" y="1056" type="curve" smooth="yes"/>
      <point x="1015" y="1025"/>
      <point x="1040" y="1001"/>
    </contour>
  </outline>
</glyph>
<glyph name="yaa-ethiopic" format="2">
  <advance width="1128"/>
  <unicode hex="12EB"/>
  <outline>
    <contour>
      <point x="170" y="0" type="line"/>
      <point x="224" y="0" type="line"/>
      <point x="188" y="577" type="line"/>
      <point x="939" y="577" type="line" smooth="yes"/>
      <point x="950" y="577"/>
      <point x="960" y="586"/>
      <point x="969" y="634" type="curve" smooth="yes"/>
      <point x="1018" y="914"/>
      <point x="921" y="1102"/>
      <point x="680" y="1102" type="curve" smooth="yes"/>
      <point x="515" y="1102"/>
      <point x="349" y="1004"/>
      <point x="239" y="837" type="curve" smooth="yes"/>
      <point x="194" y="768"/>
      <point x="141" y="673"/>
      <point x="138" y="572" type="curve"/>
    </contour>
    <contour>
      <point x="200" y="631" type="line"/>
      <point x="268" y="874"/>
      <point x="460" y="1048"/>
      <point x="671" y="1048" type="curve" smooth="yes"/>
      <point x="896" y="1048"/>
      <point x="954" y="856"/>
      <point x="914" y="631" type="curve"/>
    </contour>
    <contour>
      <point x="11" y="-338" type="line"/>
      <point x="71" y="-338" type="line"/>
      <point x="313" y="-72" type="line"/>
      <point x="247" y="-72" type="line"/>
    </contour>
  </outline>
</glyph>
<glyph name="yee-ethiopic" format="2">
  <advance width="1128"/>
  <unicode hex="12EC"/>
  <outline>
    <contour>
      <point x="170" y="0" type="line"/>
      <point x="224" y="0" type="line"/>
      <point x="188" y="577" type="line"/>
      <point x="939" y="577" type="line" smooth="yes"/>
      <point x="950" y="577"/>
      <point x="960" y="586"/>
      <point x="969" y="634" type="curve" smooth="yes"/>
      <point x="1018" y="914"/>
      <point x="921" y="1102"/>
      <point x="680" y="1102" type="curve" smooth="yes"/>
      <point x="515" y="1102"/>
      <point x="349" y="1004"/>
      <point x="239" y="837" type="curve" smooth="yes"/>
      <point x="194" y="768"/>
      <point x="141" y="673"/>
      <point x="138" y="572" type="curve"/>
    </contour>
    <contour>
      <point x="200" y="631" type="line"/>
      <point x="268" y="874"/>
      <point x="460" y="1048"/>
      <point x="671" y="1048" type="curve" smooth="yes"/>
      <point x="896" y="1048"/>
      <point x="954" y="856"/>
      <point x="914" y="631" type="curve"/>
    </contour>
    <contour>
      <point x="409" y="167" type="curve" smooth="yes"/>
      <point x="505" y="167"/>
      <point x="593" y="241"/>
      <point x="610" y="337" type="curve" smooth="yes"/>
      <point x="627" y="433"/>
      <point x="566" y="511"/>
      <point x="470" y="511" type="curve" smooth="yes"/>
      <point x="376" y="511"/>
      <point x="286" y="437"/>
      <point x="268" y="337" type="curve" smooth="yes"/>
      <point x="250" y="237"/>
      <point x="317" y="167"/>
    </contour>
    <contour>
      <point x="418" y="221" type="curve" smooth="yes"/>
      <point x="350" y="221"/>
      <point x="310" y="268"/>
      <point x="322" y="337" type="curve" smooth="yes"/>
      <point x="335" y="409"/>
      <point x="392" y="457"/>
      <point x="460" y="457" type="curve" smooth="yes"/>
      <point x="528" y="457"/>
      <point x="569" y="409"/>
      <point x="556" y="337" type="curve" smooth="yes"/>
      <point x="544" y="268"/>
      <point x="486" y="221"/>
    </contour>
  </outline>
</glyph>
<glyph name="ye-ethiopic" format="2">
  <advance width="1128"/>
  <unicode hex="12ED"/>
  <outline>
    <contour>
      <point x="170" y="0" type="line"/>
      <point x="224" y="0" type="line"/>
      <point x="188" y="577" type="line"/>
      <point x="939" y="577" type="line" smooth="yes"/>
      <point x="950" y="577"/>
      <point x="960" y="586"/>
      <point x="969" y="634" type="curve" smooth="yes"/>
      <point x="1018" y="914"/>
      <point x="921" y="1102"/>
      <point x="680" y="1102" type="curve" smooth="yes"/>
      <point x="515" y="1102"/>
      <point x="349" y="1004"/>
      <point x="239" y="837" type="curve" smooth="yes"/>
      <point x="194" y="768"/>
      <point x="141" y="673"/>
      <point x="138" y="572" type="curve"/>
    </contour>
    <contour>
      <point x="200" y="631" type="line"/>
      <point x="268" y="874"/>
      <point x="460" y="1048"/>
      <point x="671" y="1048" type="curve" smooth="yes"/>
      <point x="896" y="1048"/>
      <point x="954" y="856"/>
      <point x="914" y="631" type="curve"/>
    </contour>
    <contour>
      <point x="-75" y="-140" type="curve"/>
      <point x="-20" y="-140" type="line"/>
      <point x="-20" y="-64"/>
      <point x="26" y="-15"/>
      <point x="101" y="-15" type="curve" smooth="yes"/>
      <point x="212" y="-15"/>
      <point x="360" y="-10"/>
      <point x="498" y="-10" type="curve" smooth="yes"/>
      <point x="728" y="-10"/>
      <point x="744" y="238"/>
      <point x="744" y="347" type="curve"/>
      <point x="689" y="347" type="line"/>
      <point x="689" y="268"/>
      <point x="700" y="45"/>
      <point x="498" y="45" type="curve" smooth="yes"/>
      <point x="392" y="45"/>
      <point x="235" y="39"/>
      <point x="101" y="39" type="curve" smooth="yes"/>
      <point x="0" y="39"/>
      <point x="-75" y="-33"/>
    </contour>
  </outline>
</glyph>
<glyph name="ddee-ethiopic" format="2">
  <advance width="1128"/>
  <unicode hex="12FC"/>
  <outline>
    <contour>
      <point x="170" y="0" type="line"/>
      <point x="224" y="0" type="line"/>
      <point x="188" y="577" type="line"/>
      <point x="939" y="577" type="line" smooth="yes"/>
      <point x="950" y="577"/>
      <point x="960" y="586"/>
      <point x="969" y="634" type="curve" smooth="yes"/>
      <point x="1018" y="914"/>
      <point x="921" y="1102"/>
      <point x="680" y="1102" type="curve" smooth="yes"/>
      <point x="515" y="1102"/>
      <point x="349" y="1004"/>
      <point x="239" y="837" type="curve" smooth="yes"/>
      <point x="194" y="768"/>
      <point x="141" y="673"/>
      <point x="138" y="572" type="curve"/>
    </contour>
    <contour>
      <point x="200" y="631" type="line"/>
      <point x="268" y="874"/>
      <point x="460" y="1048"/>
      <point x="671" y="1048" type="curve" smooth="yes"/>
      <point x="896" y="1048"/>
      <point x="954" y="856"/>
      <point x="914" y="631" type="curve"/>
    </contour>
    <contour>
      <point x="569" y="-406" type="curve" smooth="yes"/>
      <point x="694" y="-406"/>
      <point x="808" y="-309"/>
      <point x="830" y="-185" type="curve" smooth="yes"/>
      <point x="852" y="-60"/>
      <point x="773" y="42"/>
      <point x="648" y="42" type="curve" smooth="yes"/>
      <point x="527" y="42"/>
      <point x="409" y="-55"/>
      <point x="386" y="-185" type="curve" smooth="yes"/>
      <point x="363" y="-315"/>
      <point x="449" y="-406"/>
    </contour>
    <contour>
      <point x="575" y="-368" type="curve" smooth="yes"/>
      <point x="473" y="-368"/>
      <point x="413" y="-297"/>
      <point x="431" y="-194" type="curve" smooth="yes"/>
      <point x="450" y="-86"/>
      <point x="535" y="-14"/>
      <point x="637" y="-14" type="curve" smooth="yes"/>
      <point x="739" y="-14"/>
      <point x="800" y="-86"/>
      <point x="781" y="-194" type="curve" smooth="yes"/>
      <point x="763" y="-297"/>
      <point x="677" y="-368"/>
    </contour>
    <contour>
      <point x="-79" y="-13" type="line"/>
      <point x="652" y="-13" type="line"/>
      <point x="661" y="41" type="line"/>
      <point x="-70" y="41" type="line"/>
    </contour>
    <component base="_smart.neck" xOffset="852" yOffset="1136"/>
  </outline>
</glyph>
<glyph name="ddo-ethiopic" format="2">
  <advance width="1128"/>
  <unicode hex="12FE"/>
  <outline>
    <contour>
      <point x="170" y="0" type="line"/>
      <point x="224" y="0" type="line"/>
      <point x="188" y="577" type="line"/>
      <point x="939" y="577" type="line" smooth="yes"/>
      <point x="950" y="577"/>
      <point x="960" y="586"/>
      <point x="969" y="634" type="curve" smooth="yes"/>
      <point x="1018" y="914"/>
      <point x="921" y="1102"/>
      <point x="680" y="1102" type="curve" smooth="yes"/>
      <point x="515" y="1102"/>
      <point x="349" y="1004"/>
      <point x="239" y="837" type="curve" smooth="yes"/>
      <point x="194" y="768"/>
      <point x="141" y="673"/>
      <point x="138" y="572" type="curve"/>
    </contour>
    <contour>
      <point x="200" y="631" type="line"/>
      <point x="268" y="874"/>
      <point x="460" y="1048"/>
      <point x="671" y="1048" type="curve" smooth="yes"/>
      <point x="896" y="1048"/>
      <point x="954" y="856"/>
      <point x="914" y="631" type="curve"/>
    </contour>
    <contour>
      <point x="-79" y="-13" type="line"/>
      <point x="652" y="-13" type="line"/>
      <point x="661" y="41" type="line"/>
      <point x="-70" y="41" type="line"/>
    </contour>
    <contour>
      <point x="658" y="1120" type="line"/>
      <point x="718" y="1120" type="line"/>
      <point x="765" y="1386" type="line"/>
      <point x="705" y="1386" type="line"/>
    </contour>
    <component base="_smart.ho" xOffset="83" yOffset="-370"/>
  </outline>
</glyph>
<glyph name="gaa-ethiopic" format="2">
  <advance width="814"/>
  <unicode hex="130B"/>
  <outline>
    <contour>
      <point x="401" y="0" type="line"/>
      <point x="456" y="0" type="line"/>
      <point x="581" y="706" type="line" smooth="yes"/>
      <point x="628" y="971"/>
      <point x="538" y="1102"/>
      <point x="306" y="1102" type="curve" smooth="yes"/>
      <point x="235" y="1102"/>
      <point x="165" y="1083"/>
      <point x="100" y="1049" type="curve"/>
      <point x="132" y="1012" type="line"/>
      <point x="183" y="1036"/>
      <point x="237" y="1049"/>
      <point x="293" y="1049" type="curve" smooth="yes"/>
      <point x="496" y="1049"/>
      <point x="567" y="940"/>
      <point x="526" y="708" type="curve" smooth="yes"/>
    </contour>
    <contour>
      <point x="143" y="-308" type="line"/>
      <point x="203" y="-308" type="line"/>
      <point x="445" y="-42" type="line"/>
      <point x="379" y="-42" type="line"/>
    </contour>
  </outline>
</glyph>
<glyph name="ge-ethiopic" format="2">
  <advance width="814"/>
  <unicode hex="130D"/>
  <outline>
    <contour>
      <point x="401" y="0" type="line"/>
      <point x="456" y="0" type="line"/>
      <point x="581" y="706" type="line" smooth="yes"/>
      <point x="628" y="971"/>
      <point x="538" y="1102"/>
      <point x="306" y="1102" type="curve" smooth="yes"/>
      <point x="235" y="1102"/>
      <point x="165" y="1083"/>
      <point x="100" y="1049" type="curve"/>
      <point x="132" y="1012" type="line"/>
      <point x="183" y="1036"/>
      <point x="237" y="1049"/>
      <point x="293" y="1049" type="curve" smooth="yes"/>
      <point x="496" y="1049"/>
      <point x="567" y="940"/>
      <point x="526" y="708" type="curve" smooth="yes"/>
    </contour>
    <contour>
      <point x="120" y="635" type="curve" smooth="yes"/>
      <point x="245" y="635"/>
      <point x="359" y="732"/>
      <point x="381" y="856" type="curve" smooth="yes"/>
      <point x="403" y="981"/>
      <point x="324" y="1083"/>
      <point x="199" y="1083" type="curve" smooth="yes"/>
      <point x="78" y="1083"/>
      <point x="-40" y="986"/>
      <point x="-63" y="856" type="curve" smooth="yes"/>
      <point x="-86" y="726"/>
      <point x="0" y="635"/>
    </contour>
    <contour>
      <point x="126" y="673" type="curve" smooth="yes"/>
      <point x="24" y="673"/>
      <point x="-37" y="744"/>
      <point x="-19" y="847" type="curve" smooth="yes"/>
      <point x="1" y="955"/>
      <point x="86" y="1027"/>
      <point x="188" y="1027" type="curve" smooth="yes"/>
      <point x="290" y="1027"/>
      <point x="351" y="955"/>
      <point x="331" y="847" type="curve" smooth="yes"/>
      <point x="313" y="744"/>
      <point x="228" y="673"/>
    </contour>
  </outline>
</glyph>
<glyph name="gwa-ethiopic" format="2">
  <advance width="814"/>
  <unicode hex="1310"/>
  <outline>
    <contour>
      <point x="401" y="0" type="line"/>
      <point x="456" y="0" type="line"/>
      <point x="581" y="706" type="line" smooth="yes"/>
      <point x="628" y="971"/>
      <point x="538" y="1102"/>
      <point x="306" y="1102" type="curve" smooth="yes"/>
      <point x="235" y="1102"/>
      <point x="165" y="1083"/>
      <point x="100" y="1049" type="curve"/>
      <point x="132" y="1012" type="line"/>
      <point x="183" y="1036"/>
      <point x="237" y="1049"/>
      <point x="293" y="1049" type="curve" smooth="yes"/>
      <point x="496" y="1049"/>
      <point x="567" y="940"/>
      <point x="526" y="708" type="curve" smooth="yes"/>
    </contour>
    <contour>
      <point x="95" y="-45" type="line"/>
      <point x="571" y="-45" type="line"/>
      <point x="532" y="-267" type="line"/>
      <point x="592" y="-267" type="line"/>
      <point x="639" y="-1" type="line"/>
      <point x="103" y="-1" type="line"/>
    </contour>
  </outline>
</glyph>
<glyph name="gga-ethiopic" format="2">
  <advance width="814"/>
  <unicode hex="1318"/>
  <outline>
    <contour>
      <point x="401" y="0" type="line"/>
      <point x="456" y="0" type="line"/>
      <point x="581" y="706" type="line" smooth="yes"/>
      <point x="628" y="971"/>
      <point x="538" y="1102"/>
      <point x="306" y="1102" type="curve" smooth="yes"/>
      <point x="235" y="1102"/>
      <point x="165" y="1083"/>
      <point x="100" y="1049" type="curve"/>
      <point x="132" y="1012" type="line"/>
      <point x="183" y="1036"/>
      <point x="237" y="1049"/>
      <point x="293" y="1049" type="curve" smooth="yes"/>
      <point x="496" y="1049"/>
      <point x="567" y="940"/>
      <point x="526" y="708" type="curve" smooth="yes"/>
    </contour>
    <contour>
      <point x="299" y="1110" type="line"/>
      <point x="359" y="1110" type="line"/>
      <point x="406" y="1376" type="line"/>
      <point x="346" y="1376" type="line"/>
    </contour>
    <contour>
      <point x="178" y="1364" type="line"/>
      <point x="693" y="1364" type="line"/>
      <point x="701" y="1408" type="line"/>
      <point x="186" y="1408" type="line"/>
    </contour>
  </outline>
</glyph>
<glyph name="ggu-ethiopic" format="2">
  <advance width="814"/>
  <unicode hex="1319"/>
  <outline>
    <contour>
      <point x="401" y="0" type="line"/>
      <point x="456" y="0" type="line"/>
      <point x="581" y="706" type="line" smooth="yes"/>
      <point x="628" y="971"/>
      <point x="538" y="1102"/>
      <point x="306" y="1102" type="curve" smooth="yes"/>
      <point x="235" y="1102"/>
      <point x="165" y="1083"/>
      <point x="100" y="1049" type="curve"/>
      <point x="132" y="1012" type="line"/>
      <point x="183" y="1036"/>
      <point x="237" y="1049"/>
      <point x="293" y="1049" type="curve" smooth="yes"/>
      <point x="496" y="1049"/>
      <point x="567" y="940"/>
      <point x="526" y="708" type="curve" smooth="yes"/>
    </contour>
    <contour>
      <point x="641" y="593" type="curve" smooth="yes"/>
      <point x="672" y="593"/>
      <point x="701" y="617"/>
      <point x="706" y="648" type="curve" smooth="yes"/>
      <point x="712" y="679"/>
      <point x="691" y="704"/>
      <point x="660" y="704" type="curve" smooth="yes"/>
      <point x="629" y="704"/>
      <point x="601" y="679"/>
      <point x="595" y="648" type="curve" smooth="yes"/>
      <point x="590" y="617"/>
      <point x="610" y="593"/>
    </contour>
    <contour>
      <point x="299" y="1110" type="line"/>
      <point x="359" y="1110" type="line"/>
      <point x="406" y="1376" type="line"/>
      <point x="346" y="1376" type="line"/>
    </contour>
    <component base="_smart.hat" xOffset="628" yOffset="1255"/>
  </outline>
</glyph>
<glyph name="ggo-ethiopic" format="2">
  <advance width="814"/>
  <unicode hex="131E"/>
  <outline>
    <contour>
      <point x="401" y="0" type="line"/>
      <point x="456" y="0" type="line"/>
      <point x="581" y="706" type="line" smooth="yes"/>
      <point x="628" y="971"/>
      <point x="538" y="1102"/>
      <point x="306" y="1102" type="curve" smooth="yes"/>
      <point x="235" y="1102"/>
      <point x="165" y="1083"/>
      <point x="100" y="1049" type="curve"/>
      <point x="132" y="1012" type="line"/>
      <point x="183" y="1036"/>
      <point x="237" y="1049"/>
      <point x="293" y="1049" type="curve" smooth="yes"/>
      <point x="496" y="1049"/>
      <point x="567" y="940"/>
      <point x="526" y="708" type="curve" smooth="yes"/>
    </contour>
    <contour>
      <point x="178" y="1364" type="line"/>
      <point x="693" y="1364" type="line"/>
      <point x="701" y="1408" type="line"/>
      <point x="186" y="1408" type="line"/>
    </contour>
    <contour>
      <point x="354" y="1067" type="curve" smooth="yes"/>
      <point x="450" y="1067"/>
      <point x="538" y="1141"/>
      <point x="555" y="1237" type="curve" smooth="yes"/>
      <point x="572" y="1333"/>
      <point x="511" y="1411"/>
      <point x="415" y="1411" type="curve" smooth="yes"/>
      <point x="321" y="1411"/>
      <point x="231" y="1337"/>
      <point x="213" y="1237" type="curve" smooth="yes"/>
      <point x="195" y="1137"/>
      <point x="262" y="1067"/>
    </contour>
    <contour>
      <point x="363" y="1121" type="curve" smooth="yes"/>
      <point x="295" y="1121"/>
      <point x="255" y="1168"/>
      <point x="267" y="1237" type="curve" smooth="yes"/>
      <point x="280" y="1309"/>
      <point x="337" y="1357"/>
      <point x="405" y="1357" type="curve" smooth="yes"/>
      <point x="473" y="1357"/>
      <point x="514" y="1309"/>
      <point x="501" y="1237" type="curve" smooth="yes"/>
      <point x="489" y="1168"/>
      <point x="431" y="1121"/>
    </contour>
  </outline>
</glyph>
<glyph name="thee-ethiopic" format="2">
  <advance width="1956"/>
  <unicode hex="1324"/>
  <outline>
    <contour>
      <point x="30" y="0" type="line"/>
      <point x="85" y="0" type="line"/>
      <point x="206" y="684" type="line" smooth="yes"/>
      <point x="240" y="875"/>
      <point x="423" y="1049"/>
      <point x="600" y="1049" type="curve" smooth="yes"/>
      <point x="805" y="1049"/>
      <point x="927" y="944"/>
      <point x="889" y="727" type="curve" smooth="yes"/>
      <point x="761" y="0" type="line"/>
      <point x="815" y="0" type="line"/>
      <point x="942" y="720" type="line" smooth="yes"/>
      <point x="960" y="823"/>
      <point x="1125" y="1045"/>
      <point x="1384" y="1049" type="curve" smooth="yes"/>
      <point x="1589" y="1052"/>
      <point x="1661" y="939"/>
      <point x="1619" y="702" type="curve" smooth="yes"/>
      <point x="1495" y="0" type="line"/>
      <point x="1549" y="0" type="line"/>
      <point x="1674" y="706" type="line" smooth="yes"/>
      <point x="1721" y="970"/>
      <point x="1630" y="1102"/>
      <point x="1397" y="1102" type="curve" smooth="yes"/>
      <point x="1218" y="1102"/>
      <point x="1045" y="1002"/>
      <point x="953" y="846" type="curve"/>
      <point x="949" y="1027"/>
      <point x="794" y="1102"/>
      <point x="613" y="1102" type="curve" smooth="yes"/>
      <point x="394" y="1102"/>
      <point x="193" y="920"/>
      <point x="151" y="683" type="curve" smooth="yes"/>
    </contour>
    <contour>
      <point x="1271" y="-267" type="curve" smooth="yes"/>
      <point x="1396" y="-267"/>
      <point x="1510" y="-170"/>
      <point x="1532" y="-46" type="curve" smooth="yes"/>
      <point x="1554" y="79"/>
      <point x="1475" y="181"/>
      <point x="1350" y="181" type="curve" smooth="yes"/>
      <point x="1229" y="181"/>
      <point x="1111" y="84"/>
      <point x="1088" y="-46" type="curve" smooth="yes"/>
      <point x="1065" y="-176"/>
      <point x="1151" y="-267"/>
    </contour>
    <contour>
      <point x="1277" y="-229" type="curve" smooth="yes"/>
      <point x="1175" y="-229"/>
      <point x="1115" y="-158"/>
      <point x="1133" y="-55" type="curve" smooth="yes"/>
      <point x="1152" y="53"/>
      <point x="1237" y="125"/>
      <point x="1339" y="125" type="curve" smooth="yes"/>
      <point x="1441" y="125"/>
      <point x="1502" y="53"/>
      <point x="1483" y="-55" type="curve" smooth="yes"/>
      <point x="1465" y="-158"/>
      <point x="1379" y="-229"/>
    </contour>
  </outline>
</glyph>
<glyph name="chu-ethiopic" format="2">
  <advance width="1956"/>
  <unicode hex="1329"/>
  <outline>
    <contour>
      <point x="30" y="0" type="line"/>
      <point x="85" y="0" type="line"/>
      <point x="206" y="684" type="line" smooth="yes"/>
      <point x="240" y="875"/>
      <point x="423" y="1049"/>
      <point x="600" y="1049" type="curve" smooth="yes"/>
      <point x="805" y="1049"/>
      <point x="927" y="944"/>
      <point x="889" y="727" type="curve" smooth="yes"/>
      <point x="761" y="0" type="line"/>
      <point x="815" y="0" type="line"/>
      <point x="942" y="720" type="line" smooth="yes"/>
      <point x="960" y="823"/>
      <point x="1125" y="1045"/>
      <point x="1384" y="1049" type="curve" smooth="yes"/>
      <point x="1589" y="1052"/>
      <point x="1661" y="939"/>
      <point x="1619" y="702" type="curve" smooth="yes"/>
      <point x="1495" y="0" type="line"/>
      <point x="1549" y="0" type="line"/>
      <point x="1674" y="706" type="line" smooth="yes"/>
      <point x="1721" y="970"/>
      <point x="1630" y="1102"/>
      <point x="1397" y="1102" type="curve" smooth="yes"/>
      <point x="1218" y="1102"/>
      <point x="1045" y="1002"/>
      <point x="953" y="846" type="curve"/>
      <point x="949" y="1027"/>
      <point x="794" y="1102"/>
      <point x="613" y="1102" type="curve" smooth="yes"/>
      <point x="394" y="1102"/>
      <point x="193" y="920"/>
      <point x="151" y="683" type="curve" smooth="yes"/>
    </contour>
    <contour>
      <point x="1743" y="618" type="curve" smooth="yes"/>
      <point x="1774" y="618"/>
      <point x="1803" y="642"/>
      <point x="1808" y="673" type="curve" smooth="yes"/>
      <point x="1814" y="704"/>
      <point x="1793" y="729"/>
      <point x="1762" y="729" type="curve" smooth="yes"/>
      <point x="1731" y="729"/>
      <point x="1703" y="704"/>
      <point x="1697" y="673" type="curve" smooth="yes"/>
      <point x="1692" y="642"/>
      <point x="1712" y="618"/>
    </contour>
    <contour>
      <point x="119" y="-20"/>
      <point x="230" y="-19"/>
      <point x="242" y="53" type="curve" smooth="yes"/>
      <point x="256" y="126"/>
      <point x="145" y="127"/>
      <point x="131" y="53" type="curve" smooth="yes"/>
    </contour>
    <contour>
      <point x="1350" y="-17"/>
      <point x="1461" y="-18"/>
      <point x="1475" y="55" type="curve" smooth="yes"/>
      <point x="1487" y="130"/>
      <point x="1376" y="130"/>
      <point x="1364" y="55" type="curve" smooth="yes"/>
    </contour>
  </outline>
</glyph>
<glyph name="phee-ethiopic" format="2">
  <advance width="1106"/>
  <unicode hex="1334"/>
  <outline>
    <contour>
      <point x="-22" y="0" type="line"/>
      <point x="33" y="0" type="line"/>
      <point x="83" y="285" type="line" smooth="yes"/>
      <point x="104" y="403"/>
      <point x="239" y="530"/>
      <point x="447" y="530" type="curve" smooth="yes"/>
      <point x="656" y="530"/>
      <point x="746" y="403"/>
      <point x="725" y="285" type="curve" smooth="yes"/>
      <point x="675" y="0" type="line"/>
      <point x="729" y="0" type="line"/>
      <point x="781" y="292" type="line" smooth="yes"/>
      <point x="809" y="447"/>
      <point x="674" y="515"/>
      <point x="553" y="554" type="curve"/>
      <point x="765" y="610"/>
      <point x="850" y="690"/>
      <point x="874" y="829" type="curve" smooth="yes"/>
      <point x="902" y="988"/>
      <point x="776" y="1102"/>
      <point x="561" y="1102" type="curve" smooth="yes"/>
      <point x="321" y="1102"/>
      <point x="153" y="988"/>
      <point x="125" y="829" type="curve" smooth="yes"/>
      <point x="101" y="690"/>
      <point x="158" y="610"/>
      <point x="350" y="554" type="curve"/>
      <point x="217" y="516"/>
      <point x="58" y="452"/>
      <point x="30" y="292" type="curve" smooth="yes"/>
    </contour>
    <contour>
      <point x="456" y="581" type="curve" smooth="yes"/>
      <point x="289" y="581"/>
      <point x="152" y="672"/>
      <point x="180" y="831" type="curve" smooth="yes"/>
      <point x="202" y="955"/>
      <point x="337" y="1048"/>
      <point x="551" y="1048" type="curve" smooth="yes"/>
      <point x="740" y="1048"/>
      <point x="843" y="955"/>
      <point x="821" y="831" type="curve" smooth="yes"/>
      <point x="793" y="672"/>
      <point x="624" y="581"/>
    </contour>
    <contour>
      <point x="485" y="-337" type="curve" smooth="yes"/>
      <point x="610" y="-337"/>
      <point x="724" y="-240"/>
      <point x="746" y="-116" type="curve" smooth="yes"/>
      <point x="768" y="9"/>
      <point x="689" y="111"/>
      <point x="564" y="111" type="curve" smooth="yes"/>
      <point x="443" y="111"/>
      <point x="325" y="14"/>
      <point x="302" y="-116" type="curve" smooth="yes"/>
      <point x="279" y="-246"/>
      <point x="365" y="-337"/>
    </contour>
    <contour>
      <point x="491" y="-299" type="curve" smooth="yes"/>
      <point x="389" y="-299"/>
      <point x="329" y="-228"/>
      <point x="347" y="-125" type="curve" smooth="yes"/>
      <point x="366" y="-17"/>
      <point x="451" y="55"/>
      <point x="553" y="55" type="curve" smooth="yes"/>
      <point x="655" y="55"/>
      <point x="716" y="-17"/>
      <point x="697" y="-125" type="curve" smooth="yes"/>
      <point x="679" y="-228"/>
      <point x="593" y="-299"/>
    </contour>
    <contour>
      <point x="536" y="1113" type="line"/>
      <point x="596" y="1113" type="line"/>
      <point x="643" y="1379" type="line"/>
      <point x="583" y="1379" type="line"/>
    </contour>
  </outline>
</glyph>
<glyph name="tsaa-ethiopic" format="2">
  <advance width="1106"/>
  <unicode hex="133B"/>
  <outline>
    <contour>
      <point x="-22" y="0" type="line"/>
      <point x="33" y="0" type="line"/>
      <point x="83" y="285" type="line" smooth="yes"/>
      <point x="104" y="403"/>
      <point x="239" y="530"/>
      <point x="447" y="530" type="curve" smooth="yes"/>
      <point x="656" y="530"/>
      <point x="746" y="403"/>
      <point x="725" y="285" type="curve" smooth="yes"/>
      <point x="675" y="0" type="line"/>
      <point x="729" y="0" type="line"/>
      <point x="781" y="292" type="line" smooth="yes"/>
      <point x="809" y="447"/>
      <point x="674" y="515"/>
      <point x="553" y="554" type="curve"/>
      <point x="765" y="610"/>
      <point x="850" y="690"/>
      <point x="874" y="829" type="curve" smooth="yes"/>
      <point x="902" y="988"/>
      <point x="776" y="1102"/>
      <point x="561" y="1102" type="curve" smooth="yes"/>
      <point x="321" y="1102"/>
      <point x="153" y="988"/>
      <point x="125" y="829" type="curve" smooth="yes"/>
      <point x="101" y="690"/>
      <point x="158" y="610"/>
      <point x="350" y="554" type="curve"/>
      <point x="217" y="516"/>
      <point x="58" y="452"/>
      <point x="30" y="292" type="curve" smooth="yes"/>
    </contour>
    <contour>
      <point x="456" y="581" type="curve" smooth="yes"/>
      <point x="289" y="581"/>
      <point x="152" y="672"/>
      <point x="180" y="831" type="curve" smooth="yes"/>
      <point x="202" y="955"/>
      <point x="337" y="1048"/>
      <point x="551" y="1048" type="curve" smooth="yes"/>
      <point x="740" y="1048"/>
      <point x="843" y="955"/>
      <point x="821" y="831" type="curve" smooth="yes"/>
      <point x="793" y="672"/>
      <point x="624" y="581"/>
    </contour>
    <contour>
      <point x="610" y="-362" type="line"/>
      <point x="667" y="-362" type="line"/>
      <point x="729" y="-8" type="line"/>
      <point x="672" y="-8" type="line"/>
    </contour>
  </outline>
</glyph>
<glyph name="tzaa-ethiopic" format="2">
  <advance width="1248"/>
  <unicode hex="1343"/>
  <outline>
    <contour>
      <point x="431" y="-20" type="curve" smooth="yes"/>
      <point x="615" y="-20"/>
      <point x="782" y="77"/>
      <point x="890" y="241" type="curve" smooth="yes"/>
      <point x="944" y="323"/>
      <point x="981" y="416"/>
      <point x="998" y="520" type="curve" smooth="yes"/>
      <point x="1006" y="568" type="line" smooth="yes"/>
      <point x="1056" y="869"/>
      <point x="917" y="1102"/>
      <point x="627" y="1102" type="curve" smooth="yes"/>
      <point x="444" y="1102"/>
      <point x="275" y="1005"/>
      <point x="167" y="841" type="curve" smooth="yes"/>
      <point x="113" y="758"/>
      <point x="75" y="665"/>
      <point x="58" y="562" type="curve" smooth="yes"/>
      <point x="50" y="514" type="line" smooth="yes"/>
      <point x="-12" y="139"/>
      <point x="206" y="-20"/>
    </contour>
    <contour>
      <point x="440" y="34" type="curve" smooth="yes"/>
      <point x="176" y="34"/>
      <point x="59" y="261"/>
      <point x="105" y="520" type="curve" smooth="yes"/>
      <point x="161" y="837"/>
      <point x="370" y="1048"/>
      <point x="617" y="1048" type="curve" smooth="yes"/>
      <point x="878" y="1048"/>
      <point x="996" y="818"/>
      <point x="946" y="531" type="curve" smooth="yes"/>
      <point x="894" y="239"/>
      <point x="687" y="34"/>
    </contour>
    <contour>
      <point x="643" y="-356" type="line"/>
      <point x="700" y="-356" type="line"/>
      <point x="762" y="-2" type="line"/>
      <point x="705" y="-2" type="line"/>
    </contour>
    <contour>
      <point x="117" y="449" type="line"/>
      <point x="902" y="449" type="line"/>
      <point x="911" y="503" type="line"/>
      <point x="126" y="503" type="line"/>
    </contour>
  </outline>
</glyph>
<glyph name="tzoa-ethiopic" format="2">
  <advance width="1248"/>
  <unicode hex="1347"/>
  <outline>
    <contour>
      <point x="431" y="-20" type="curve" smooth="yes"/>
      <point x="615" y="-20"/>
      <point x="782" y="77"/>
      <point x="890" y="241" type="curve" smooth="yes"/>
      <point x="944" y="323"/>
      <point x="981" y="416"/>
      <point x="998" y="520" type="curve" smooth="yes"/>
      <point x="1006" y="568" type="line" smooth="yes"/>
      <point x="1056" y="869"/>
      <point x="917" y="1102"/>
      <point x="627" y="1102" type="curve" smooth="yes"/>
      <point x="444" y="1102"/>
      <point x="275" y="1005"/>
      <point x="167" y="841" type="curve" smooth="yes"/>
      <point x="113" y="758"/>
      <point x="75" y="665"/>
      <point x="58" y="562" type="curve" smooth="yes"/>
      <point x="50" y="514" type="line" smooth="yes"/>
      <point x="-12" y="139"/>
      <point x="206" y="-20"/>
    </contour>
    <contour>
      <point x="440" y="34" type="curve" smooth="yes"/>
      <point x="176" y="34"/>
      <point x="59" y="261"/>
      <point x="105" y="520" type="curve" smooth="yes"/>
      <point x="161" y="837"/>
      <point x="370" y="1048"/>
      <point x="617" y="1048" type="curve" smooth="yes"/>
      <point x="878" y="1048"/>
      <point x="996" y="818"/>
      <point x="946" y="531" type="curve" smooth="yes"/>
      <point x="894" y="239"/>
      <point x="687" y="34"/>
    </contour>
    <contour>
      <point x="310" y="-280" type="line"/>
      <point x="847" y="-280" type="line"/>
      <point x="829" y="-385" type="line"/>
      <point x="864" y="-385" type="line"/>
      <point x="890" y="-238" type="line"/>
      <point x="685" y="-238" type="line"/>
      <point x="739" y="-17" type="line"/>
      <point x="682" y="-17" type="line"/>
      <point x="628" y="-238" type="line"/>
      <point x="318" y="-238" type="line"/>
    </contour>
    <contour>
      <point x="117" y="449" type="line"/>
      <point x="902" y="449" type="line"/>
      <point x="911" y="503" type="line"/>
      <point x="126" y="503" type="line"/>
    </contour>
  </outline>
</glyph>
<glyph name="fu-ethiopic" format="2">
  <advance width="1156"/>
  <unicode hex="1349"/>
  <outline>
    <contour>
      <point x="432" y="-20" type="curve" smooth="yes"/>
      <point x="634" y="-20"/>
      <point x="866" y="155"/>
      <point x="924" y="276" type="curve"/>
      <point x="863" y="276" type="line"/>
      <point x="828" y="188"/>
      <point x="613" y="34"/>
      <point x="421" y="34" type="curve" smooth="yes"/>
      <point x="150" y="34"/>
      <point x="155" y="270"/>
      <point x="199" y="517" type="curve" smooth="yes"/>
      <point x="299" y="1082" type="line"/>
      <point x="244" y="1082" type="line"/>
      <point x="146" y="524" type="line" smooth="yes"/>
      <point x="87" y="187"/>
      <point x="139" y="-20"/>
    </contour>
    <contour>
      <point x="564" y="542" type="line"/>
      <point x="414" y="543" type="line"/>
      <point x="414" y="501" type="line"/>
      <point x="497" y="501" type="line"/>
      <point x="412" y="31" type="line"/>
      <point x="471" y="31" type="line"/>
    </contour>
    <contour>
      <point x="265" y="-354" type="line"/>
      <point x="325" y="-354" type="line"/>
      <point x="567" y="-88" type="line"/>
      <point x="501" y="-88" type="line"/>
    </contour>
  </outline>
</glyph>
<glyph name="faa-ethiopic" format="2">
  <advance width="1156"/>
  <unicode hex="134B"/>
  <outline>
    <contour>
      <point x="432" y="-20" type="curve" smooth="yes"/>
      <point x="634" y="-20"/>
      <point x="866" y="155"/>
      <point x="924" y="276" type="curve"/>
      <point x="863" y="276" type="line"/>
      <point x="828" y="188"/>
      <point x="613" y="34"/>
      <point x="421" y="34" type="curve" smooth="yes"/>
      <point x="150" y="34"/>
      <point x="155" y="270"/>
      <point x="199" y="517" type="curve" smooth="yes"/>
      <point x="299" y="1082" type="line"/>
      <point x="244" y="1082" type="line"/>
      <point x="146" y="524" type="line" smooth="yes"/>
      <point x="87" y="187"/>
      <point x="139" y="-20"/>
    </contour>
    <contour>
      <point x="564" y="542" type="line"/>
      <point x="414" y="543" type="line"/>
      <point x="414" y="501" type="line"/>
      <point x="497" y="501" type="line"/>
      <point x="412" y="31" type="line"/>
      <point x="471" y="31" type="line"/>
    </contour>
    <contour>
      <point x="407" y="-449" type="line"/>
      <point x="464" y="-449" type="line"/>
      <point x="526" y="-95" type="line"/>
      <point x="469" y="-95" type="line"/>
    </contour>
  </outline>
</glyph>
<glyph name="fee-ethiopic" format="2">
  <advance width="1156"/>
  <unicode hex="134C"/>
  <outline>
    <contour>
      <point x="432" y="-20" type="curve" smooth="yes"/>
      <point x="634" y="-20"/>
      <point x="866" y="155"/>
      <point x="924" y="276" type="curve"/>
      <point x="863" y="276" type="line"/>
      <point x="828" y="188"/>
      <point x="613" y="34"/>
      <point x="421" y="34" type="curve" smooth="yes"/>
      <point x="150" y="34"/>
      <point x="155" y="270"/>
      <point x="199" y="517" type="curve" smooth="yes"/>
      <point x="299" y="1082" type="line"/>
      <point x="244" y="1082" type="line"/>
      <point x="146" y="524" type="line" smooth="yes"/>
      <point x="87" y="187"/>
      <point x="139" y="-20"/>
    </contour>
    <contour>
      <point x="564" y="542" type="line"/>
      <point x="414" y="543" type="line"/>
      <point x="414" y="501" type="line"/>
      <point x="497" y="501" type="line"/>
      <point x="412" y="31" type="line"/>
      <point x="471" y="31" type="line"/>
    </contour>
    <contour>
      <point x="743" y="203" type="curve" smooth="yes"/>
      <point x="868" y="203"/>
      <point x="982" y="300"/>
      <point x="1004" y="424" type="curve" smooth="yes"/>
      <point x="1026" y="549"/>
      <point x="947" y="651"/>
      <point x="822" y="651" type="curve" smooth="yes"/>
      <point x="701" y="651"/>
      <point x="583" y="554"/>
      <point x="560" y="424" type="curve" smooth="yes"/>
      <point x="537" y="294"/>
      <point x="623" y="203"/>
    </contour>
    <contour>
      <point x="749" y="241" type="curve" smooth="yes"/>
      <point x="647" y="241"/>
      <point x="587" y="312"/>
      <point x="605" y="415" type="curve" smooth="yes"/>
      <point x="624" y="523"/>
      <point x="709" y="595"/>
      <point x="811" y="595" type="curve" smooth="yes"/>
      <point x="913" y="595"/>
      <point x="974" y="523"/>
      <point x="955" y="415" type="curve" smooth="yes"/>
      <point x="937" y="312"/>
      <point x="851" y="241"/>
    </contour>
  </outline>
</glyph>
<glyph name="fo-ethiopic" format="2">
  <advance width="1156"/>
  <unicode hex="134E"/>
  <outline>
    <contour>
      <point x="432" y="-20" type="curve" smooth="yes"/>
      <point x="634" y="-20"/>
      <point x="866" y="155"/>
      <point x="924" y="276" type="curve"/>
      <point x="863" y="276" type="line"/>
      <point x="828" y="188"/>
      <point x="613" y="34"/>
      <point x="421" y="34" type="curve" smooth="yes"/>
      <point x="150" y="34"/>
      <point x="155" y="270"/>
      <point x="199" y="517" type="curve" smooth="yes"/>
      <point x="299" y="1082" type="line"/>
      <point x="244" y="1082" type="line"/>
      <point x="146" y="524" type="line" smooth="yes"/>
      <point x="87" y="187"/>
      <point x="139" y="-20"/>
    </contour>
    <contour>
      <point x="564" y="542" type="line"/>
      <point x="414" y="543" type="line"/>
      <point x="414" y="501" type="line"/>
      <point x="497" y="501" type="line"/>
      <point x="412" y="31" type="line"/>
      <point x="471" y="31" type="line"/>
    </contour>
    <contour>
      <point x="602" y="752" type="curve" smooth="yes"/>
      <point x="727" y="752"/>
      <point x="841" y="849"/>
      <point x="863" y="973" type="curve" smooth="yes"/>
      <point x="885" y="1098"/>
      <point x="806" y="1200"/>
      <point x="681" y="1200" type="curve" smooth="yes"/>
      <point x="560" y="1200"/>
      <point x="442" y="1103"/>
      <point x="419" y="973" type="curve" smooth="yes"/>
      <point x="396" y="843"/>
      <point x="482" y="752"/>
    </contour>
    <contour>
      <point x="608" y="790" type="curve" smooth="yes"/>
      <point x="506" y="790"/>
      <point x="445" y="861"/>
      <point x="463" y="964" type="curve" smooth="yes"/>
      <point x="483" y="1072"/>
      <point x="568" y="1144"/>
      <point x="670" y="1144" type="curve" smooth="yes"/>
      <point x="772" y="1144"/>
      <point x="833" y="1072"/>
      <point x="813" y="964" type="curve" smooth="yes"/>
      <point x="795" y="861"/>
      <point x="710" y="790"/>
    </contour>
  </outline>
</glyph>
<glyph name="fwa-ethiopic" format="2">
  <advance width="1156"/>
  <unicode hex="134F"/>
  <outline>
    <contour>
      <point x="432" y="-20" type="curve" smooth="yes"/>
      <point x="634" y="-20"/>
      <point x="866" y="155"/>
      <point x="924" y="276" type="curve"/>
      <point x="863" y="276" type="line"/>
      <point x="828" y="188"/>
      <point x="613" y="34"/>
      <point x="421" y="34" type="curve" smooth="yes"/>
      <point x="150" y="34"/>
      <point x="155" y="270"/>
      <point x="199" y="517" type="curve" smooth="yes"/>
      <point x="299" y="1082" type="line"/>
      <point x="244" y="1082" type="line"/>
      <point x="146" y="524" type="line" smooth="yes"/>
      <point x="87" y="187"/>
      <point x="139" y="-20"/>
    </contour>
    <contour>
      <point x="564" y="542" type="line"/>
      <point x="414" y="543" type="line"/>
      <point x="414" y="501" type="line"/>
      <point x="497" y="501" type="line"/>
      <point x="412" y="31" type="line"/>
      <point x="471" y="31" type="line"/>
    </contour>
    <contour>
      <point x="239" y="1048" type="line"/>
      <point x="754" y="1048" type="line"/>
      <point x="762" y="1092" type="line"/>
      <point x="247" y="1092" type="line"/>
    </contour>
    <component base="_smart.hwa" xOffset="565" yOffset="-388"/>
  </outline>
</glyph>
<glyph name="pa-ethiopic" format="2">
  <advance width="735"/>
  <unicode hex="1350"/>
  <outline>
    <contour>
      <point x="162" y="0" type="line"/>
      <point x="343" y="1027" type="line"/>
      <point x="589" y="1027" type="line"/>
      <point x="599" y="1082" type="line"/>
      <point x="98" y="1082" type="line"/>
      <point x="88" y="1027" type="line"/>
      <point x="288" y="1027" type="line"/>
      <point x="107" y="0" type="line"/>
    </contour>
  </outline>
</glyph>
<glyph name="pu-ethiopic" format="2">
  <advance width="735"/>
  <unicode hex="1351"/>
  <outline>
    <contour>
      <point x="162" y="0" type="line"/>
      <point x="343" y="1027" type="line"/>
      <point x="589" y="1027" type="line"/>
      <point x="599" y="1082" type="line"/>
      <point x="98" y="1082" type="line"/>
      <point x="88" y="1027" type="line"/>
      <point x="288" y="1027" type="line"/>
      <point x="107" y="0" type="line"/>
    </contour>
    <contour>
      <point x="348" y="624" type="curve" smooth="yes"/>
      <point x="379" y="624"/>
      <point x="408" y="648"/>
      <point x="413" y="679" type="curve" smooth="yes"/>
      <point x="419" y="710"/>
      <point x="398" y="735"/>
      <point x="367" y="735" type="curve" smooth="yes"/>
      <point x="336" y="735"/>
      <point x="308" y="710"/>
      <point x="302" y="679" type="curve" smooth="yes"/>
      <point x="297" y="648"/>
      <point x="317" y="624"/>
    </contour>
  </outline>
</glyph>
<glyph name="pi-ethiopic" format="2">
  <advance width="735"/>
  <unicode hex="1352"/>
  <outline>
    <contour>
      <point x="162" y="0" type="line"/>
      <point x="343" y="1027" type="line"/>
      <point x="589" y="1027" type="line"/>
      <point x="599" y="1082" type="line"/>
      <point x="98" y="1082" type="line"/>
      <point x="88" y="1027" type="line"/>
      <point x="288" y="1027" type="line"/>
      <point x="107" y="0" type="line"/>
    </contour>
    <contour>
      <point x="248" y="-5" type="curve" smooth="yes"/>
      <point x="279" y="-5"/>
      <point x="308" y="19"/>
      <point x="314" y="50" type="curve" smooth="yes"/>
      <point x="319" y="81"/>
      <point x="298" y="106"/>
      <point x="267" y="106" type="curve" smooth="yes"/>
      <point x="236" y="106"/>
      <point x="208" y="81"/>
      <point x="203" y="50" type="curve" smooth="yes"/>
      <point x="197" y="19"/>
      <point x="217" y="-5"/>
    </contour>
  </outline>
</glyph>
<glyph name="paa-ethiopic" format="2">
  <advance width="762"/>
  <unicode hex="1353"/>
  <outline>
    <contour>
      <point x="-93" y="0" type="line"/>
      <point x="164" y="0" type="line"/>
      <point x="172" y="45" type="line"/>
      <point x="-85" y="45" type="line"/>
    </contour>
    <contour>
      <point x="189" y="0" type="line"/>
      <point x="370" y="1027" type="line"/>
      <point x="616" y="1027" type="line"/>
      <point x="626" y="1082" type="line"/>
      <point x="125" y="1082" type="line"/>
      <point x="115" y="1027" type="line"/>
      <point x="315" y="1027" type="line"/>
      <point x="134" y="0" type="line"/>
    </contour>
  </outline>
</glyph>
<glyph name="pe-ethiopic" format="2">
  <advance width="735"/>
  <unicode hex="1355"/>
  <outline>
    <contour>
      <point x="162" y="0" type="line"/>
      <point x="343" y="1027" type="line"/>
      <point x="589" y="1027" type="line"/>
      <point x="599" y="1082" type="line"/>
      <point x="98" y="1082" type="line"/>
      <point x="88" y="1027" type="line"/>
      <point x="288" y="1027" type="line"/>
      <point x="107" y="0" type="line"/>
    </contour>
    <contour>
      <point x="177" y="-314" type="line"/>
      <point x="234" y="-314" type="line"/>
      <point x="296" y="40" type="line"/>
      <point x="239" y="40" type="line"/>
    </contour>
  </outline>
</glyph>
<glyph name="po-ethiopic" format="2">
  <advance width="735"/>
  <unicode hex="1356"/>
  <outline>
    <contour>
      <point x="162" y="0" type="line"/>
      <point x="343" y="1027" type="line"/>
      <point x="589" y="1027" type="line"/>
      <point x="599" y="1082" type="line"/>
      <point x="98" y="1082" type="line"/>
      <point x="88" y="1027" type="line"/>
      <point x="288" y="1027" type="line"/>
      <point x="107" y="0" type="line"/>
    </contour>
    <contour>
      <point x="-139" y="-274" type="line"/>
      <point x="-79" y="-274" type="line"/>
      <point x="163" y="-8" type="line"/>
      <point x="97" y="-8" type="line"/>
    </contour>
  </outline>
</glyph>
<glyph name="rya-ethiopic" format="2">
  <advance width="1156"/>
  <unicode hex="1358"/>
  <outline>
    <contour>
      <point x="432" y="-20" type="curve" smooth="yes"/>
      <point x="634" y="-20"/>
      <point x="866" y="155"/>
      <point x="924" y="276" type="curve"/>
      <point x="863" y="276" type="line"/>
      <point x="828" y="188"/>
      <point x="613" y="34"/>
      <point x="421" y="34" type="curve" smooth="yes"/>
      <point x="150" y="34"/>
      <point x="155" y="270"/>
      <point x="199" y="517" type="curve" smooth="yes"/>
      <point x="299" y="1082" type="line"/>
      <point x="244" y="1082" type="line"/>
      <point x="146" y="524" type="line" smooth="yes"/>
      <point x="87" y="187"/>
      <point x="139" y="-20"/>
    </contour>
    <contour>
      <point x="95" y="1138" type="line"/>
      <point x="610" y="1138" type="line"/>
      <point x="618" y="1182" type="line"/>
      <point x="103" y="1182" type="line"/>
    </contour>
    <contour>
      <point x="921" y="294" type="line"/>
      <point x="967" y="560" type="line"/>
      <point x="800" y="560" type="line"/>
      <point x="792" y="512" type="line"/>
      <point x="909" y="512" type="line"/>
      <point x="871" y="294" type="line"/>
    </contour>
  </outline>
</glyph>
<glyph name="semicolon-ethiopic" format="2">
  <advance width="556"/>
  <unicode hex="1364"/>
  <outline>
    <contour>
      <point x="121" y="1215" type="line"/>
      <point x="441" y="1215" type="line"/>
      <point x="452" y="1273" type="line"/>
      <point x="132" y="1273" type="line"/>
    </contour>
    <contour>
      <point x="-149" y="-272" type="line"/>
      <point x="175" y="-272" type="line"/>
      <point x="187" y="-204" type="line"/>
      <point x="-137" y="-204" type="line"/>
    </contour>
    <component base="period" xOffset="21" yOffset="883"/>
    <component base="period" xOffset="20"/>
  </outline>
</glyph>
<glyph name="question-ethiopic" format="2">
  <advance width="556"/>
  <unicode hex="1367"/>
  <outline>
    <contour>
      <point x="149" y="555" type="curve" smooth="yes"/>
      <point x="180" y="555"/>
      <point x="209" y="579"/>
      <point x="215" y="610" type="curve" smooth="yes"/>
      <point x="220" y="641"/>
      <point x="200" y="666"/>
      <point x="169" y="666" type="curve" smooth="yes"/>
      <point x="138" y="666"/>
      <point x="109" y="641"/>
      <point x="104" y="610" type="curve" smooth="yes"/>
      <point x="98" y="579"/>
      <point x="118" y="555"/>
    </contour>
    <component base="period" xOffset="90" yOffset="20"/>
    <component base="period" xOffset="81" yOffset="903"/>
  </outline>
</glyph>
<glyph name="paragraphseparator-ethiopic" format="2">
  <advance width="1337"/>
  <unicode hex="1368"/>
  <outline>
    <contour>
      <point x="938" y="723" type="curve" smooth="yes"/>
      <point x="967" y="738"/>
      <point x="983" y="773"/>
      <point x="972" y="800" type="curve" smooth="yes"/>
      <point x="962" y="826"/>
      <point x="928" y="835"/>
      <point x="900" y="819" type="curve" smooth="yes"/>
      <point x="870" y="804"/>
      <point x="855" y="771"/>
      <point x="866" y="744" type="curve" smooth="yes"/>
      <point x="877" y="718"/>
      <point x="909" y="708"/>
    </contour>
    <contour>
      <point x="95" y="283" type="curve" smooth="yes"/>
      <point x="125" y="298"/>
      <point x="140" y="333"/>
      <point x="130" y="360" type="curve" smooth="yes"/>
      <point x="119" y="386"/>
      <point x="86" y="395"/>
      <point x="57" y="379" type="curve" smooth="yes"/>
      <point x="27" y="364"/>
      <point x="13" y="331"/>
      <point x="24" y="304" type="curve" smooth="yes"/>
      <point x="34" y="278"/>
      <point x="66" y="268"/>
    </contour>
    <contour>
      <point x="416" y="-6" type="curve" smooth="yes"/>
      <point x="447" y="-6"/>
      <point x="476" y="18"/>
      <point x="482" y="49" type="curve" smooth="yes"/>
      <point x="487" y="80"/>
      <point x="467" y="105"/>
      <point x="436" y="105" type="curve" smooth="yes"/>
      <point x="405" y="105"/>
      <point x="376" y="80"/>
      <point x="371" y="49" type="curve" smooth="yes"/>
      <point x="365" y="18"/>
      <point x="385" y="-6"/>
    </contour>
    <contour>
      <point x="148" y="705" type="curve" smooth="yes"/>
      <point x="175" y="695"/>
      <point x="211" y="711"/>
      <point x="226" y="740" type="curve" smooth="yes"/>
      <point x="240" y="769"/>
      <point x="229" y="800"/>
      <point x="202" y="810" type="curve" smooth="yes"/>
      <point x="175" y="820"/>
      <point x="142" y="805"/>
      <point x="127" y="776" type="curve" smooth="yes"/>
      <point x="112" y="747"/>
      <point x="120" y="715"/>
    </contour>
    <contour>
      <point x="501" y="479" type="curve" smooth="yes"/>
      <point x="532" y="479"/>
      <point x="561" y="503"/>
      <point x="566" y="534" type="curve" smooth="yes"/>
      <point x="572" y="565"/>
      <point x="551" y="590"/>
      <point x="520" y="590" type="curve" smooth="yes"/>
      <point x="489" y="590"/>
      <point x="461" y="565"/>
      <point x="455" y="534" type="curve" smooth="yes"/>
      <point x="450" y="503"/>
      <point x="470" y="479"/>
    </contour>
    <contour>
      <point x="932" y="417" type="curve" smooth="yes"/>
      <point x="959" y="407"/>
      <point x="995" y="423"/>
      <point x="1010" y="452" type="curve" smooth="yes"/>
      <point x="1024" y="481"/>
      <point x="1013" y="512"/>
      <point x="986" y="522" type="curve" smooth="yes"/>
      <point x="959" y="532"/>
      <point x="926" y="517"/>
      <point x="911" y="488" type="curve" smooth="yes"/>
      <point x="896" y="459"/>
      <point x="905" y="427"/>
    </contour>
    <contour>
      <point x="573" y="877" type="curve" smooth="yes"/>
      <point x="604" y="877"/>
      <point x="633" y="901"/>
      <point x="639" y="932" type="curve" smooth="yes"/>
      <point x="644" y="963"/>
      <point x="623" y="988"/>
      <point x="592" y="988" type="curve" smooth="yes"/>
      <point x="561" y="988"/>
      <point x="533" y="963"/>
      <point x="528" y="932" type="curve" smooth="yes"/>
      <point x="522" y="901"/>
      <point x="542" y="877"/>
    </contour>
  </outline>
</glyph>
<glyph name="thirty-ethiopic" format="2">
  <advance width="1425"/>
  <unicode hex="1374"/>
  <outline>
    <contour>
      <point x="122" y="-1" type="line"/>
      <point x="186" y="-1" type="line"/>
      <point x="325" y="828" type="line" smooth="yes"/>
      <point x="408" y="1323"/>
      <point x="459" y="1405"/>
      <point x="600" y="1404" type="curve" smooth="yes"/>
      <point x="708" y="1403"/>
      <point x="736" y="1368"/>
      <point x="621" y="714" type="curve" smooth="yes"/>
      <point x="501" y="38"/>
      <point x="557" y="-4"/>
      <point x="791" y="-1" type="curve" smooth="yes"/>
      <point x="931" y="1"/>
      <point x="990" y="91"/>
      <point x="1085" y="632" type="curve" smooth="yes"/>
      <point x="1230" y="1456" type="line"/>
      <point x="1175" y="1456" type="line"/>
      <point x="1022" y="587" type="line" smooth="yes"/>
      <point x="947" y="161"/>
      <point x="882" y="51"/>
      <point x="778" y="51" type="curve" smooth="yes"/>
      <point x="620" y="51"/>
      <point x="568" y="53"/>
      <point x="686" y="714" type="curve" smooth="yes"/>
      <point x="799" y="1349"/>
      <point x="848" y="1456"/>
      <point x="595" y="1456" type="curve" smooth="yes"/>
      <point x="396" y="1456"/>
      <point x="344" y="1261"/>
      <point x="267" y="823" type="curve" smooth="yes"/>
    </contour>
    <component base="_num.bar" xOffset="104"/>
  </outline>
</glyph>
<glyph name="seventy-ethiopic" format="2">
  <advance width="1150"/>
  <unicode hex="1378"/>
  <outline>
    <contour>
      <point x="368" y="-30" type="curve" smooth="yes"/>
      <point x="487" y="-30"/>
      <point x="591" y="12"/>
      <point x="677" y="91" type="curve"/>
      <point x="613" y="105" type="line"/>
      <point x="545" y="52"/>
      <point x="466" y="24"/>
      <point x="377" y="24" type="curve" smooth="yes"/>
      <point x="136" y="24"/>
      <point x="31" y="234"/>
      <point x="93" y="586" type="curve" smooth="yes"/>
      <point x="139" y="847" type="line" smooth="yes"/>
      <point x="202" y="1206"/>
      <point x="375" y="1413"/>
      <point x="620" y="1413" type="curve" smooth="yes"/>
      <point x="716" y="1413"/>
      <point x="790" y="1381"/>
      <point x="841" y="1320" type="curve"/>
      <point x="908" y="1329" type="line"/>
      <point x="851" y="1419"/>
      <point x="757" y="1467"/>
      <point x="630" y="1467" type="curve" smooth="yes"/>
      <point x="355" y="1467"/>
      <point x="153" y="1239"/>
      <point x="86" y="852" type="curve" smooth="yes"/>
      <point x="40" y="588" type="line" smooth="yes"/>
      <point x="-28" y="196"/>
      <point x="94" y="-30"/>
    </contour>
    <component base="_num.bar"/>
    <component base="ring" xOffset="494" yOffset="-192"/>
  </outline>
</glyph>
<glyph name="daggerdbl" format="2">
  <advance width="1141"/>
  <unicode hex="2021"/>
  <note>
uni2021
</note>
  <outline>
    <contour>
      <point x="271" y="-416" type="line"/>
      <point x="326" y="-416" type="line"/>
      <point x="399" y="0" type="line"/>
      <point x="880" y="0" type="line"/>
      <point x="890" y="54" type="line"/>
      <point x="409" y="54" type="line"/>
      <point x="580" y="1027" type="line"/>
      <point x="1061" y="1027" type="line"/>
      <point x="1071" y="1082" type="line"/>
      <point x="590" y="1082" type="line"/>
      <point x="656" y="1456" type="line"/>
      <point x="601" y="1456" type="line"/>
      <point x="535" y="1082" type="line"/>
      <point x="82" y="1082" type="line"/>
      <point x="72" y="1027" type="line"/>
      <point x="525" y="1027" type="line"/>
      <point x="354" y="54" type="line"/>
      <point x="-99" y="54" type="line"/>
      <point x="-109" y="0" type="line"/>
      <point x="344" y="0" type="line"/>
    </contour>
  </outline>
</glyph>
<glyph name="guilsinglleft" format="2">
  <advance width="604"/>
  <unicode hex="2039"/>
  <note>
uni2039
</note>
  <outline>
    <contour>
      <point x="244" y="181" type="line"/>
      <point x="314" y="181" type="line"/>
      <point x="87" y="560" type="line"/>
      <point x="448" y="940" type="line"/>
      <point x="378" y="940" type="line"/>
      <point x="18" y="570" type="line"/>
      <point x="14" y="551" type="line"/>
    </contour>
  </outline>
</glyph>
<glyph name="guilsinglright" format="2">
  <advance width="604"/>
  <unicode hex="203A"/>
  <note>
uni203A
</note>
  <outline>
    <contour>
      <point x="-55" y="171" type="line"/>
      <point x="15" y="171" type="line"/>
      <point x="375" y="541" type="line"/>
      <point x="378" y="560" type="line"/>
      <point x="151" y="940" type="line"/>
      <point x="81" y="940" type="line"/>
      <point x="305" y="550" type="line"/>
    </contour>
  </outline>
</glyph>
<glyph name="fraction" format="2">
  <advance width="905"/>
  <unicode hex="2044"/>
  <note>
uni2044
</note>
  <outline>
    <contour>
      <point x="-58" y="131" type="line"/>
      <point x="854" y="1269" type="line"/>
      <point x="814" y="1300" type="line"/>
      <point x="-97" y="162" type="line"/>
    </contour>
  </outline>
</glyph>
<glyph name="euro" format="2">
  <advance width="1121"/>
  <unicode hex="20AC"/>
  <note>
uni20AC
</note>
  <outline>
    <contour>
      <point x="618" y="-21" type="curve" smooth="yes"/>
      <point x="694" y="-21"/>
      <point x="769" y="-11"/>
      <point x="843" y="10" type="curve"/>
      <point x="853" y="67" type="line"/>
      <point x="781" y="44"/>
      <point x="706" y="33"/>
      <point x="627" y="33" type="curve" smooth="yes"/>
      <point x="328" y="33"/>
      <point x="178" y="215"/>
      <point x="243" y="584" type="curve"/>
      <point x="698" y="584" type="line"/>
      <point x="708" y="639" type="line"/>
      <point x="253" y="639" type="line"/>
      <point x="287" y="830" type="line"/>
      <point x="742" y="830" type="line"/>
      <point x="751" y="886" type="line"/>
      <point x="296" y="886" type="line"/>
      <point x="361" y="1243"/>
      <point x="565" y="1422"/>
      <point x="870" y="1422" type="curve" smooth="yes"/>
      <point x="943" y="1422"/>
      <point x="1015" y="1410"/>
      <point x="1086" y="1387" type="curve"/>
      <point x="1096" y="1445" type="line"/>
      <point x="1016" y="1466"/>
      <point x="943" y="1476"/>
      <point x="879" y="1476" type="curve" smooth="yes"/>
      <point x="547" y="1476"/>
      <point x="313" y="1271"/>
      <point x="242" y="886" type="curve"/>
      <point x="37" y="886" type="line"/>
      <point x="28" y="830" type="line"/>
      <point x="233" y="830" type="line"/>
      <point x="199" y="639" type="line"/>
      <point x="-6" y="639" type="line"/>
      <point x="-16" y="584" type="line"/>
      <point x="189" y="584" type="line"/>
      <point x="119" y="186"/>
      <point x="286" y="-21"/>
    </contour>
  </outline>
</glyph>
<glyph name="summation" format="2">
  <advance width="1166"/>
  <unicode hex="2211"/>
  <note>
uni2211
</note>
  <outline>
    <contour>
      <point x="-181" y="-270" type="line"/>
      <point x="926" y="-270" type="line"/>
      <point x="935" y="-216" type="line"/>
      <point x="-96" y="-216" type="line"/>
      <point x="629" y="590" type="line"/>
      <point x="189" y="1403" type="line"/>
      <point x="1163" y="1403" type="line"/>
      <point x="1172" y="1456" type="line"/>
      <point x="123" y="1456" type="line"/>
      <point x="115" y="1412" type="line"/>
      <point x="567" y="592" type="line"/>
      <point x="-174" y="-227" type="line"/>
    </contour>
  </outline>
</glyph>
<glyph name="_smart.da" format="2">
  <anchor x="-229" y="156" name="_da"/>
  <outline>
    <contour>
      <point x="-132" y="99" type="line"/>
      <point x="599" y="99" type="line"/>
      <point x="608" y="153" type="line"/>
      <point x="-123" y="153" type="line"/>
    </contour>
  </outline>
</glyph>
<glyph name="_smart.eGl" format="2">
  <anchor x="231" y="1360" name="_eGl"/>
  <anchor x="703" y="80" name="_hee"/>
  <anchor x="1062.5" y="673" name="_hu"/>
  <outline>
    <contour>
      <point x="205" y="1342" type="line"/>
      <point x="257" y="1372" type="line"/>
      <point x="333" y="1724" type="line"/>
      <point x="276" y="1691" type="line"/>
    </contour>
  </outline>
</glyph>
<glyph name="_smart.fa" format="2">
  <anchor x="252" y="54" name="_fa"/>
  <outline>
    <contour>
      <point x="204" y="526" type="line"/>
      <point x="54" y="527" type="line"/>
      <point x="54" y="485" type="line"/>
      <point x="137.371" y="485" type="line"/>
      <point x="52" y="15" type="line"/>
      <point x="111" y="15" type="line"/>
    </contour>
  </outline>
</glyph>
<glyph name="_smart.ho" format="2">
  <anchor x="-133" y="350" name="_ho"/>
  <outline>
    <contour>
      <point x="-223" y="-4" type="line" name="❌"/>
      <point x="-166" y="-4" type="line" name="❌"/>
      <point x="-104" y="350" type="line"/>
      <point x="-161" y="350" type="line"/>
    </contour>
  </outline>
</glyph>
<glyph name="_smart.hwa" format="2">
  <anchor x="-126" y="368" name="_hwa"/>
  <outline>
    <contour>
      <point x="-537" y="88" type="line"/>
      <point x="0" y="88" type="line"/>
      <point x="-18" y="-17" type="line"/>
      <point x="17" y="-17" type="line"/>
      <point x="43" y="130" type="line"/>
      <point x="-162" y="130" type="line"/>
      <point x="-108" y="351" type="line"/>
      <point x="-165" y="351" type="line"/>
      <point x="-219" y="130" type="line"/>
      <point x="-529" y="130" type="line"/>
    </contour>
  </outline>
</glyph>
<glyph name="_smart.ka.caps" format="2">
  <anchor x="-692" y="1456" name="_ka.caps"/>
  <outline>
    <contour>
      <point x="-811" y="1386" type="line"/>
      <point x="-712" y="1436" type="line"/>
      <point x="-1118" y="1436" type="line"/>
      <point x="-1079" y="1654" type="line"/>
      <point x="-1154" y="1654" type="line"/>
      <point x="-1201" y="1386" type="line"/>
    </contour>
  </outline>
</glyph>
<glyph name="_smart.ka" format="2">
  <anchor x="-628" y="1035" name="_ka"/>
  <outline>
    <contour>
      <point x="-700" y="1056" type="line"/>
      <point x="-601" y="1099" type="line"/>
      <point x="-1018" y="1099" type="line"/>
      <point x="-978" y="1324" type="line"/>
      <point x="-1042" y="1324" type="line"/>
      <point x="-1090" y="1056" type="line"/>
    </contour>
  </outline>
</glyph>
<glyph name="_smart.nose" format="2">
  <anchor x="80" y="101" name="_nose"/>
  <outline>
    <contour>
      <point x="52" y="-48" type="curve" smooth="yes"/>
      <point x="83" y="-48"/>
      <point x="112" y="-24"/>
      <point x="117" y="7" type="curve" smooth="yes"/>
      <point x="123" y="38"/>
      <point x="102" y="63"/>
      <point x="71" y="63" type="curve" smooth="yes"/>
      <point x="40" y="63"/>
      <point x="12" y="38"/>
      <point x="6" y="7" type="curve" smooth="yes"/>
      <point x="1" y="-24"/>
      <point x="21" y="-48"/>
    </contour>
  </outline>
</glyph>
<glyph name="_smart.tsa.belt.caps" format="2">
  <anchor x="-41" y="755" name="_tsa.belt.caps"/>
  <outline>
    <contour>
      <point x="-405" y="751" type="line"/>
      <point x="430" y="751" type="line"/>
      <point x="439" y="805" type="line"/>
      <point x="-396" y="805" type="line"/>
    </contour>
  </outline>
</glyph>
<glyph name="_smart.yee" format="2">
  <anchor x="-39" y="336" name="_yee"/>
  <outline>
    <contour>
      <point x="89" y="182" type="curve" smooth="yes"/>
      <point x="185" y="182"/>
      <point x="273" y="256"/>
      <point x="290" y="352" type="curve" smooth="yes"/>
      <point x="307" y="448"/>
      <point x="246" y="526"/>
      <point x="150" y="526" type="curve" smooth="yes"/>
      <point x="56" y="526"/>
      <point x="-34" y="452"/>
      <point x="-52" y="352" type="curve" smooth="yes"/>
      <point x="-70" y="252"/>
      <point x="-3" y="182"/>
    </contour>
    <contour>
      <point x="98" y="236" type="curve" smooth="yes"/>
      <point x="30" y="236"/>
      <point x="-10" y="283"/>
      <point x="2" y="352" type="curve" smooth="yes"/>
      <point x="15" y="424"/>
      <point x="72" y="472"/>
      <point x="140" y="472" type="curve" smooth="yes"/>
      <point x="208" y="472"/>
      <point x="249" y="424"/>
      <point x="236" y="352" type="curve" smooth="yes"/>
      <point x="224" y="283"/>
      <point x="166" y="236"/>
    </contour>
  </outline>
</glyph>
<glyph name="_smart.yu" format="2">
  <anchor x="149" y="726" name="_yu"/>
  <outline>
    <contour>
      <point x="129" y="691" type="line"/>
      <point x="564" y="691" type="line"/>
      <point x="574" y="745" type="line"/>
      <point x="139" y="745" type="line"/>
    </contour>
  </outline>
</glyph>
<glyph name="_smart.zha" format="2">
  <anchor x="-29" y="956" name="_zha"/>
  <outline>
    <contour>
      <point x="-476" y="985" type="curve" smooth="yes"/>
      <point x="-445" y="985"/>
      <point x="-416" y="1009"/>
      <point x="-410" y="1040" type="curve" smooth="yes"/>
      <point x="-405" y="1071"/>
      <point x="-426" y="1096"/>
      <point x="-457" y="1096" type="curve" smooth="yes"/>
      <point x="-488" y="1096"/>
      <point x="-516" y="1071"/>
      <point x="-521" y="1040" type="curve" smooth="yes"/>
      <point x="-527" y="1009"/>
      <point x="-507" y="985"/>
    </contour>
    <contour>
      <point x="449" y="987" type="curve" smooth="yes"/>
      <point x="480" y="987"/>
      <point x="509" y="1011"/>
      <point x="515" y="1042" type="curve" smooth="yes"/>
      <point x="520" y="1073"/>
      <point x="500" y="1098"/>
      <point x="469" y="1098" type="curve" smooth="yes"/>
      <point x="438" y="1098"/>
      <point x="409" y="1073"/>
      <point x="401" y="1042" type="curve" smooth="yes"/>
      <point x="393" y="1011"/>
      <point x="418" y="987"/>
    </contour>
  </outline>
</glyph>
<glyph name="acute.yu" format="2">
  <advance width="1040"/>
  <outline>
    <contour>
      <point x="48" y="312" type="line"/>
      <point x="91" y="270" type="line"/>
      <point x="450" y="294" type="line"/>
      <point x="402" y="340" type="line"/>
    </contour>
  </outline>
</glyph>
<glyph name="bi-ethiopic.liga" format="2">
  <advance width="1365"/>
  <outline>
    <contour>
      <point x="-6" y="0" type="line"/>
      <point x="48" y="0" type="line"/>
      <point x="222" y="984" type="line" smooth="yes"/>
      <point x="270" y="1253"/>
      <point x="475" y="1422"/>
      <point x="743" y="1422" type="curve" smooth="yes"/>
      <point x="1011" y="1422"/>
      <point x="1157" y="1254"/>
      <point x="1109" y="983" type="curve" smooth="yes"/>
      <point x="935" y="0" type="line"/>
      <point x="989" y="0" type="line"/>
      <point x="1163" y="986" type="line" smooth="yes"/>
      <point x="1217" y="1294"/>
      <point x="1057" y="1476"/>
      <point x="752" y="1476" type="curve" smooth="yes"/>
      <point x="447" y="1476"/>
      <point x="223" y="1293"/>
      <point x="169" y="990" type="curve" smooth="yes"/>
    </contour>
    <contour>
      <point x="1062" y="-2" type="curve" smooth="yes"/>
      <point x="1093" y="-2"/>
      <point x="1122" y="22"/>
      <point x="1128" y="53" type="curve" smooth="yes"/>
      <point x="1133" y="84"/>
      <point x="1112" y="109"/>
      <point x="1081" y="109" type="curve" smooth="yes"/>
      <point x="1050" y="109"/>
      <point x="1022" y="84"/>
      <point x="1017" y="53" type="curve" smooth="yes"/>
      <point x="1011" y="22"/>
      <point x="1031" y="-2"/>
    </contour>
  </outline>
</glyph>
<glyph name="bo-ethiopic.liga" format="2">
  <advance width="1365"/>
  <outline>
    <contour>
      <point x="-6" y="0" type="line"/>
      <point x="48" y="0" type="line"/>
      <point x="222" y="984" type="line" smooth="yes"/>
      <point x="270" y="1253"/>
      <point x="475" y="1422"/>
      <point x="743" y="1422" type="curve" smooth="yes"/>
      <point x="1011" y="1422"/>
      <point x="1157" y="1254"/>
      <point x="1109" y="983" type="curve" smooth="yes"/>
      <point x="935" y="0" type="line"/>
      <point x="989" y="0" type="line"/>
      <point x="1163" y="986" type="line" smooth="yes"/>
      <point x="1217" y="1294"/>
      <point x="1057" y="1476"/>
      <point x="752" y="1476" type="curve" smooth="yes"/>
      <point x="447" y="1476"/>
      <point x="223" y="1293"/>
      <point x="169" y="990" type="curve" smooth="yes"/>
    </contour>
    <contour>
      <point x="-71" y="-373" type="line" name="❌"/>
      <point x="-14" y="-373" type="line" name="❌"/>
      <point x="48" y="-19" type="line"/>
      <point x="-9" y="-19" type="line"/>
    </contour>
  </outline>
</glyph>
<glyph name="ca-ethiopic.liga" format="2">
  <advance width="1224"/>
  <outline>
    <contour>
      <point x="394" y="0" type="line"/>
      <point x="448" y="0" type="line"/>
      <point x="695" y="1402" type="line"/>
      <point x="1225" y="1402" type="line"/>
      <point x="1235" y="1456" type="line"/>
      <point x="121" y="1456" type="line"/>
      <point x="111" y="1402" type="line"/>
      <point x="641" y="1402" type="line"/>
    </contour>
    <contour>
      <point x="650" y="1549" type="line"/>
      <point x="717" y="1549" type="line"/>
      <point x="762" y="1806" type="line"/>
      <point x="695" y="1806" type="line"/>
    </contour>
    <contour>
      <point x="383" y="1764" type="line"/>
      <point x="1057" y="1764" type="line"/>
      <point x="1064" y="1807" type="line"/>
      <point x="390" y="1807" type="line"/>
    </contour>
  </outline>
</glyph>
<glyph name="ce-ethiopic.liga" format="2">
  <advance width="1224"/>
  <outline>
    <contour>
      <point x="394" y="0" type="line"/>
      <point x="448" y="0" type="line"/>
      <point x="695" y="1402" type="line"/>
      <point x="1225" y="1402" type="line"/>
      <point x="1235" y="1456" type="line"/>
      <point x="121" y="1456" type="line"/>
      <point x="111" y="1402" type="line"/>
      <point x="641" y="1402" type="line"/>
    </contour>
    <contour>
      <point x="383" y="1764" type="line"/>
      <point x="1057" y="1764" type="line"/>
      <point x="1064" y="1807" type="line"/>
      <point x="390" y="1807" type="line"/>
    </contour>
    <contour>
      <point x="717" y="1525" type="line" name="❌"/>
      <point x="575" y="1791" type="line"/>
      <point x="509" y="1791" type="line"/>
      <point x="657" y="1525" type="line" name="❌"/>
    </contour>
  </outline>
</glyph>
<glyph name="cee-ethiopic.liga" format="2">
  <advance width="1224"/>
  <outline>
    <contour>
      <point x="394" y="0" type="line"/>
      <point x="448" y="0" type="line"/>
      <point x="695" y="1402" type="line"/>
      <point x="1225" y="1402" type="line"/>
      <point x="1235" y="1456" type="line"/>
      <point x="121" y="1456" type="line"/>
      <point x="111" y="1402" type="line"/>
      <point x="641" y="1402" type="line"/>
    </contour>
    <contour>
      <point x="395" y="-335" type="curve" smooth="yes"/>
      <point x="520" y="-335"/>
      <point x="634" y="-238"/>
      <point x="656" y="-114" type="curve" smooth="yes"/>
      <point x="678" y="11"/>
      <point x="599" y="113"/>
      <point x="474" y="113" type="curve" smooth="yes"/>
      <point x="353" y="113"/>
      <point x="235" y="16"/>
      <point x="212" y="-114" type="curve" smooth="yes"/>
      <point x="189" y="-244"/>
      <point x="275" y="-335"/>
    </contour>
    <contour>
      <point x="401" y="-297" type="curve" smooth="yes"/>
      <point x="299" y="-297"/>
      <point x="239" y="-226"/>
      <point x="257" y="-123" type="curve" smooth="yes"/>
      <point x="276" y="-15"/>
      <point x="361" y="57"/>
      <point x="463" y="57" type="curve" smooth="yes"/>
      <point x="565" y="57"/>
      <point x="626" y="-15"/>
      <point x="607" y="-123" type="curve" smooth="yes"/>
      <point x="589" y="-226"/>
      <point x="503" y="-297"/>
    </contour>
    <contour>
      <point x="650" y="1549" type="line"/>
      <point x="717" y="1549" type="line"/>
      <point x="762" y="1806" type="line"/>
      <point x="695" y="1806" type="line"/>
    </contour>
    <component base="_smart.hat.caps" xOffset="581" yOffset="82"/>
  </outline>
</glyph>
<glyph name="chee-ethiopic.liga" format="2">
  <advance width="1756"/>
  <outline>
    <contour>
      <point x="9" y="0" type="line"/>
      <point x="63" y="0" type="line"/>
      <point x="305" y="1369" type="line"/>
      <point x="664" y="0" type="line"/>
      <point x="707" y="0" type="line"/>
      <point x="1554" y="1376" type="line"/>
      <point x="1311" y="0" type="line"/>
      <point x="1365" y="0" type="line"/>
      <point x="1622" y="1456" type="line"/>
      <point x="1543" y="1456" type="line"/>
      <point x="699" y="79" type="line"/>
      <point x="343" y="1456" type="line"/>
      <point x="266" y="1456" type="line"/>
    </contour>
    <contour>
      <point x="1130" y="-353" type="curve" smooth="yes"/>
      <point x="1255" y="-353"/>
      <point x="1369" y="-256"/>
      <point x="1391" y="-132" type="curve" smooth="yes"/>
      <point x="1413" y="-7"/>
      <point x="1334" y="95"/>
      <point x="1209" y="95" type="curve" smooth="yes"/>
      <point x="1088" y="95"/>
      <point x="970" y="-2"/>
      <point x="947" y="-132" type="curve" smooth="yes"/>
      <point x="924" y="-262"/>
      <point x="1010" y="-353"/>
    </contour>
    <contour>
      <point x="1136" y="-315" type="curve" smooth="yes"/>
      <point x="1034" y="-315"/>
      <point x="974" y="-244"/>
      <point x="992" y="-141" type="curve" smooth="yes"/>
      <point x="1011" y="-33"/>
      <point x="1096" y="39"/>
      <point x="1198" y="39" type="curve" smooth="yes"/>
      <point x="1300" y="39"/>
      <point x="1361" y="-33"/>
      <point x="1342" y="-141" type="curve" smooth="yes"/>
      <point x="1324" y="-244"/>
      <point x="1238" y="-315"/>
    </contour>
    <contour>
      <point x="149" y="-9" type="curve" smooth="yes"/>
      <point x="180" y="-9"/>
      <point x="209" y="15"/>
      <point x="215" y="46" type="curve" smooth="yes"/>
      <point x="220" y="77"/>
      <point x="200" y="102"/>
      <point x="169" y="102" type="curve" smooth="yes"/>
      <point x="138" y="102"/>
      <point x="109" y="77"/>
      <point x="104" y="46" type="curve" smooth="yes"/>
      <point x="98" y="15"/>
      <point x="118" y="-9"/>
    </contour>
    <contour>
      <point x="1171" y="-9" type="curve" smooth="yes"/>
      <point x="1202" y="-9"/>
      <point x="1231" y="15"/>
      <point x="1237" y="46" type="curve" smooth="yes"/>
      <point x="1242" y="77"/>
      <point x="1222" y="102"/>
      <point x="1191" y="102" type="curve" smooth="yes"/>
      <point x="1160" y="102"/>
      <point x="1131" y="77"/>
      <point x="1126" y="46" type="curve" smooth="yes"/>
      <point x="1120" y="15"/>
      <point x="1140" y="-9"/>
    </contour>
  </outline>
</glyph>
<glyph name="chu-ethiopic.liga" format="2">
  <advance width="1756"/>
  <outline>
    <contour>
      <point x="9" y="0" type="line"/>
      <point x="63" y="0" type="line"/>
      <point x="305" y="1369" type="line"/>
      <point x="664" y="0" type="line"/>
      <point x="707" y="0" type="line"/>
      <point x="1554" y="1376" type="line"/>
      <point x="1311" y="0" type="line"/>
      <point x="1365" y="0" type="line"/>
      <point x="1622" y="1456" type="line"/>
      <point x="1543" y="1456" type="line"/>
      <point x="699" y="79" type="line"/>
      <point x="343" y="1456" type="line"/>
      <point x="266" y="1456" type="line"/>
    </contour>
    <contour>
      <point x="1664" y="1036" type="curve" smooth="yes"/>
      <point x="1695" y="1036"/>
      <point x="1724" y="1060"/>
      <point x="1729" y="1091" type="curve" smooth="yes"/>
      <point x="1735" y="1122"/>
      <point x="1714" y="1147"/>
      <point x="1683" y="1147" type="curve" smooth="yes"/>
      <point x="1652" y="1147"/>
      <point x="1624" y="1122"/>
      <point x="1618" y="1091" type="curve" smooth="yes"/>
      <point x="1613" y="1060"/>
      <point x="1633" y="1036"/>
    </contour>
    <contour>
      <point x="149" y="-9" type="curve" smooth="yes"/>
      <point x="180" y="-9"/>
      <point x="209" y="15"/>
      <point x="215" y="46" type="curve" smooth="yes"/>
      <point x="220" y="77"/>
      <point x="200" y="102"/>
      <point x="169" y="102" type="curve" smooth="yes"/>
      <point x="138" y="102"/>
      <point x="109" y="77"/>
      <point x="104" y="46" type="curve" smooth="yes"/>
      <point x="98" y="15"/>
      <point x="118" y="-9"/>
    </contour>
    <contour>
      <point x="1171" y="-9" type="curve" smooth="yes"/>
      <point x="1202" y="-9"/>
      <point x="1231" y="15"/>
      <point x="1237" y="46" type="curve" smooth="yes"/>
      <point x="1242" y="77"/>
      <point x="1222" y="102"/>
      <point x="1191" y="102" type="curve" smooth="yes"/>
      <point x="1160" y="102"/>
      <point x="1131" y="77"/>
      <point x="1126" y="46" type="curve" smooth="yes"/>
      <point x="1120" y="15"/>
      <point x="1140" y="-9"/>
    </contour>
  </outline>
</glyph>
<glyph name="chwa-ethiopic.liga" format="2">
  <advance width="1756"/>
  <outline>
    <contour>
      <point x="9" y="0" type="line"/>
      <point x="63" y="0" type="line"/>
      <point x="305" y="1369" type="line"/>
      <point x="664" y="0" type="line"/>
      <point x="707" y="0" type="line"/>
      <point x="1554" y="1376" type="line"/>
      <point x="1311" y="0" type="line"/>
      <point x="1365" y="0" type="line"/>
      <point x="1622" y="1456" type="line"/>
      <point x="1543" y="1456" type="line"/>
      <point x="699" y="79" type="line"/>
      <point x="343" y="1456" type="line"/>
      <point x="266" y="1456" type="line"/>
    </contour>
    <contour>
      <point x="925" y="-289" type="line"/>
      <point x="1462" y="-289" type="line"/>
      <point x="1444" y="-394" type="line"/>
      <point x="1479" y="-394" type="line"/>
      <point x="1505" y="-247" type="line"/>
      <point x="1300" y="-247" type="line"/>
      <point x="1354" y="-26" type="line"/>
      <point x="1297" y="-26" type="line"/>
      <point x="1243" y="-247" type="line"/>
      <point x="933" y="-247" type="line"/>
    </contour>
    <contour>
      <point x="149" y="-9" type="curve" smooth="yes"/>
      <point x="180" y="-9"/>
      <point x="209" y="15"/>
      <point x="215" y="46" type="curve" smooth="yes"/>
      <point x="220" y="77"/>
      <point x="200" y="102"/>
      <point x="169" y="102" type="curve" smooth="yes"/>
      <point x="138" y="102"/>
      <point x="109" y="77"/>
      <point x="104" y="46" type="curve" smooth="yes"/>
      <point x="98" y="15"/>
      <point x="118" y="-9"/>
    </contour>
    <contour>
      <point x="1171" y="-9" type="curve" smooth="yes"/>
      <point x="1202" y="-9"/>
      <point x="1231" y="15"/>
      <point x="1237" y="46" type="curve" smooth="yes"/>
      <point x="1242" y="77"/>
      <point x="1222" y="102"/>
      <point x="1191" y="102" type="curve" smooth="yes"/>
      <point x="1160" y="102"/>
      <point x="1131" y="77"/>
      <point x="1126" y="46" type="curve" smooth="yes"/>
      <point x="1120" y="15"/>
      <point x="1140" y="-9"/>
    </contour>
  </outline>
</glyph>
<glyph name="dde-ethiopic.liga" format="2">
  <advance width="1230"/>
  <outline>
    <contour>
      <point x="9" y="0" type="line"/>
      <point x="63" y="0" type="line"/>
      <point x="172" y="615" type="line"/>
      <point x="580" y="615" type="line" smooth="yes"/>
      <point x="876" y="615"/>
      <point x="1069" y="767"/>
      <point x="1116" y="1031" type="curve" smooth="yes"/>
      <point x="1163" y="1298"/>
      <point x="1018" y="1456"/>
      <point x="721" y="1456" type="curve" smooth="yes"/>
      <point x="266" y="1456" type="line"/>
    </contour>
    <contour>
      <point x="181" y="669" type="line"/>
      <point x="310" y="1402" type="line"/>
      <point x="711" y="1402" type="line" smooth="yes"/>
      <point x="974" y="1402"/>
      <point x="1103" y="1264"/>
      <point x="1062" y="1029" type="curve" smooth="yes"/>
      <point x="1022" y="802"/>
      <point x="845" y="669"/>
      <point x="582" y="669" type="curve" smooth="yes"/>
    </contour>
    <contour>
      <point x="835" y="-35" type="curve"/>
      <point x="883" y="-37" type="line"/>
      <point x="914" y="114"/>
      <point x="845" y="305"/>
      <point x="680" y="305" type="curve" smooth="yes"/>
      <point x="82" y="305" type="line"/>
      <point x="75" y="270" type="line"/>
      <point x="593" y="270" type="line" smooth="yes"/>
      <point x="873" y="270"/>
      <point x="851" y="60"/>
    </contour>
    <contour>
      <point x="649" y="1497" type="line"/>
      <point x="716" y="1497" type="line"/>
      <point x="761" y="1754" type="line"/>
      <point x="694" y="1754" type="line"/>
    </contour>
    <component base="_smart.he" xOffset="1473" yOffset="1062"/>
  </outline>
</glyph>
